<svg xmlns="http://www.w3.org/2000/svg" width="24" height="16" viewBox="0 0 24 16">
  <rect width="24" height="16" fill="#DE2910"/>
  <g fill="#FFDE00">
    <polygon points="2.4,2.4 3.03,4.35 1.2,3.1 3.6,3.1 1.77,4.35"/>
    <polygon transform="translate(6,1) rotate(23 0 0)" points="0,0 0.4,1.3 -0.8,0.5 0.8,0.5 -0.4,1.3"/>
    <polygon transform="translate(7,3) rotate(45 0 0)" points="0,0 0.4,1.3 -0.8,0.5 0.8,0.5 -0.4,1.3"/>
    <polygon transform="translate(7,5) rotate(10 0 0)" points="0,0 0.4,1.3 -0.8,0.5 0.8,0.5 -0.4,1.3"/>
    <polygon transform="translate(6,7) rotate(30 0 0)" points="0,0 0.4,1.3 -0.8,0.5 0.8,0.5 -0.4,1.3"/>
  </g>
</svg>
