<svg width="20" height="20" viewBox="0 0 20 20" fill="none" xmlns="http://www.w3.org/2000/svg">
<path d="M16.5447 8.56027C16.3592 8.56027 16.1737 8.57979 15.9785 8.60908V5.07565C15.9785 4.50952 15.5198 4.05076 14.9536 4.05076H11.4007C11.4397 3.85554 11.4495 3.65056 11.4495 3.45534C11.4495 1.55198 9.89751 0 7.98438 0C6.07125 0 4.51928 1.55198 4.51928 3.45534C4.51928 3.66032 4.5388 3.85554 4.56808 4.05076H1.02489C0.45876 4.05076 0 4.50952 0 5.07565V9.58516C0 10.1513 0.45876 10.6101 1.02489 10.6101C1.80576 10.6101 2.44021 11.2445 2.44021 12.0254C2.44021 12.8062 1.80576 13.4407 1.02489 13.4407C0.45876 13.4407 0 13.8995 0 14.4656V18.9751C0 19.5412 0.45876 20 1.02489 20H5.54417C6.1103 20 6.56906 19.5412 6.56906 18.9751C6.56906 18.1942 7.20351 17.5598 7.98438 17.5598C8.76525 17.5598 9.39971 18.1942 9.39971 18.9751C9.39971 19.5412 9.85847 20 10.4246 20H14.9439C15.51 20 15.9688 19.5412 15.9688 18.9751V15.4417C16.1542 15.471 16.3397 15.4905 16.5349 15.4905C18.448 15.4905 20 13.9385 20 12.0351C20 10.1318 18.448 8.57003 16.5349 8.57003L16.5447 8.56027ZM16.5447 13.4407C16.2128 13.4407 15.8809 13.3236 15.6271 13.0991C15.3245 12.8355 14.8853 12.777 14.5339 12.9429C14.1728 13.1088 13.9385 13.47 13.9385 13.8702V17.9502H11.3128C10.8638 16.5154 9.51684 15.51 8.0039 15.51C6.49097 15.51 5.13421 16.5056 4.69497 17.9502H2.0693V15.3343C3.51391 14.8853 4.50952 13.5383 4.50952 12.0254C4.50952 10.5124 3.51391 9.16545 2.0693 8.71645V6.10054H6.18838C6.58858 6.10054 6.95949 5.86628 7.12543 5.49536C7.29136 5.12445 7.22304 4.69497 6.94973 4.39239C6.71547 4.12884 6.58858 3.79697 6.58858 3.45534C6.58858 2.67448 7.22304 2.04002 8.0039 2.04002C8.78477 2.04002 9.41923 2.67448 9.41923 3.45534C9.41923 3.79697 9.29234 4.1386 9.05808 4.39239C8.78477 4.69497 8.71645 5.12445 8.88238 5.49536C9.04832 5.86628 9.41923 6.10054 9.81942 6.10054H13.9385V10.1806C13.9385 10.5808 14.1728 10.9419 14.5339 11.1079C14.8951 11.2738 15.3245 11.2152 15.6271 10.9517C15.8809 10.7272 16.2128 10.6101 16.5447 10.6101C17.3255 10.6101 17.96 11.2445 17.96 12.0254C17.96 12.8062 17.3255 13.4407 16.5447 13.4407Z" fill="#4B505A"/>
</svg>
