<svg width="18" height="18" viewBox="0 0 18 18" fill="none" xmlns="http://www.w3.org/2000/svg">
<path d="M9 0C4.03516 0 0 4.04505 0 9C0 13.9549 4.03516 18 9 18C13.9648 18 18 13.9648 18 9C18 4.03516 13.9648 0 9 0ZM12.6791 11.1264V11.1066C12.6791 11.1066 12.7088 11.067 12.7088 11.0473C13.0549 10.4242 13.2429 9.72198 13.2429 9C13.2429 8.34725 13.0846 7.6945 12.7879 7.1011C12.6099 6.74505 12.3824 6.40879 12.0956 6.11209H16.0813C16.4571 7.03187 16.6451 8.0011 16.6451 9C16.6451 13.0648 13.5198 16.378 9.4945 16.6352L12.6791 11.1264ZM11.8879 9C11.8879 9.77143 11.5912 10.5033 11.0473 11.0473C10.5033 11.5912 9.77143 11.8978 9 11.8978C8.22857 11.8978 7.4967 11.5912 6.95275 11.0473C6.40879 10.5033 6.11209 9.77143 6.11209 9C6.11209 8.22857 6.40879 7.50659 6.95275 6.96264C7.4967 6.41868 8.23846 6.11209 9 6.11209C9.76154 6.11209 10.5033 6.40879 11.0473 6.96264C11.5912 7.50659 11.8879 8.22857 11.8879 9ZM9 1.35494C11.5714 1.35494 13.9451 2.62088 15.3593 4.75714H9C9 4.75714 8.96044 4.75714 8.94066 4.76703C7.91209 4.77692 6.93297 5.16264 6.17143 5.85494C5.58791 6.36923 5.17253 7.03187 4.94505 7.76374L2.95714 4.31209C4.41099 2.43297 6.61648 1.35494 9 1.35494ZM1.35494 9C1.35494 7.81319 1.62198 6.67582 2.14615 5.61758L5.31099 11.1066L5.33077 11.1264C5.33077 11.1264 5.35055 11.1758 5.37033 11.1956C5.74615 11.8187 6.28022 12.333 6.91319 12.689C7.82308 13.2132 8.93077 13.3714 9.94945 13.1341L7.96154 16.5857C4.19341 16.0714 1.35494 12.8275 1.35494 9Z" fill="#8264FF"/>
</svg>
