<svg width="18" height="18" viewBox="0 0 18 18" fill="none" xmlns="http://www.w3.org/2000/svg">
<path d="M14.4 10.65V14.25C14.4 16.3177 12.7178 18 10.65 18H3.75C1.68225 18 0 16.3177 0 14.25V7.35C0 5.28225 1.68225 3.6 3.75 3.6H7.35C7.764 3.6 8.1 3.936 8.1 4.35C8.1 4.764 7.764 5.1 7.35 5.1H3.75C2.5095 5.1 1.5 6.1095 1.5 7.35V14.25C1.5 15.4905 2.5095 16.5 3.75 16.5H10.65C11.8905 16.5 12.9 15.4905 12.9 14.25V10.65C12.9 10.236 13.236 9.9 13.65 9.9C14.064 9.9 14.4 10.236 14.4 10.65ZM15.75 0H12.45C12.036 0 11.7 0.336 11.7 0.75C11.7 1.164 12.036 1.5 12.45 1.5H15.4395L7.2 9.7395C6.90675 10.0328 6.90675 10.5068 7.2 10.8C7.34625 10.9462 7.53825 11.0197 7.73025 11.0197C7.92225 11.0197 8.11425 10.9462 8.2605 10.8L16.5 2.5605V5.55C16.5 5.964 16.836 6.3 17.25 6.3C17.664 6.3 18 5.964 18 5.55V2.25C18 1.0095 16.9905 0 15.75 0Z" fill="#8264FF"/>
</svg>
