<svg width="18" height="18" viewBox="0 0 18 18" fill="none" xmlns="http://www.w3.org/2000/svg">
<path d="M8.99996 0C7.21993 0 5.47988 0.527838 3.99985 1.51677C2.51982 2.50569 1.36627 3.91129 0.685085 5.55582C0.00389955 7.20035 -0.17433 9.00994 0.172936 10.7558C0.520201 12.5016 1.37736 14.1052 2.63603 15.3639C3.89469 16.6225 5.49833 17.4797 7.24415 17.827C8.98997 18.1742 10.7996 17.996 12.4441 17.3148C14.0886 16.6336 15.4942 15.4801 16.4831 14.0001C17.4721 12.52 17.9999 10.78 17.9999 8.99995C17.9973 6.61381 17.0483 4.32613 15.361 2.63888C13.6738 0.951616 11.3861 0.0025808 8.99996 0ZM8.99996 16.4999C7.5166 16.4999 6.06656 16.06 4.8332 15.2359C3.59984 14.4118 2.63855 13.2405 2.0709 11.8701C1.50324 10.4996 1.35472 8.99163 1.64411 7.53678C1.93349 6.08193 2.6478 4.74557 3.69668 3.69668C4.74557 2.64779 6.08194 1.93349 7.53679 1.6441C8.99164 1.35471 10.4996 1.50324 11.8701 2.07089C13.2405 2.63855 14.4118 3.59984 15.2359 4.8332C16.0601 6.06656 16.4999 7.5166 16.4999 8.99995C16.4977 10.9884 15.7069 12.8948 14.3008 14.3008C12.8948 15.7069 10.9884 16.4977 8.99996 16.4999Z" fill="#8264FF"/>
<path d="M9.00011 7.5H8.25012C8.05121 7.5 7.86044 7.57902 7.71979 7.71967C7.57914 7.86032 7.50012 8.05108 7.50012 8.25C7.50012 8.44891 7.57914 8.63967 7.71979 8.78032C7.86044 8.92097 8.05121 8.99999 8.25012 8.99999H9.00011V13.5C9.00011 13.6989 9.07913 13.8896 9.21978 14.0303C9.36043 14.1709 9.5512 14.25 9.75011 14.25C9.94902 14.25 10.1398 14.1709 10.2804 14.0303C10.4211 13.8896 10.5001 13.6989 10.5001 13.5V8.99999C10.5001 8.60217 10.3421 8.22064 10.0608 7.93934C9.77947 7.65803 9.39794 7.5 9.00011 7.5Z" fill="#8264FF"/>
<path d="M9.00012 5.99999C9.62143 5.99999 10.1251 5.49631 10.1251 4.87499C10.1251 4.25368 9.62143 3.75 9.00012 3.75C8.3788 3.75 7.87512 4.25368 7.87512 4.87499C7.87512 5.49631 8.3788 5.99999 9.00012 5.99999Z" fill="#8264FF"/>
</svg>
