<svg width="18" height="18" viewBox="0 0 18 18" fill="none" xmlns="http://www.w3.org/2000/svg">
<path d="M6.7495 4.125C6.7495 3.5025 7.25203 3 7.87455 3C8.49708 3 8.9996 3.5025 8.9996 4.125C8.9996 4.7475 8.49708 5.25 7.87455 5.25C7.25203 5.25 6.7495 4.7475 6.7495 4.125ZM18 3.75V8.25C18 10.32 16.3199 12 14.2498 12H7.49954C5.42944 12 3.74937 10.32 3.74937 8.25V3.75C3.74937 1.68 5.42944 0 7.49954 0H14.2498C16.3199 0 18 1.68 18 3.75ZM5.24944 8.25C5.24944 8.8275 5.46695 9.3525 5.82696 9.7575L9.75714 5.8275C10.4922 5.0925 11.7747 5.0925 12.5098 5.8275L13.2898 6.6075C13.4623 6.78 13.7548 6.78 13.9273 6.6075L16.4999 4.035V3.75C16.4999 2.5125 15.4874 1.5 14.2498 1.5H7.49954C6.26198 1.5 5.24944 2.5125 5.24944 3.75V8.25ZM16.4999 8.25V6.1575L14.9849 7.6725C14.2498 8.4075 12.9673 8.4075 12.2322 7.6725L11.4522 6.8925C11.2797 6.72 10.9947 6.72 10.8147 6.8925L7.22202 10.485C7.31203 10.5 7.40203 10.5 7.49954 10.5H14.2498C15.4874 10.5 16.4999 9.4875 16.4999 8.25ZM13.5673 13.53C13.1698 13.4175 12.7573 13.6575 12.6448 14.055L12.4273 14.85C12.2697 15.4275 11.8947 15.915 11.3697 16.2075C10.8447 16.5075 10.2372 16.5825 9.65963 16.425L3.14934 14.64C1.94929 14.31 1.24426 13.0725 1.57427 11.8725L2.29431 9.2025C2.39931 8.805 2.1668 8.3925 1.76928 8.28C1.37176 8.175 0.959246 8.4075 0.846741 8.805L0.13421 11.4675C-0.413314 13.4625 0.764238 15.5325 2.75933 16.08L9.26961 17.865C9.59963 17.955 9.93714 18 10.2672 18C10.9122 18 11.5422 17.835 12.1197 17.505C12.9898 17.01 13.6123 16.2075 13.8823 15.24L14.0998 14.445C14.2123 14.0475 13.9723 13.635 13.5748 13.5225L13.5673 13.53Z" fill="#3C78F0"/>
</svg>
