<svg width="18" height="18" viewBox="0 0 18 18" fill="none" xmlns="http://www.w3.org/2000/svg">
<path d="M15.9749 10.4134L15.6374 10.2185C15.7124 9.81367 15.7499 9.40133 15.7499 8.99648C15.7499 8.59164 15.7124 8.1868 15.6374 7.77446L15.9749 7.57954C17.0474 6.96478 17.4224 5.58532 16.8074 4.50574C16.5074 3.98844 16.0199 3.61359 15.4424 3.45615C14.8649 3.29871 14.2574 3.38118 13.7324 3.68106L13.3949 3.87599C12.7649 3.3362 12.0374 2.91636 11.2499 2.63897V2.24912C11.2499 1.0121 10.2374 0 8.99988 0C7.76238 0 6.74988 1.0121 6.74988 2.24912V2.63897C5.96238 2.91636 5.23488 3.3362 4.60488 3.87599L4.26738 3.68106C3.74988 3.38118 3.14238 3.30621 2.55738 3.45615C1.97988 3.61359 1.49238 3.98844 1.19238 4.50574C0.577381 5.57782 0.944881 6.95728 2.01738 7.57954L2.35488 7.77446C2.27988 8.1793 2.24238 8.59164 2.24238 8.99648C2.24238 9.40133 2.27988 9.80617 2.35488 10.2185L2.01738 10.4134C0.944881 11.0282 0.569881 12.4077 1.18488 13.4872C1.48488 14.0045 1.97238 14.3794 2.54988 14.5368C3.12738 14.6943 3.73488 14.6118 4.25988 14.3119L4.59738 14.117C5.22738 14.6568 5.95488 15.0766 6.74238 15.354V15.7438C6.74238 16.9809 7.75488 17.993 8.99238 17.993C10.2299 17.993 11.2424 16.9809 11.2424 15.7438V15.354C12.0299 15.0766 12.7574 14.6568 13.3874 14.117L13.7249 14.3119C14.2424 14.6118 14.8499 14.6943 15.4349 14.5368C16.0124 14.3794 16.4999 14.0045 16.7999 13.4872C17.4149 12.4151 17.0474 11.0357 15.9749 10.4134ZM14.0549 7.60953C14.1824 8.07435 14.2499 8.54666 14.2499 9.00398C14.2499 9.4613 14.1824 9.92612 14.0549 10.3984C13.9649 10.7283 14.1074 11.0732 14.4074 11.2456L15.2249 11.7179C15.5849 11.9278 15.7049 12.3852 15.5024 12.745C15.4049 12.9175 15.2399 13.0449 15.0449 13.0974C14.8499 13.1499 14.6474 13.1274 14.4749 13.0224L13.6574 12.5501C13.3574 12.3777 12.9899 12.4301 12.7499 12.6775C12.0824 13.3598 11.2424 13.8471 10.3124 14.087C9.98238 14.1695 9.74988 14.4693 9.74988 14.8142V15.7588C9.74988 16.1712 9.41238 16.5085 8.99988 16.5085C8.58738 16.5085 8.24988 16.1712 8.24988 15.7588V14.8142C8.24988 14.4693 8.01738 14.177 7.68738 14.087C6.75738 13.8471 5.91738 13.3598 5.24988 12.6775C5.10738 12.5276 4.91238 12.4526 4.70988 12.4526C4.58238 12.4526 4.45488 12.4826 4.33488 12.5501L3.51738 13.0224C3.34488 13.1199 3.14238 13.1499 2.94738 13.0974C2.75238 13.0449 2.59488 12.9175 2.48988 12.745C2.28738 12.3852 2.40738 11.9278 2.76738 11.7179L3.58488 11.2456C3.88488 11.0732 4.02738 10.7283 3.93738 10.3984C3.80988 9.93362 3.74238 9.4613 3.74238 9.00398C3.74238 8.54666 3.80988 8.08184 3.93738 7.60953C4.02738 7.27966 3.88488 6.93479 3.58488 6.76236L2.76738 6.29004C2.40738 6.08012 2.28738 5.6228 2.48988 5.26294C2.58738 5.09051 2.75238 4.96306 2.94738 4.91058C3.14238 4.8581 3.34488 4.88809 3.51738 4.98555L4.33488 5.45787C4.63488 5.6303 5.00238 5.57782 5.24238 5.33042C5.90988 4.64818 6.74988 4.16087 7.67988 3.92097C8.00988 3.8385 8.24238 3.53862 8.24238 3.19375V2.24912C8.24238 1.83678 8.57988 1.49941 8.99238 1.49941C9.40488 1.49941 9.74238 1.83678 9.74238 2.24912V3.19375C9.74238 3.53862 9.97488 3.831 10.3049 3.92097C11.2349 4.16087 12.0749 4.64818 12.7424 5.33042C12.9824 5.57782 13.3574 5.6303 13.6499 5.45787L14.4674 4.98555C14.6399 4.88809 14.8424 4.8581 15.0374 4.91058C15.2324 4.96306 15.3899 5.09051 15.4949 5.26294C15.6974 5.6228 15.5774 6.08012 15.2174 6.29004L14.3999 6.76236C14.0999 6.93479 13.9574 7.27966 14.0474 7.60953H14.0549Z" fill="#3C78F0"/>
<circle cx="9" cy="9" r="2.25" stroke="#3C78F0" stroke-width="1.5"/>
</svg>
