<svg width="20" height="20" viewBox="0 0 20 20" fill="none" xmlns="http://www.w3.org/2000/svg">
<path d="M1 14V5C1 3.11438 1 2.17157 1.58579 1.58579C2.17157 1 3.11438 1 5 1H13.9069C16.0591 1 17.1351 1 17.3843 1.63448C17.6334 2.26896 16.8449 3.00117 15.2678 4.46559L15.1566 4.56883C13.6784 5.94152 12.9392 6.62786 12.9392 7.5C12.9392 8.37214 13.6784 9.05848 15.1566 10.4312L15.2678 10.5344C16.8449 11.9988 17.6334 12.731 17.3843 13.3655C17.1351 14 16.0591 14 13.9069 14H1ZM1 14V19" stroke="#4B505A" stroke-width="2" stroke-linecap="round"/>
</svg>
