<svg width="20" height="20" viewBox="0 0 20 20" fill="none" xmlns="http://www.w3.org/2000/svg">
<path d="M1 9C1 5.22876 1 3.34315 2.17157 2.17157C3.34315 1 5.22876 1 9 1H11C14.7712 1 16.6569 1 17.8284 2.17157C19 3.34315 19 5.22876 19 9V11C19 14.7712 19 16.6569 17.8284 17.8284C16.6569 19 14.7712 19 11 19H9C5.22876 19 3.34315 19 2.17157 17.8284C1 16.6569 1 14.7712 1 11V9Z" stroke="#4B505A" stroke-width="2"/>
<path fill-rule="evenodd" clip-rule="evenodd" d="M17.9997 11.5856C17.5963 11.1825 17.2433 10.8342 16.9234 10.5717C16.5534 10.2679 16.1478 10.0092 15.6448 9.89853C15.22 9.80505 14.78 9.80505 14.3552 9.89853C13.8523 10.0092 13.4466 10.2679 13.0766 10.5717C12.7273 10.8584 12.3384 11.2474 11.8875 11.6983L11.8875 11.6983L11.8544 11.7314C11.5396 12.0463 11.3588 12.2252 11.218 12.339L11.203 12.3509L11.1914 12.3357C11.0824 12.1912 10.9504 11.9737 10.7213 11.592L10.454 11.1464L10.4127 11.0776C9.74803 9.96966 9.19165 9.04224 8.66068 8.39534C8.10635 7.71998 7.42567 7.15665 6.4717 7.11258C5.51773 7.06851 4.78802 7.56669 4.17378 8.18806C3.58543 8.78325 2.94592 9.65541 2.18196 10.6973L2.18195 10.6973L2.13444 10.7621L2 10.9454V11.0001C2 12.3981 2.0022 13.4403 2.04982 14.2596L3.74727 11.9448C4.57133 10.8211 5.12433 10.0714 5.59614 9.59408C6.05421 9.13069 6.26231 9.10504 6.37941 9.11045C6.49651 9.11586 6.70135 9.16058 7.11475 9.66424C7.54054 10.183 8.02207 10.9805 8.73901 12.1754L9.00631 12.6209L9.02941 12.6594C9.22694 12.9888 9.41378 13.3002 9.59475 13.5401C9.78963 13.7985 10.0602 14.0896 10.4699 14.2499C10.7825 14.3722 11.1208 14.4138 11.4537 14.371C11.8901 14.3149 12.2232 14.098 12.4749 13.8947C12.7086 13.7058 12.9654 13.449 13.2369 13.1774L13.2369 13.1774L13.2687 13.1456C13.7621 12.6522 14.0815 12.3343 14.3457 12.1174C14.5976 11.9106 14.717 11.8668 14.7851 11.8518C14.9267 11.8206 15.0733 11.8206 15.2149 11.8518C15.283 11.8668 15.4024 11.9106 15.6543 12.1174C15.9185 12.3343 16.2379 12.6522 16.7313 13.1456L17.9441 14.3585C17.9902 13.6406 17.9983 12.7482 17.9997 11.5856Z" fill="#4B505A"/>
<circle cx="12" cy="6" r="2" fill="#4B505A"/>
</svg>
