<svg width="18" height="18" viewBox="0 0 18 18" fill="none" xmlns="http://www.w3.org/2000/svg">
<path d="M1.40892 13.4065C0.757291 14.3061 0.289607 15.3254 0.032661 16.406C-0.0164205 16.6211 -0.0100963 16.8452 0.0510416 17.0572C0.11218 17.2692 0.226131 17.4623 0.382229 17.6183C0.538326 17.7743 0.731462 17.8881 0.943556 17.9491C1.15565 18.0102 1.37976 18.0164 1.59492 17.9672C2.67406 17.7099 3.69193 17.2426 4.59042 16.5919C5.01292 16.1701 5.25051 15.5978 5.25093 15.0008C5.25135 14.4038 5.01457 13.8311 4.59267 13.4087C4.17078 12.9863 3.59833 12.7487 3.00126 12.7483C2.40419 12.7479 1.83141 12.9846 1.40892 13.4065ZM3.52992 15.5279C2.92542 15.915 2.26882 16.2139 1.57992 16.4157C1.78203 15.727 2.08102 15.0706 2.46792 14.466C2.60937 14.3294 2.79882 14.2539 2.99547 14.2556C3.19212 14.2573 3.38023 14.3361 3.51929 14.4752C3.65834 14.6142 3.73722 14.8023 3.73893 14.9989C3.74064 15.1955 3.66504 15.3849 3.52842 15.5264L3.52992 15.5279ZM13.4997 6.37414C13.4997 6.87134 13.3022 7.34817 12.9505 7.69974C12.5989 8.05132 12.122 8.24883 11.6247 8.24883C11.1274 8.24883 10.6505 8.05132 10.2989 7.69974C9.94724 7.34817 9.74969 6.87134 9.74969 6.37414C9.74969 5.87694 9.94724 5.40011 10.2989 5.04854C10.6505 4.69696 11.1274 4.49945 11.6247 4.49945C12.122 4.49945 12.5989 4.69696 12.9505 5.04854C13.3022 5.40011 13.4997 5.87694 13.4997 6.37414ZM15.7287 0.000205223C13.9439 -0.010403 12.1806 0.390385 10.5758 1.17146C8.97101 1.95253 7.56782 3.09287 6.47518 4.50395C5.28353 4.54514 4.11475 4.8426 3.04842 5.37606C1.81183 5.94538 0.802344 6.9135 0.181911 8.1251C0.0363131 8.46312 -0.0227867 8.83207 0.00994867 9.19864C0.042684 9.56522 0.166224 9.91787 0.369412 10.2247C0.57454 10.5391 0.854879 10.7974 1.18503 10.9761C1.51519 11.1549 1.88472 11.2484 2.26017 11.2483H4.12467C4.81984 11.2517 5.48557 11.5293 5.97713 12.0207C6.46869 12.5122 6.74633 13.1778 6.74968 13.8729V15.7371C6.74942 16.1123 6.84276 16.4817 7.02125 16.8118C7.19975 17.1419 7.45776 17.4222 7.77193 17.6275C8.07887 17.8307 8.43158 17.9542 8.79821 17.9869C9.16485 18.0196 9.53387 17.9606 9.87194 17.815C11.0837 17.1947 12.052 16.1853 12.6214 14.949C13.155 13.8828 13.4525 12.7142 13.4937 11.5228C14.9073 10.4275 16.0492 9.02113 16.8307 7.41287C17.6122 5.80461 18.0122 4.03782 17.9997 2.24983C17.9988 1.95288 17.9393 1.65903 17.8246 1.38512C17.7099 1.11122 17.5423 0.862638 17.3313 0.653643C17.1203 0.444647 16.8702 0.279345 16.5951 0.167214C16.3201 0.0550832 16.0257 -0.00167113 15.7287 0.000205223ZM3.25917 9.74858H2.26017C2.13334 9.74955 2.00834 9.71835 1.89685 9.65789C1.78536 9.59744 1.69102 9.5097 1.62267 9.40288C1.55551 9.30367 1.51447 9.18914 1.50332 9.06986C1.49218 8.95059 1.5113 8.83043 1.55892 8.7205C2.04218 7.83499 2.8014 7.13145 3.72117 6.71683C4.1964 6.47859 4.69813 6.29737 5.21593 6.17692C4.47045 7.31399 3.81615 8.50827 3.25917 9.74858ZM11.2842 14.2763C10.8695 15.1957 10.1662 15.9547 9.28094 16.4382C9.17088 16.4859 9.05057 16.505 8.93114 16.4939C8.81172 16.4828 8.69703 16.4417 8.59769 16.3745C8.49085 16.3061 8.4031 16.2118 8.34263 16.1003C8.28217 15.9889 8.25096 15.8639 8.25194 15.7371V14.7382C9.49245 14.1814 10.6869 13.5272 11.8242 12.7818C11.703 13.2996 11.521 13.8013 11.2819 14.2763H11.2842ZM11.3854 11.2618C10.3705 11.9666 9.29914 12.5864 8.18219 13.1148C8.02966 12.296 7.63277 11.5425 7.04373 10.9536C6.45469 10.3646 5.70112 9.96781 4.88218 9.81532C5.41107 8.69955 6.03117 7.62935 6.73618 6.6156C9.26219 3.09269 11.8797 1.61019 15.7497 1.49995C15.945 1.49988 16.1327 1.57599 16.2728 1.71211C16.4128 1.84823 16.4942 2.03362 16.4997 2.22883C16.3895 6.11918 14.9067 8.73625 11.3832 11.2618H11.3854Z" fill="#3C78F0"/>
</svg>
