<svg width="18" height="18" viewBox="0 0 18 18" fill="none" xmlns="http://www.w3.org/2000/svg">
<path d="M11 1H17M17 1V7M17 1L9 9" stroke="#4B505A" stroke-width="2"/>
<path d="M7 3H5.86C4.1232 3 3.2548 3 2.59621 3.3487C2.06474 3.6301 1.6301 4.06474 1.3487 4.59621C1 5.2548 1 6.1232 1 7.86V12.14C1 13.8768 1 14.7452 1.3487 15.4038C1.6301 15.9353 2.06474 16.3699 2.59621 16.6513C3.2548 17 4.1232 17 5.86 17H10.14C11.8768 17 12.7452 17 13.4038 16.6513C13.9353 16.3699 14.3699 15.9353 14.6513 15.4038C15 14.7452 15 13.8768 15 12.14V11" stroke="#4B505A" stroke-width="2" stroke-linecap="round"/>
</svg>
