<svg width="18" height="18" viewBox="0 0 18 18" fill="none" xmlns="http://www.w3.org/2000/svg">
<path d="M8.92726 11.9997C9.54826 11.9997 10.0523 12.5037 10.0523 13.1247C10.0523 13.7458 9.54826 14.2498 8.92726 14.2498C8.30626 14.2498 7.80227 13.7458 7.80227 13.1247C7.80227 12.5037 8.30626 11.9997 8.92726 11.9997ZM9.67726 10.4996C9.67726 10.0788 9.98326 9.58077 10.3733 9.36551C11.4983 8.74597 12.1035 7.47315 11.88 6.19808C11.6678 4.98826 10.6748 3.99445 9.46426 3.78219C8.57776 3.62918 7.67927 3.86619 6.99752 4.43772C6.31727 5.01001 5.92652 5.84705 5.92652 6.73511C5.92652 7.14988 6.26252 7.48515 6.67652 7.48515C7.09052 7.48515 7.42652 7.14988 7.42652 6.73511C7.42652 6.29108 7.62151 5.87256 7.96201 5.58604C8.30776 5.29652 8.75101 5.17952 9.20476 5.25977C9.79501 5.36328 10.2983 5.86731 10.4018 6.45684C10.5165 7.11013 10.221 7.73566 9.64876 8.05068C8.78176 8.52846 8.17651 9.53502 8.17651 10.4988C8.17651 10.9136 8.51251 11.2489 8.92651 11.2489C9.34051 11.2489 9.67651 10.9136 9.67651 10.4988L9.67726 10.4996ZM17.9993 14.2498V9.2545C17.9993 4.39497 14.3213 0.33949 9.62626 0.0199719C7.02002 -0.152538 4.47002 0.798516 2.63102 2.63987C0.792025 4.48198 -0.158974 7.03287 0.0217762 9.64002C0.351776 14.4058 4.56077 18 9.81226 18H14.25C16.3178 18 17.9993 16.3177 17.9993 14.2498ZM9.52501 1.51706C13.4363 1.78257 16.4993 5.18102 16.4993 9.25375V14.249C16.4993 15.4896 15.4898 16.4992 14.2493 16.4992H9.81151C5.28527 16.4992 1.79702 13.571 1.51727 9.53577C1.36652 7.36139 2.15852 5.23427 3.69152 3.69968C5.10302 2.28585 7.01777 1.49906 9.01051 1.49906C9.18151 1.49906 9.35326 1.50506 9.52426 1.51631L9.52501 1.51706Z" fill="#8264FF"/>
</svg>
