<svg width="20" height="20" viewBox="0 0 20 20" fill="none" xmlns="http://www.w3.org/2000/svg">
<path d="M19.9132 9.54138C19.6767 7.7701 18.9518 6.09571 17.8165 4.69863C16.6812 3.30155 15.1787 2.23477 13.4708 1.61325C11.7629 0.991725 9.91446 0.839034 8.12462 1.17163C6.33478 1.50422 4.67143 2.30949 3.31384 3.50064C2.28802 4.40962 1.46439 5.51627 0.894376 6.75147C0.324366 7.98666 0.0202326 9.32385 0.000975529 10.6795C-0.0182816 12.0351 0.247752 13.3801 0.782455 14.6304C1.31716 15.8807 2.10904 17.0094 3.10864 17.946C3.8704 18.6369 4.87386 19.0141 5.91134 18.9996H14.0575C15.1517 19.0024 16.203 18.5825 16.9837 17.8307C18.0973 16.7687 18.9422 15.466 19.4508 14.0267C19.9595 12.5874 20.1178 11.0514 19.9132 9.54138ZM15.8176 16.6618C15.3476 17.1132 14.7154 17.3653 14.0575 17.3637H5.91134C5.30155 17.3761 4.71002 17.1592 4.25808 16.7575C3.42508 15.9771 2.76517 15.0365 2.31958 13.9946C1.87399 12.9528 1.65229 11.832 1.66834 10.7023C1.68438 9.57267 1.93783 8.45839 2.41285 7.42911C2.88786 6.39982 3.57423 5.47766 4.42908 4.72024C6.05804 3.32237 8.17734 2.6002 10.3392 2.70631C12.5012 2.81241 14.5363 3.73849 16.0148 5.28888C17.4933 6.83926 18.2993 8.89253 18.2625 11.0149C18.2257 13.1372 17.349 15.1616 15.8176 16.6618ZM14.7474 6.15169C14.9038 6.30509 14.9916 6.5131 14.9916 6.73C14.9916 6.9469 14.9038 7.15492 14.7474 7.30831L11.5985 10.3962C11.6936 10.744 11.669 11.1129 11.5284 11.4457C11.3879 11.7784 11.1394 12.0564 10.8213 12.2364C10.5033 12.4165 10.1335 12.4887 9.76939 12.4417C9.40527 12.3947 9.06715 12.2312 8.80746 11.9765C8.54777 11.7218 8.38103 11.3903 8.3331 11.0332C8.28517 10.6761 8.35873 10.3136 8.54237 10.0017C8.72602 9.68979 9.00948 9.44605 9.34879 9.30825C9.6881 9.17045 10.0643 9.1463 10.419 9.23954L13.5679 6.15169C13.7243 5.99835 13.9365 5.9122 14.1576 5.9122C14.3788 5.9122 14.591 5.99835 14.7474 6.15169Z" fill="url(#paint0_linear_712_797)"/>
<defs>
<linearGradient id="paint0_linear_712_797" x1="0" y1="1" x2="10" y2="19" gradientUnits="userSpaceOnUse">
<stop stop-color="#D2C3FF"/>
<stop offset="1" stop-color="#A07DFF"/>
</linearGradient>
</defs>
</svg>
