<svg width="24" height="24" viewBox="0 0 24 24" fill="none" xmlns="http://www.w3.org/2000/svg">
<path d="M12.0011 6.00105H22.3931C21.34 4.1765 19.8252 2.66136 18.0008 1.60798C16.1765 0.554594 14.1069 9.71862e-05 12.0003 0.00024417C9.89369 0.000391153 7.82423 0.555176 6.00003 1.60882C4.17583 2.66245 2.66118 4.17781 1.6084 6.0025L6.80438 15.0022L6.80903 15.001C6.28046 14.0895 6.00152 13.0548 6.00034 12.0012C5.99916 10.9475 6.27576 9.91216 6.80228 8.99949C7.3288 8.08682 8.08662 7.32909 8.99935 6.80267C9.91208 6.27625 10.9475 5.99975 12.0011 6.00105Z" fill="url(#paint0_linear_720_1906)"/>
<path d="M12.0014 16.752C14.625 16.752 16.752 14.625 16.752 12.0014C16.752 9.37766 14.625 7.25073 12.0014 7.25073C9.37766 7.25073 7.25073 9.37766 7.25073 12.0014C7.25073 14.625 9.37766 16.752 12.0014 16.752Z" fill="#1A73E8"/>
<path d="M17.1958 15.0036L11.9998 24.0034C14.1064 24.0037 16.176 23.4493 18.0004 22.3961C19.8248 21.3428 21.3398 19.8278 22.393 18.0033C23.4462 16.1789 24.0004 14.1093 24 12.0027C23.9997 9.89604 23.4447 7.82665 22.3908 6.00256H11.9989L11.9977 6.00721C13.0513 6.00518 14.0869 6.28096 15 6.80676C15.9131 7.33255 16.6714 8.08978 17.1986 9.0021C17.7257 9.91441 18.003 10.9496 18.0025 12.0032C18.002 13.0569 17.7238 14.0918 17.1958 15.0036Z" fill="url(#paint1_linear_720_1906)"/>
<path d="M6.80435 15.0035L1.60837 6.00378C0.554794 7.82802 7.85158e-05 9.8975 8.33439e-09 12.0041C-7.84992e-05 14.1107 0.554483 16.1803 1.60792 18.0046C2.66136 19.8289 4.17655 21.3437 6.00112 22.3967C7.8257 23.4497 9.89535 24.0037 12.002 24.0031L17.198 15.0034L17.1946 15C16.6695 15.9135 15.9129 16.6724 15.001 17.2003C14.0891 17.7281 13.0541 18.0063 12.0005 18.0066C10.9468 18.007 9.9117 17.7295 8.99945 17.2023C8.08719 16.6751 7.33005 15.9167 6.80435 15.0035Z" fill="url(#paint2_linear_720_1906)"/>
<defs>
<linearGradient id="paint0_linear_720_1906" x1="1.6084" y1="7.50125" x2="22.3931" y2="7.50125" gradientUnits="userSpaceOnUse">
<stop stop-color="#D93025"/>
<stop offset="1" stop-color="#EA4335"/>
</linearGradient>
<linearGradient id="paint1_linear_720_1906" x1="10.3602" y1="23.8429" x2="20.7526" y2="5.84284" gradientUnits="userSpaceOnUse">
<stop stop-color="#FCC934"/>
<stop offset="1" stop-color="#FBBC04"/>
</linearGradient>
<linearGradient id="paint2_linear_720_1906" x1="13.2999" y1="23.2538" x2="2.90759" y2="5.25369" gradientUnits="userSpaceOnUse">
<stop stop-color="#1E8E3E"/>
<stop offset="1" stop-color="#34A853"/>
</linearGradient>
</defs>
</svg>
