<svg width="24" height="24" viewBox="0 0 24 24" fill="none" xmlns="http://www.w3.org/2000/svg">
    <mask id="mask0_8837_282" style="mask-type:alpha" maskUnits="userSpaceOnUse" x="0" y="0" width="12" height="24">
        <rect width="12" height="24" fill="#4B6DE1"/>
    </mask>
    <g mask="url(#mask0_8837_282)">
        <path d="M22.165 8.05858C21.6648 6.84234 20.65 5.52915 19.8554 5.11403C20.4221 6.22278 20.8154 7.41351 21.0214 8.64388L21.0234 8.66339C19.7217 5.38567 17.5152 4.06198 15.7121 1.18347C15.6209 1.03789 15.5297 0.892016 15.4409 0.738035C15.3901 0.650089 15.3494 0.570847 15.314 0.497909C15.2393 0.351598 15.1817 0.196972 15.1423 0.0371671C15.1424 0.0297929 15.1398 0.0226572 15.1349 0.0171211C15.1301 0.011585 15.1235 0.00803613 15.1162 0.00715139C15.1091 0.00518456 15.1016 0.00518456 15.0945 0.00715139C15.093 0.00715139 15.0907 0.00985281 15.0889 0.0104531C15.0871 0.0110534 15.0832 0.0137549 15.0806 0.0149555L15.085 0.00715139C12.1932 1.71805 11.2114 4.88471 11.1223 6.46954C9.96705 6.54957 8.86249 6.97959 7.95274 7.70349C7.85786 7.62228 7.7587 7.54633 7.65569 7.47597C7.39338 6.54816 7.3822 5.56624 7.62331 4.63258C6.5613 5.15239 5.61765 5.88932 4.85209 6.79671H4.84674C4.39046 6.21231 4.42255 4.2853 4.44869 3.88279C4.3137 3.9376 4.18485 4.00672 4.0643 4.08899C3.6615 4.37947 3.28495 4.70541 2.93906 5.063C2.54489 5.46681 2.18489 5.90326 1.86283 6.36779V6.36959V6.36749C1.12273 7.42753 0.597732 8.62519 0.318145 9.89134L0.302698 9.96818C0.281013 10.0705 0.202888 10.5832 0.189521 10.6946C0.189521 10.7033 0.187738 10.7114 0.186847 10.7201C0.086071 11.2494 0.023623 11.7854 0 12.3238V12.3838C0.00508805 15.2949 1.09007 18.0983 3.04076 20.2406C4.99144 22.3829 7.66608 23.7084 10.5367 23.9554C13.4073 24.2025 16.2653 23.3531 18.5464 21.5751C20.8275 19.797 22.3661 17.2194 22.8583 14.3511C22.8776 14.201 22.8934 14.0524 22.9106 13.9008C23.1478 11.9204 22.891 9.91142 22.1638 8.05678L22.165 8.05858ZM8.89559 17.1654C8.94936 17.1915 8.99986 17.2197 9.05511 17.2446L9.06313 17.2497C9.00728 17.2227 8.95144 17.1946 8.89559 17.1654ZM21.0237 8.6667V8.65559L21.0258 8.6679L21.0237 8.6667Z" fill="url(#paint0_linear_8837_282)"/>
        <path d="M22.1665 8.05862C21.6663 6.84238 20.6516 5.52919 19.8569 5.11407C20.4236 6.22283 20.8169 7.41355 21.0229 8.64393V8.65503L21.025 8.66734C21.9125 11.2334 21.7841 14.0468 20.6667 16.5195C19.3472 19.3803 16.1545 22.3125 11.155 22.1684C5.75458 22.0138 0.995771 17.9632 0.107578 12.6594C-0.0543164 11.8229 0.107578 11.3988 0.188971 10.7189C0.0779472 11.247 0.0159897 11.7844 0.00390625 12.3242V12.3842C0.0089943 15.2953 1.09397 18.0987 3.04466 20.2409C4.99535 22.3832 7.66999 23.7087 10.5406 23.9558C13.4112 24.2028 16.2692 23.3535 18.5503 21.5754C20.8314 19.7973 22.37 17.2197 22.8622 14.3514C22.8815 14.2013 22.8973 14.0528 22.9145 13.9012C23.1517 11.9207 22.8949 9.91177 22.1677 8.05712L22.1665 8.05862Z" fill="url(#paint1_radial_8837_282)"/>
        <path d="M22.1665 8.05862C21.6663 6.84238 20.6516 5.52919 19.8569 5.11407C20.4236 6.22283 20.8169 7.41355 21.0229 8.64393V8.65503L21.025 8.66734C21.9125 11.2334 21.7841 14.0468 20.6667 16.5195C19.3472 19.3803 16.1545 22.3125 11.155 22.1684C5.75458 22.0138 0.995771 17.9632 0.107578 12.6594C-0.0543164 11.8229 0.107578 11.3988 0.188971 10.7189C0.0779472 11.247 0.0159897 11.7844 0.00390625 12.3242V12.3842C0.0089943 15.2953 1.09397 18.0987 3.04466 20.2409C4.99535 22.3832 7.66999 23.7087 10.5406 23.9558C13.4112 24.2028 16.2692 23.3535 18.5503 21.5754C20.8314 19.7973 22.37 17.2197 22.8622 14.3514C22.8815 14.2013 22.8973 14.0528 22.9145 13.9012C23.1517 11.9207 22.8949 9.91177 22.1677 8.05712L22.1665 8.05862Z" fill="url(#paint2_radial_8837_282)"/>
        <path d="M16.5658 9.42431C16.5907 9.44202 16.6139 9.45973 16.6373 9.47744C16.3482 8.95928 15.9882 8.48487 15.568 8.0682C11.9884 4.4513 14.6302 0.228088 15.0754 0.0119746L15.0799 0.00537109C12.1881 1.71627 11.2063 4.88293 11.1172 6.46776C11.2515 6.45846 11.3845 6.44705 11.5218 6.44705C12.5478 6.44906 13.5549 6.72553 14.4409 7.24837C15.3268 7.7712 16.06 8.52175 16.5658 9.42371V9.42431Z" fill="url(#paint3_radial_8837_282)"/>
        <path d="M11.5297 10.1479C11.5107 10.4372 10.4989 11.4353 10.1451 11.4353C6.87157 11.4353 6.33984 13.4364 6.33984 13.4364C6.48481 15.1215 7.64688 16.51 9.05165 17.2424C9.11582 17.276 9.18087 17.3064 9.24593 17.3361C9.35861 17.3865 9.47129 17.4331 9.58398 17.4759C10.0661 17.6483 10.571 17.7468 11.082 17.768C16.8211 18.0399 17.9321 10.8344 13.7909 8.74226C14.7677 8.61382 15.757 8.85653 16.5668 9.42332C16.061 8.52135 15.3279 7.7708 14.4419 7.24797C13.556 6.72513 12.5488 6.44866 11.5228 6.44666C11.3862 6.44666 11.2525 6.45806 11.1183 6.46737C9.963 6.5474 8.85844 6.97741 7.94869 7.70131C8.12425 7.85139 8.32238 8.0519 8.73975 8.46762C9.521 9.24532 11.5246 10.0509 11.5291 10.1455L11.5297 10.1479Z" fill="url(#paint4_radial_8837_282)"/>
        <path d="M11.5297 10.1479C11.5107 10.4372 10.4989 11.4353 10.1451 11.4353C6.87157 11.4353 6.33984 13.4364 6.33984 13.4364C6.48481 15.1215 7.64688 16.51 9.05165 17.2424C9.11582 17.276 9.18087 17.3064 9.24593 17.3361C9.35861 17.3865 9.47129 17.4331 9.58398 17.4759C10.0661 17.6483 10.571 17.7468 11.082 17.768C16.8211 18.0399 17.9321 10.8344 13.7909 8.74226C14.7677 8.61382 15.757 8.85653 16.5668 9.42332C16.061 8.52135 15.3279 7.7708 14.4419 7.24797C13.556 6.72513 12.5488 6.44866 11.5228 6.44666C11.3862 6.44666 11.2525 6.45806 11.1183 6.46737C9.963 6.5474 8.85844 6.97741 7.94869 7.70131C8.12425 7.85139 8.32238 8.0519 8.73975 8.46762C9.521 9.24532 11.5246 10.0509 11.5291 10.1455L11.5297 10.1479Z" fill="url(#paint5_radial_8837_282)"/>
        <path d="M7.41361 7.31694C7.50689 7.37697 7.58382 7.4292 7.65126 7.47633C7.38895 6.54852 7.37777 5.5666 7.61888 4.63293C6.55687 5.15275 5.61322 5.88967 4.84766 6.79707C4.9038 6.79557 6.57384 6.76525 7.41361 7.31694Z" fill="url(#paint6_radial_8837_282)"/>
        <path d="M0.1009 12.6603C0.989389 17.9641 5.7479 22.0162 11.1484 22.1693C16.1478 22.3121 19.3411 19.3796 20.66 16.5203C21.7775 14.0476 21.9058 11.2342 21.0183 8.66818V8.65708C21.0183 8.64837 21.0165 8.64327 21.0183 8.64597L21.0204 8.66548C21.4288 11.36 20.0725 13.9693 17.9518 15.7372L17.9453 15.7522C13.8132 19.153 9.85943 17.8035 9.06036 17.253C9.00451 17.226 8.94867 17.1979 8.89282 17.1686C6.484 16.0052 5.48858 13.7889 5.70246 11.8859C5.13066 11.8944 4.56868 11.7352 4.08462 11.4275C3.60056 11.1199 3.21519 10.6769 2.9752 10.1525C3.60757 9.76104 4.3286 9.53976 5.06959 9.5097C5.81058 9.47965 6.54684 9.64182 7.20822 9.98077C8.57149 10.606 10.1227 10.6677 11.5304 10.1525C11.5259 10.0579 9.52228 9.25199 8.74102 8.47458C8.32366 8.05886 8.12553 7.85866 7.94997 7.70828C7.85509 7.62707 7.75593 7.55112 7.65291 7.48076C7.58459 7.43363 7.50765 7.38261 7.41527 7.32137C6.5755 6.76969 4.90546 6.8 4.85021 6.8015H4.84486C4.38858 6.2171 4.42067 4.29008 4.44681 3.88757C4.31182 3.94239 4.18297 4.01151 4.06242 4.09378C3.65962 4.38426 3.28307 4.7102 2.93718 5.06779C2.5416 5.47046 2.18011 5.90591 1.85649 6.36958C1.11639 7.42962 0.591395 8.62698 0.311808 9.89312C0.306164 9.91684 -0.10288 11.7238 0.0988202 12.6609L0.1009 12.6603Z" fill="url(#paint7_radial_8837_282)"/>
        <path d="M15.57 8.06761C15.9903 8.48473 16.3503 8.95965 16.6394 9.47834C16.7027 9.52667 16.7618 9.57469 16.812 9.62122C19.4222 12.0525 18.0546 15.4893 17.9527 15.7324C20.073 13.9672 21.4282 11.3561 21.0212 8.66072C19.719 5.38 17.5101 4.0563 15.7099 1.17779C15.6187 1.03222 15.5275 0.886339 15.4387 0.732358C15.3879 0.644412 15.3472 0.565171 15.3119 0.492232C15.2371 0.345922 15.1795 0.191296 15.1402 0.0314909C15.1402 0.0241167 15.1376 0.0169809 15.1328 0.0114448C15.1279 0.00590876 15.1213 0.00235986 15.114 0.00147512C15.1069 -0.000491708 15.0994 -0.000491708 15.0923 0.00147512C15.0908 0.00147512 15.0885 0.00417654 15.0867 0.00477686C15.0849 0.00537717 15.081 0.00807859 15.0784 0.00927922C14.6331 0.222691 11.992 4.44861 15.5715 8.0625L15.57 8.06761Z" fill="url(#paint8_radial_8837_282)"/>
        <path d="M16.8101 9.62237C16.7599 9.57585 16.7008 9.52782 16.6376 9.4795C16.6141 9.46179 16.5909 9.44408 16.566 9.42637C15.7561 8.85959 14.7669 8.61688 13.79 8.74531C17.9309 10.8374 16.8199 18.0412 11.0811 17.771C10.5702 17.7498 10.0652 17.6514 9.5831 17.479C9.47042 17.4364 9.35774 17.3897 9.24505 17.3391C9.18 17.3091 9.11494 17.2791 9.05078 17.2455L9.0588 17.2506C9.85907 17.8026 13.8117 19.1512 17.9437 15.7498L17.9502 15.7348C18.0533 15.4917 19.4209 12.0548 16.8095 9.62357L16.8101 9.62237Z" fill="url(#paint9_radial_8837_282)"/>
        <path d="M6.34189 13.4347C6.34189 13.4347 6.87332 11.4335 10.1472 11.4335C10.5009 11.4335 11.5136 10.4355 11.5317 10.1462C10.1241 10.6614 8.57285 10.5997 7.20959 9.97448C6.5482 9.63553 5.81194 9.47336 5.07095 9.50341C4.32996 9.53346 3.60893 9.75474 2.97656 10.1462C3.21655 10.6707 3.60192 11.1136 4.08598 11.4212C4.57005 11.7289 5.13202 11.8881 5.70382 11.8796C5.49053 13.7817 6.48567 15.9977 8.89418 17.1623C8.94795 17.1885 8.99845 17.2167 9.0537 17.2416C7.64774 16.5077 6.48685 15.1198 6.34189 13.4356V13.4347Z" fill="url(#paint10_radial_8837_282)"/>
        <path d="M22.1644 8.05858C21.6642 6.84234 20.6494 5.52915 19.8548 5.11403C20.4215 6.22278 20.8148 7.41351 21.0208 8.64388L21.0228 8.66339C19.7211 5.38567 17.5146 4.06198 15.7115 1.18347C15.6203 1.03789 15.5291 0.892016 15.4403 0.738035C15.3895 0.650089 15.3488 0.570847 15.3135 0.497909C15.2387 0.351598 15.1811 0.196972 15.1418 0.0371671C15.1418 0.0297929 15.1392 0.0226572 15.1343 0.0171211C15.1295 0.011585 15.1229 0.00803613 15.1156 0.00715139C15.1085 0.00518456 15.101 0.00518456 15.0939 0.00715139C15.0924 0.00715139 15.0901 0.00985281 15.0883 0.0104531C15.0865 0.0110534 15.0826 0.0137549 15.08 0.0149555L15.0844 0.00715139C12.1926 1.71805 11.2108 4.88471 11.1217 6.46954C11.256 6.46024 11.3891 6.44883 11.5263 6.44883C12.5523 6.45084 13.5594 6.72731 14.4454 7.25015C15.3313 7.77298 16.0645 8.52353 16.5703 9.42549C15.7605 8.85871 14.7712 8.616 13.7943 8.74444C17.9353 10.8365 16.8243 18.0403 11.0855 17.7702C10.5745 17.7489 10.0695 17.6505 9.58743 17.4781C9.47475 17.4355 9.36207 17.3889 9.24938 17.3382C9.18433 17.3082 9.11927 17.2782 9.05511 17.2446L9.06313 17.2497C9.00728 17.2227 8.95144 17.1946 8.89559 17.1654C8.94936 17.1915 8.99986 17.2197 9.05511 17.2446C7.64915 16.5104 6.48826 15.1225 6.3433 13.4386C6.3433 13.4386 6.87473 11.4374 10.1486 11.4374C10.5024 11.4374 11.515 10.4394 11.5331 10.1501C11.5287 10.0555 9.52505 9.2496 8.7438 8.47219C8.32644 8.05647 8.1283 7.85627 7.95274 7.70589C7.85786 7.62469 7.7587 7.54873 7.65569 7.47837C7.39338 6.55056 7.3822 5.56864 7.62331 4.63498C6.5613 5.15479 5.61765 5.89172 4.85209 6.79911H4.84674C4.39046 6.21471 4.42255 4.2877 4.44869 3.88519C4.3137 3.94 4.18485 4.00912 4.0643 4.09139C3.6615 4.38187 3.28495 4.70781 2.93906 5.0654C2.54489 5.46921 2.18489 5.90566 1.86283 6.37019C1.12273 7.43023 0.597732 8.62759 0.318145 9.89374L0.302698 9.97058C0.281013 10.0729 0.183877 10.5928 0.169915 10.7045C0.0810664 11.2411 0.024325 11.7827 0 12.3262V12.3862C0.00508805 15.2973 1.09007 18.1007 3.04076 20.243C4.99144 22.3853 7.66608 23.7108 10.5367 23.9578C13.4073 24.2049 16.2653 23.3555 18.5464 21.5775C20.8275 19.7994 22.3661 17.2218 22.8583 14.3535C22.8776 14.2034 22.8934 14.0548 22.9106 13.9032C23.1478 11.9228 22.891 9.91382 22.1638 8.05918L22.1644 8.05858Z" fill="url(#paint11_linear_8837_282)"/>
    </g>
    <mask id="mask1_8837_282" style="mask-type:alpha" maskUnits="userSpaceOnUse" x="12" y="0" width="12" height="24">
        <rect x="12" width="12" height="24" fill="white"/>
    </mask>
    <g mask="url(#mask1_8837_282)">
        <path d="M12.0016 5.99871H22.3946C21.3415 4.17394 19.8265 2.65862 18.0019 1.60512C16.1774 0.551607 14.1077 -0.00295459 12.0008 -0.00280759C9.89401 -0.00266059 7.82435 0.55219 5.99997 1.60595C4.17559 2.65972 2.6608 4.17525 1.60791 6.00016L6.8044 15.0009L6.80905 14.9997C6.28043 14.0882 6.00147 13.0533 6.00028 11.9995C5.9991 10.9457 6.27573 9.91028 6.8023 8.9975C7.32887 8.08472 8.08677 7.3269 8.99958 6.80042C9.9124 6.27394 10.9479 5.99741 12.0016 5.99871Z" fill="url(#paint12_linear_8837_282)"/>
        <path d="M12.0043 16.7511C14.6282 16.7511 16.7553 14.6239 16.7553 11.9999C16.7553 9.37589 14.6282 7.24872 12.0043 7.24872C9.38031 7.24872 7.25317 9.37589 7.25317 11.9999C7.25317 14.6239 9.38031 16.7511 12.0043 16.7511Z" fill="#529DFF"/>
        <path d="M17.1957 15.0023L11.9992 24.0031C14.106 24.0034 16.1758 23.449 18.0004 22.3956C19.825 21.3422 21.3401 19.827 22.3934 18.0024C23.4467 16.1777 24.001 14.1078 24.0006 12.001C24.0002 9.89411 23.4452 7.82448 22.3912 6.00018H11.9983L11.9971 6.00483C13.0508 6.0028 14.0865 6.27862 14.9997 6.80447C15.9129 7.33033 16.6713 8.08764 17.1985 9.00007C17.7257 9.91249 18.003 10.9478 18.0025 12.0016C18.002 13.0553 17.7237 14.0904 17.1957 15.0023Z" fill="url(#paint13_linear_8837_282)"/>
        <path d="M6.80502 15.0024L1.60853 6.00159C0.554848 7.82604 7.85235e-05 9.89576 8.3352e-09 12.0026C-7.85069e-05 14.1095 0.554537 16.1793 1.60808 18.0038C2.66162 19.8283 4.17696 21.3433 6.00171 22.3964C7.82647 23.4495 9.89632 24.0037 12.0032 24.0031L17.1996 15.0023L17.1963 14.9989C16.6712 15.9125 15.9145 16.6715 15.0025 17.1994C14.0905 17.7273 13.0554 18.0055 12.0017 18.0058C10.9479 18.0062 9.91267 17.7287 9.00033 17.2014C8.08798 16.6741 7.33077 15.9156 6.80502 15.0024Z" fill="#30B556"/>
    </g>
    <defs>
        <linearGradient id="paint0_linear_8837_282" x1="20.6411" y1="3.72308" x2="1.33631" y2="22.1564" gradientUnits="userSpaceOnUse">
            <stop offset="0.048" stop-color="#FFF44F"/>
            <stop offset="0.111" stop-color="#FFE847"/>
            <stop offset="0.225" stop-color="#FFC830"/>
            <stop offset="0.368" stop-color="#FF980E"/>
            <stop offset="0.401" stop-color="#FF8B16"/>
            <stop offset="0.462" stop-color="#FF672A"/>
            <stop offset="0.534" stop-color="#FF3647"/>
            <stop offset="0.705" stop-color="#E31587"/>
        </linearGradient>
        <radialGradient id="paint1_radial_8837_282" cx="0" cy="0" r="1" gradientUnits="userSpaceOnUse" gradientTransform="translate(19.903 2.70681) scale(24.002 24.2527)">
            <stop offset="0.129" stop-color="#FFBD4F"/>
            <stop offset="0.186" stop-color="#FFAC31"/>
            <stop offset="0.247" stop-color="#FF9D17"/>
            <stop offset="0.283" stop-color="#FF980E"/>
            <stop offset="0.403" stop-color="#FF563B"/>
            <stop offset="0.467" stop-color="#FF3750"/>
            <stop offset="0.71" stop-color="#F5156C"/>
            <stop offset="0.782" stop-color="#EB0878"/>
            <stop offset="0.86" stop-color="#E50080"/>
        </radialGradient>
        <radialGradient id="paint2_radial_8837_282" cx="0" cy="0" r="1" gradientUnits="userSpaceOnUse" gradientTransform="translate(10.9914 12.612) scale(24.002 24.2527)">
            <stop offset="0.3" stop-color="#960E18"/>
            <stop offset="0.351" stop-color="#B11927" stop-opacity="0.74"/>
            <stop offset="0.435" stop-color="#DB293D" stop-opacity="0.343"/>
            <stop offset="0.497" stop-color="#F5334B" stop-opacity="0.094"/>
            <stop offset="0.53" stop-color="#FF3750" stop-opacity="0"/>
        </radialGradient>
        <radialGradient id="paint3_radial_8837_282" cx="0" cy="0" r="1" gradientUnits="userSpaceOnUse" gradientTransform="translate(13.9576 -2.69605) scale(17.3866 17.5682)">
            <stop offset="0.132" stop-color="#FFF44F"/>
            <stop offset="0.252" stop-color="#FFDC3E"/>
            <stop offset="0.506" stop-color="#FF9D12"/>
            <stop offset="0.526" stop-color="#FF980E"/>
        </radialGradient>
        <radialGradient id="paint4_radial_8837_282" cx="0" cy="0" r="1" gradientUnits="userSpaceOnUse" gradientTransform="translate(8.31555 18.9155) scale(11.4277 11.5471)">
            <stop offset="0.353" stop-color="#51A1F5"/>
            <stop offset="0.472" stop-color="#7B95FF"/>
            <stop offset="0.669" stop-color="#9059FF"/>
            <stop offset="1" stop-color="#C139E6"/>
        </radialGradient>
        <radialGradient id="paint5_radial_8837_282" cx="0" cy="0" r="1" gradientUnits="userSpaceOnUse" gradientTransform="translate(12.1499 10.5303) rotate(-13.7282) scale(6.06345 7.16463)">
            <stop offset="0.206" stop-color="#9059FF" stop-opacity="0"/>
            <stop offset="0.278" stop-color="#8C4FF3" stop-opacity="0.064"/>
            <stop offset="0.747" stop-color="#7716A8" stop-opacity="0.45"/>
            <stop offset="0.975" stop-color="#6E008B" stop-opacity="0.6"/>
        </radialGradient>
        <radialGradient id="paint6_radial_8837_282" cx="0" cy="0" r="1" gradientUnits="userSpaceOnUse" gradientTransform="translate(10.6931 1.80605) scale(8.22246 8.30836)">
            <stop stop-color="#FFE226"/>
            <stop offset="0.121" stop-color="#FFDB27"/>
            <stop offset="0.295" stop-color="#FFC82A"/>
            <stop offset="0.502" stop-color="#FFA930"/>
            <stop offset="0.732" stop-color="#FF7E37"/>
            <stop offset="0.792" stop-color="#FF7139"/>
        </radialGradient>
        <radialGradient id="paint7_radial_8837_282" cx="0" cy="0" r="1" gradientUnits="userSpaceOnUse" gradientTransform="translate(17.2249 -3.59625) scale(35.0821 35.4486)">
            <stop offset="0.113" stop-color="#FFF44F"/>
            <stop offset="0.456" stop-color="#FF980E"/>
            <stop offset="0.622" stop-color="#FF5634"/>
            <stop offset="0.716" stop-color="#FF3647"/>
            <stop offset="0.904" stop-color="#E31587"/>
        </radialGradient>
        <radialGradient id="paint8_radial_8837_282" cx="0" cy="0" r="1" gradientUnits="userSpaceOnUse" gradientTransform="translate(14.3117 -1.63108) rotate(84.0378) scale(25.9743 16.8743)">
            <stop stop-color="#FFF44F"/>
            <stop offset="0.06" stop-color="#FFE847"/>
            <stop offset="0.168" stop-color="#FFC830"/>
            <stop offset="0.304" stop-color="#FF980E"/>
            <stop offset="0.356" stop-color="#FF8B16"/>
            <stop offset="0.455" stop-color="#FF672A"/>
            <stop offset="0.57" stop-color="#FF3647"/>
            <stop offset="0.737" stop-color="#E31587"/>
        </radialGradient>
        <radialGradient id="paint9_radial_8837_282" cx="0" cy="0" r="1" gradientUnits="userSpaceOnUse" gradientTransform="translate(10.6908 4.80785) scale(21.8988 22.1276)">
            <stop offset="0.137" stop-color="#FFF44F"/>
            <stop offset="0.48" stop-color="#FF980E"/>
            <stop offset="0.592" stop-color="#FF5634"/>
            <stop offset="0.655" stop-color="#FF3647"/>
            <stop offset="0.904" stop-color="#E31587"/>
        </radialGradient>
        <radialGradient id="paint10_radial_8837_282" cx="0" cy="0" r="1" gradientUnits="userSpaceOnUse" gradientTransform="translate(16.3378 6.00879) scale(23.9693 24.2197)">
            <stop offset="0.094" stop-color="#FFF44F"/>
            <stop offset="0.231" stop-color="#FFE141"/>
            <stop offset="0.509" stop-color="#FFAF1E"/>
            <stop offset="0.626" stop-color="#FF980E"/>
        </radialGradient>
        <linearGradient id="paint11_linear_8837_282" x1="20.4088" y1="3.62402" x2="3.97906" y2="19.8869" gradientUnits="userSpaceOnUse">
            <stop offset="0.167" stop-color="#FFF44F" stop-opacity="0.8"/>
            <stop offset="0.266" stop-color="#FFF44F" stop-opacity="0.634"/>
            <stop offset="0.489" stop-color="#FFF44F" stop-opacity="0.217"/>
            <stop offset="0.6" stop-color="#FFF44F" stop-opacity="0"/>
        </linearGradient>
        <linearGradient id="paint12_linear_8837_282" x1="1.60791" y1="7.49908" x2="22.3946" y2="7.49908" gradientUnits="userSpaceOnUse">
            <stop stop-color="#D93025"/>
            <stop offset="1" stop-color="#EA4335"/>
        </linearGradient>
        <linearGradient id="paint13_linear_8837_282" x1="10.3594" y1="23.8426" x2="20.7531" y2="5.84062" gradientUnits="userSpaceOnUse">
            <stop stop-color="#FCC934"/>
            <stop offset="1" stop-color="#FBBC04"/>
        </linearGradient>
    </defs>
</svg>
