<svg width="24" height="24" viewBox="0 0 24 24" fill="none" xmlns="http://www.w3.org/2000/svg">
<path d="M23.2908 11.9756C23.6817 11.9788 23.9999 11.6631 23.9994 11.2722L23.9894 2.93545C23.9889 2.48993 23.4499 2.26752 23.1354 2.58301L21.303 4.42068C19.1056 1.72303 15.7626 0 12.0182 0C8.12157 0 4.65977 1.86539 2.47144 4.75423L6.8724 9.21446C7.3037 8.41448 7.9164 7.72738 8.65516 7.20843C9.42349 6.6071 10.5121 6.11543 12.0181 6.11543C12.2 6.11543 12.3404 6.13674 12.4436 6.17691C14.3095 6.32461 15.9268 7.35735 16.8792 8.85629L14.6192 11.1228C14.3043 11.4387 14.5291 11.9777 14.9752 11.9761C18.1362 11.9653 21.4175 11.9606 23.2908 11.9756Z" fill="url(#paint0_linear_3526_1495)"/>
<path d="M11.9408 0.709376C11.9439 0.318498 11.6283 0.000384907 11.2374 0.000854838L2.92545 0.0108475C2.48064 0.0113822 2.25791 0.548898 2.57199 0.863885L4.40782 2.70508C1.71801 4.90897 0 8.26166 0 12.017C0 15.925 1.85999 19.3969 4.7404 21.5916L9.18765 17.1778C8.39 16.7453 7.7049 16.1308 7.18746 15.3899C6.5879 14.6193 6.09763 13.5274 6.09763 12.0171C6.09763 11.8346 6.11889 11.6938 6.15894 11.5903C6.30621 9.71902 7.33594 8.09695 8.83052 7.14186L11.0869 9.40484C11.4024 9.7212 11.9428 9.49669 11.9413 9.04994C11.9304 5.87899 11.9257 2.58754 11.9408 0.709376Z" fill="url(#paint1_linear_3526_1495)"/>
<path d="M0.709434 12.0245C0.318539 12.0214 0.000382703 12.337 0.000849925 12.7279L0.0108142 21.0647C0.0113467 21.5102 0.550314 21.7326 0.864882 21.4171L2.69721 19.5795C4.89469 22.2771 8.23763 24.0001 11.982 24.0001C15.6303 24.0001 18.8974 22.365 21.095 19.7856C21.3529 19.483 21.3216 19.0359 21.0424 18.753L17.6979 15.3634C17.4145 15.0762 16.9331 15.1459 16.6942 15.471C16.3192 15.9812 15.8631 16.4278 15.3451 16.7917C14.5768 17.393 13.4881 17.8847 11.9821 17.8847C11.8002 17.8847 11.6598 17.8634 11.5566 17.8232C9.69075 17.6755 8.0734 16.6428 7.12109 15.1439L9.381 12.8773C9.69595 12.5615 9.4711 12.0225 9.02506 12.024C5.86408 12.0349 2.58278 12.0396 0.709434 12.0245Z" fill="url(#paint2_linear_3526_1495)"/>
<defs>
<linearGradient id="paint0_linear_3526_1495" x1="23.9994" y1="11.5718" x2="11.5705" y2="1.71434" gradientUnits="userSpaceOnUse">
<stop stop-color="#D3DDFF"/>
<stop offset="1" stop-color="#B4C4FF"/>
</linearGradient>
<linearGradient id="paint1_linear_3526_1495" x1="11.5718" y1="-0.000209423" x2="1.28575" y2="12.4287" gradientUnits="userSpaceOnUse">
<stop stop-color="#98AFFF"/>
<stop offset="1" stop-color="#7C99FF"/>
</linearGradient>
<linearGradient id="paint2_linear_3526_1495" x1="-0.428584" y1="12.0003" x2="20.1434" y2="18.4291" gradientUnits="userSpaceOnUse">
<stop stop-color="#708FFA"/>
<stop offset="1" stop-color="#355CE7"/>
</linearGradient>
</defs>
</svg>
