<svg width="24" height="24" viewBox="0 0 24 24" fill="none" xmlns="http://www.w3.org/2000/svg">
<path d="M22.1656 8.05875C21.6654 6.84252 20.6506 5.52933 19.856 5.11421C20.4226 6.22296 20.816 7.41369 21.022 8.64406L21.024 8.66357C19.7223 5.38585 17.5157 4.06216 15.7125 1.18365C15.6213 1.03807 15.5302 0.892198 15.4413 0.738218C15.3905 0.650271 15.3498 0.57103 15.3145 0.498092C15.2397 0.351781 15.1821 0.197155 15.1428 0.0373502C15.1428 0.029976 15.1402 0.0228403 15.1354 0.0173042C15.1306 0.0117681 15.1239 0.00821923 15.1166 0.0073345C15.1095 0.00536767 15.1021 0.00536767 15.095 0.0073345C15.0935 0.0073345 15.0911 0.0100359 15.0893 0.0106362C15.0875 0.0112365 15.0837 0.013938 15.081 0.0151386L15.0854 0.0073345C12.1935 1.71823 11.2117 4.88489 11.1226 6.46972C9.96734 6.54975 8.86274 6.97977 7.95297 7.70367C7.85809 7.62246 7.75892 7.54651 7.6559 7.47615C7.3936 6.54834 7.38241 5.56642 7.62353 4.63276C6.56148 5.15257 5.61781 5.8895 4.85223 6.79689H4.84688C4.39059 6.21249 4.42267 4.28548 4.44881 3.88297C4.31383 3.93778 4.18497 4.0069 4.06441 4.08917C3.66161 4.37965 3.28504 4.70559 2.93914 5.06318C2.54496 5.46699 2.18495 5.90344 1.86288 6.36797V6.36977V6.36767C1.12276 7.42771 0.597749 8.62537 0.318154 9.89152L0.302707 9.96836C0.281022 10.0707 0.202894 10.5834 0.189526 10.6947C0.189526 10.7034 0.187744 10.7115 0.186853 10.7202C0.0860735 11.2495 0.0236237 11.7855 0 12.324V12.384C0.0050882 15.2951 1.0901 18.0985 3.04084 20.2408C4.99159 22.3831 7.6663 23.7086 10.537 23.9556C13.4077 24.2027 16.2657 23.3533 18.5469 21.5752C20.8281 19.7971 22.3667 17.2195 22.859 14.3513C22.8783 14.2012 22.894 14.0526 22.9113 13.901C23.1484 11.9205 22.8917 9.9116 22.1645 8.05695L22.1656 8.05875ZM8.89585 17.1655C8.94961 17.1916 9.00011 17.2199 9.05537 17.2448L9.06339 17.2499C9.00754 17.2229 8.95169 17.1947 8.89585 17.1655ZM21.0243 8.66687V8.65577L21.0264 8.66807L21.0243 8.66687Z" fill="url(#paint0_linear_720_1914)"/>
<path d="M22.1662 8.05868C21.6659 6.84244 20.6512 5.52925 19.8565 5.11414C20.4232 6.22289 20.8165 7.41361 21.0225 8.64399V8.65509L21.0246 8.6674C21.9122 11.2335 21.7838 14.0468 20.6663 16.5195C19.3468 19.3803 16.1539 22.3125 11.1544 22.1685C5.75377 22.0139 0.994823 17.9633 0.106605 12.6595C-0.0552946 11.823 0.106605 11.3988 0.188 10.719C0.0769728 11.2471 0.0150135 11.7845 0.00292969 12.3242V12.3842C0.00801789 15.2953 1.09303 18.0987 3.04377 20.241C4.99452 22.3833 7.66923 23.7088 10.5399 23.9558C13.4106 24.2029 16.2687 23.3535 18.5499 21.5754C20.8311 19.7974 22.3697 17.2198 22.8619 14.3515C22.8812 14.2014 22.897 14.0528 22.9142 13.9012C23.1514 11.9208 22.8946 9.91183 22.1674 8.05718L22.1662 8.05868Z" fill="url(#paint1_radial_720_1914)"/>
<path d="M22.1662 8.05868C21.6659 6.84244 20.6512 5.52925 19.8565 5.11414C20.4232 6.22289 20.8165 7.41361 21.0225 8.64399V8.65509L21.0246 8.6674C21.9122 11.2335 21.7838 14.0468 20.6663 16.5195C19.3468 19.3803 16.1539 22.3125 11.1544 22.1685C5.75377 22.0139 0.994823 17.9633 0.106605 12.6595C-0.0552946 11.823 0.106605 11.3988 0.188 10.719C0.0769728 11.2471 0.0150135 11.7845 0.00292969 12.3242V12.3842C0.00801789 15.2953 1.09303 18.0987 3.04377 20.241C4.99452 22.3833 7.66923 23.7088 10.5399 23.9558C13.4106 24.2029 16.2687 23.3535 18.5499 21.5754C20.8311 19.7974 22.3697 17.2198 22.8619 14.3515C22.8812 14.2014 22.897 14.0528 22.9142 13.9012C23.1514 11.9208 22.8946 9.91183 22.1674 8.05718L22.1662 8.05868Z" fill="url(#paint2_radial_720_1914)"/>
<path d="M16.5698 9.42431C16.5948 9.44202 16.6179 9.45973 16.6414 9.47744C16.3522 8.95928 15.9922 8.48487 15.572 8.0682C11.9924 4.4513 14.6342 0.228088 15.0795 0.0119746L15.0839 0.00537109C12.192 1.71627 11.2102 4.88293 11.1211 6.46776C11.2554 6.45846 11.3885 6.44705 11.5257 6.44705C12.5517 6.44906 13.5589 6.72553 14.4449 7.24836C15.3308 7.7712 16.064 8.52175 16.5698 9.42371V9.42431Z" fill="url(#paint3_radial_720_1914)"/>
<path d="M11.5298 10.1479C11.5108 10.4372 10.499 11.4353 10.1452 11.4353C6.87159 11.4353 6.33984 13.4364 6.33984 13.4364C6.48481 15.1215 7.64692 16.51 9.05173 17.2424C9.1159 17.276 9.18095 17.3063 9.24601 17.3361C9.3587 17.3865 9.47138 17.4331 9.58407 17.4759C10.0662 17.6483 10.5712 17.7468 11.0822 17.768C16.8214 18.0399 17.9324 10.8344 13.7911 8.74226C14.768 8.61382 15.7573 8.85653 16.5671 9.42332C16.0613 8.52135 15.3281 7.7708 14.4422 7.24797C13.5562 6.72513 12.549 6.44866 11.523 6.44666C11.3863 6.44666 11.2527 6.45806 11.1184 6.46737C9.96311 6.5474 8.85851 6.97741 7.94874 7.70131C8.1243 7.85139 8.32244 8.0519 8.73981 8.46761C9.52109 9.24532 11.5248 10.0509 11.5292 10.1455L11.5298 10.1479Z" fill="url(#paint4_radial_720_1914)"/>
<path d="M11.5298 10.1479C11.5108 10.4372 10.499 11.4353 10.1452 11.4353C6.87159 11.4353 6.33984 13.4364 6.33984 13.4364C6.48481 15.1215 7.64692 16.51 9.05173 17.2424C9.1159 17.276 9.18095 17.3063 9.24601 17.3361C9.3587 17.3865 9.47138 17.4331 9.58407 17.4759C10.0662 17.6483 10.5712 17.7468 11.0822 17.768C16.8214 18.0399 17.9324 10.8344 13.7911 8.74226C14.768 8.61382 15.7573 8.85653 16.5671 9.42332C16.0613 8.52135 15.3281 7.7708 14.4422 7.24797C13.5562 6.72513 12.549 6.44866 11.523 6.44666C11.3863 6.44666 11.2527 6.45806 11.1184 6.46737C9.96311 6.5474 8.85851 6.97741 7.94874 7.70131C8.1243 7.85139 8.32244 8.0519 8.73981 8.46761C9.52109 9.24532 11.5248 10.0509 11.5292 10.1455L11.5298 10.1479Z" fill="url(#paint5_radial_720_1914)"/>
<path d="M7.41307 7.31731C7.50635 7.37734 7.58329 7.42957 7.65073 7.47669C7.38842 6.54888 7.37723 5.56696 7.61835 4.6333C6.5563 5.15311 5.61263 5.89004 4.84705 6.79744C4.90319 6.79593 6.57328 6.76562 7.41307 7.31731Z" fill="url(#paint6_radial_720_1914)"/>
<path d="M0.102854 12.66C0.99137 17.9638 5.75002 22.0159 11.1506 22.169C16.1502 22.3119 19.3436 19.3794 20.6626 16.5201C21.78 14.0474 21.9084 11.234 21.0208 8.66794V8.65683C21.0208 8.64812 21.0191 8.64302 21.0208 8.64572L21.0229 8.66523C21.4314 11.3597 20.075 13.969 17.9543 15.7369L17.9477 15.7519C13.8156 19.1527 9.86167 17.8032 9.06257 17.2527C9.00672 17.2257 8.95087 17.1976 8.89503 17.1684C6.48614 16.005 5.49068 13.7886 5.70457 11.8856C5.13276 11.8941 4.57076 11.7349 4.08669 11.4273C3.60261 11.1196 3.21723 10.6767 2.97724 10.1522C3.60962 9.76079 4.33067 9.53951 5.07168 9.50946C5.8127 9.4794 6.54898 9.64158 7.21038 9.98052C8.57369 10.6058 10.125 10.6674 11.5326 10.1522C11.5282 10.0577 9.5245 9.25174 8.74323 8.47433C8.32585 8.05862 8.12771 7.85841 7.95215 7.70803C7.85727 7.62683 7.7581 7.55088 7.65509 7.48051C7.58676 7.43339 7.50982 7.38236 7.41743 7.32113C6.57764 6.76944 4.90755 6.79976 4.8523 6.80126H4.84695C4.39066 6.21685 4.42274 4.28984 4.44888 3.88733C4.3139 3.94214 4.18505 4.01127 4.06449 4.09354C3.66168 4.38401 3.28512 4.70995 2.93921 5.06755C2.54362 5.47022 2.18212 5.90567 1.8585 6.36933C1.11837 7.42937 0.593364 8.62673 0.313769 9.89288C0.308125 9.91659 -0.100931 11.7235 0.100775 12.6606L0.102854 12.66Z" fill="url(#paint7_radial_720_1914)"/>
<path d="M15.5709 8.0676C15.9912 8.48473 16.3512 8.95965 16.6403 9.47834C16.7036 9.52667 16.7627 9.57469 16.8129 9.62122C19.4232 12.0525 18.0555 15.4893 17.9536 15.7324C20.0741 13.9672 21.4293 11.3561 21.0223 8.66071C19.72 5.37999 17.511 4.0563 15.7108 1.17779C15.6196 1.03222 15.5284 0.886339 15.4396 0.732358C15.3888 0.644412 15.3481 0.565171 15.3128 0.492232C15.238 0.345922 15.1804 0.191296 15.1411 0.0314909C15.1411 0.0241166 15.1385 0.0169809 15.1336 0.0114448C15.1288 0.00590876 15.1222 0.00235986 15.1149 0.00147512C15.1078 -0.000491708 15.1003 -0.000491708 15.0932 0.00147512C15.0917 0.00147512 15.0894 0.00417654 15.0876 0.00477685C15.0858 0.00537717 15.0819 0.00807858 15.0793 0.00927921C14.634 0.222691 11.9928 4.44861 15.5724 8.0625L15.5709 8.0676Z" fill="url(#paint8_radial_720_1914)"/>
<path d="M16.8128 9.62231C16.7626 9.57579 16.7035 9.52776 16.6402 9.47944C16.6167 9.46173 16.5936 9.44402 16.5686 9.42631C15.7588 8.85952 14.7695 8.61682 13.7926 8.74525C17.9336 10.8373 16.8226 18.0411 11.0836 17.771C10.5727 17.7498 10.0677 17.6513 9.58556 17.4789C9.47287 17.4363 9.36019 17.3897 9.2475 17.3391C9.18244 17.309 9.11739 17.279 9.05322 17.2454L9.06124 17.2505C9.86153 17.8025 13.8142 19.1511 17.9464 15.7497L17.9529 15.7347C18.056 15.4916 19.4237 12.0548 16.8122 9.62351L16.8128 9.62231Z" fill="url(#paint9_radial_720_1914)"/>
<path d="M6.34223 13.4343C6.34223 13.4343 6.87368 11.4332 10.1476 11.4332C10.5014 11.4332 11.5141 10.4352 11.5322 10.1458C10.1245 10.661 8.57326 10.5994 7.20995 9.97411C6.54855 9.63516 5.81227 9.47299 5.07126 9.50304C4.33024 9.5331 3.60919 9.75438 2.97681 10.1458C3.2168 10.6703 3.60219 11.1132 4.08626 11.4209C4.57034 11.7285 5.13233 11.8877 5.70414 11.8792C5.49085 13.7813 6.48601 15.9974 8.8946 17.162C8.94836 17.1881 8.99887 17.2163 9.05412 17.2412C7.64812 16.5073 6.4872 15.1194 6.34223 13.4352V13.4343Z" fill="url(#paint10_radial_720_1914)"/>
<path d="M22.1651 8.05876C21.6648 6.84252 20.65 5.52933 19.8554 5.11421C20.422 6.22296 20.8154 7.41369 21.0214 8.64406L21.0234 8.66357C19.7217 5.38585 17.5151 4.06216 15.712 1.18365C15.6208 1.03807 15.5296 0.892198 15.4407 0.738218C15.3899 0.650272 15.3492 0.57103 15.3139 0.498092C15.2391 0.351781 15.1815 0.197155 15.1422 0.0373502C15.1422 0.029976 15.1396 0.0228403 15.1348 0.0173042C15.13 0.0117681 15.1233 0.00821923 15.116 0.0073345C15.1089 0.00536767 15.1015 0.00536767 15.0944 0.0073345C15.0929 0.0073345 15.0905 0.0100359 15.0887 0.0106362C15.0869 0.0112365 15.0831 0.013938 15.0804 0.0151386L15.0849 0.0073345C12.1929 1.71823 11.2112 4.88489 11.122 6.46972C11.2563 6.46042 11.3894 6.44901 11.5266 6.44901C12.5526 6.45102 13.5598 6.72749 14.4458 7.25033C15.3318 7.77316 16.0649 8.52371 16.5708 9.42567C15.7609 8.85889 14.7716 8.61618 13.7947 8.74462C17.9358 10.8367 16.8248 18.0405 11.0858 17.7703C10.5748 17.7491 10.0698 17.6507 9.5877 17.4783C9.47502 17.4357 9.36233 17.389 9.24965 17.3384C9.18459 17.3084 9.11953 17.2784 9.05537 17.2448L9.06339 17.2499C9.00754 17.2229 8.95169 17.1947 8.89585 17.1655C8.94961 17.1916 9.00011 17.2199 9.05537 17.2448C7.64937 16.5106 6.48845 15.1227 6.34348 13.4388C6.34348 13.4388 6.87493 11.4376 10.1489 11.4376C10.5027 11.4376 11.5153 10.4396 11.5335 10.1503C11.529 10.0557 9.52532 9.24978 8.74405 8.47237C8.32667 8.05665 8.12853 7.85645 7.95297 7.70607C7.85809 7.62487 7.75892 7.54892 7.6559 7.47855C7.3936 6.55074 7.38241 5.56882 7.62353 4.63516C6.56148 5.15497 5.61781 5.8919 4.85223 6.7993H4.84688C4.39059 6.21489 4.42267 4.28788 4.44881 3.88537C4.31383 3.94018 4.18497 4.00931 4.06441 4.09158C3.66161 4.38205 3.28504 4.70799 2.93914 5.06559C2.54496 5.46939 2.18495 5.90584 1.86288 6.37037C1.12276 7.43041 0.597749 8.62777 0.318154 9.89392L0.302707 9.97076C0.281021 10.0731 0.183882 10.593 0.16992 10.7046C0.0810687 11.2413 0.0243257 11.7828 0 12.3264V12.3864C0.0050882 15.2975 1.0901 18.1009 3.04084 20.2432C4.99159 22.3855 7.6663 23.711 10.537 23.958C13.4077 24.2051 16.2657 23.3557 18.5469 21.5776C20.8281 19.7995 22.3667 17.2219 22.859 14.3537C22.8783 14.2036 22.894 14.055 22.9113 13.9034C23.1484 11.923 22.8917 9.914 22.1645 8.05936L22.1651 8.05876Z" fill="url(#paint11_linear_720_1914)"/>
<defs>
<linearGradient id="paint0_linear_720_1914" x1="20.6417" y1="3.72326" x2="1.33689" y2="22.1571" gradientUnits="userSpaceOnUse">
<stop offset="0.048" stop-color="#FFF44F"/>
<stop offset="0.111" stop-color="#FFE847"/>
<stop offset="0.225" stop-color="#FFC830"/>
<stop offset="0.368" stop-color="#FF980E"/>
<stop offset="0.401" stop-color="#FF8B16"/>
<stop offset="0.462" stop-color="#FF672A"/>
<stop offset="0.534" stop-color="#FF3647"/>
<stop offset="0.705" stop-color="#E31587"/>
</linearGradient>
<radialGradient id="paint1_radial_720_1914" cx="0" cy="0" r="1" gradientUnits="userSpaceOnUse" gradientTransform="translate(19.9026 2.70687) scale(24.0027 24.2527)">
<stop offset="0.129" stop-color="#FFBD4F"/>
<stop offset="0.186" stop-color="#FFAC31"/>
<stop offset="0.247" stop-color="#FF9D17"/>
<stop offset="0.283" stop-color="#FF980E"/>
<stop offset="0.403" stop-color="#FF563B"/>
<stop offset="0.467" stop-color="#FF3750"/>
<stop offset="0.71" stop-color="#F5156C"/>
<stop offset="0.782" stop-color="#EB0878"/>
<stop offset="0.86" stop-color="#E50080"/>
</radialGradient>
<radialGradient id="paint2_radial_720_1914" cx="0" cy="0" r="1" gradientUnits="userSpaceOnUse" gradientTransform="translate(10.9907 12.6121) scale(24.0027 24.2527)">
<stop offset="0.3" stop-color="#960E18"/>
<stop offset="0.351" stop-color="#B11927" stop-opacity="0.74"/>
<stop offset="0.435" stop-color="#DB293D" stop-opacity="0.343"/>
<stop offset="0.497" stop-color="#F5334B" stop-opacity="0.094"/>
<stop offset="0.53" stop-color="#FF3750" stop-opacity="0"/>
</radialGradient>
<radialGradient id="paint3_radial_720_1914" cx="0" cy="0" r="1" gradientUnits="userSpaceOnUse" gradientTransform="translate(13.9616 -2.69605) scale(17.3871 17.5682)">
<stop offset="0.132" stop-color="#FFF44F"/>
<stop offset="0.252" stop-color="#FFDC3E"/>
<stop offset="0.506" stop-color="#FF9D12"/>
<stop offset="0.526" stop-color="#FF980E"/>
</radialGradient>
<radialGradient id="paint4_radial_720_1914" cx="0" cy="0" r="1" gradientUnits="userSpaceOnUse" gradientTransform="translate(8.31561 18.9155) scale(11.428 11.5471)">
<stop offset="0.353" stop-color="#3A8EE6"/>
<stop offset="0.472" stop-color="#5C79F0"/>
<stop offset="0.669" stop-color="#9059FF"/>
<stop offset="1" stop-color="#C139E6"/>
</radialGradient>
<radialGradient id="paint5_radial_720_1914" cx="0" cy="0" r="1" gradientUnits="userSpaceOnUse" gradientTransform="translate(12.1501 10.5303) rotate(-13.7278) scale(6.06361 7.16464)">
<stop offset="0.206" stop-color="#9059FF" stop-opacity="0"/>
<stop offset="0.278" stop-color="#8C4FF3" stop-opacity="0.064"/>
<stop offset="0.747" stop-color="#7716A8" stop-opacity="0.45"/>
<stop offset="0.975" stop-color="#6E008B" stop-opacity="0.6"/>
</radialGradient>
<radialGradient id="paint6_radial_720_1914" cx="0" cy="0" r="1" gradientUnits="userSpaceOnUse" gradientTransform="translate(10.6926 1.80642) scale(8.2227 8.30836)">
<stop stop-color="#FFE226"/>
<stop offset="0.121" stop-color="#FFDB27"/>
<stop offset="0.295" stop-color="#FFC82A"/>
<stop offset="0.502" stop-color="#FFA930"/>
<stop offset="0.732" stop-color="#FF7E37"/>
<stop offset="0.792" stop-color="#FF7139"/>
</radialGradient>
<radialGradient id="paint7_radial_720_1914" cx="0" cy="0" r="1" gradientUnits="userSpaceOnUse" gradientTransform="translate(17.2273 -3.5965) scale(35.0831 35.4486)">
<stop offset="0.113" stop-color="#FFF44F"/>
<stop offset="0.456" stop-color="#FF980E"/>
<stop offset="0.622" stop-color="#FF5634"/>
<stop offset="0.716" stop-color="#FF3647"/>
<stop offset="0.904" stop-color="#E31587"/>
</radialGradient>
<radialGradient id="paint8_radial_720_1914" cx="0" cy="0" r="1" gradientUnits="userSpaceOnUse" gradientTransform="translate(14.3125 -1.63108) rotate(84.0377) scale(25.9743 16.8748)">
<stop stop-color="#FFF44F"/>
<stop offset="0.06" stop-color="#FFE847"/>
<stop offset="0.168" stop-color="#FFC830"/>
<stop offset="0.304" stop-color="#FF980E"/>
<stop offset="0.356" stop-color="#FF8B16"/>
<stop offset="0.455" stop-color="#FF672A"/>
<stop offset="0.57" stop-color="#FF3647"/>
<stop offset="0.737" stop-color="#E31587"/>
</radialGradient>
<radialGradient id="paint9_radial_720_1914" cx="0" cy="0" r="1" gradientUnits="userSpaceOnUse" gradientTransform="translate(10.6933 4.80779) scale(21.8995 22.1276)">
<stop offset="0.137" stop-color="#FFF44F"/>
<stop offset="0.48" stop-color="#FF980E"/>
<stop offset="0.592" stop-color="#FF5634"/>
<stop offset="0.655" stop-color="#FF3647"/>
<stop offset="0.904" stop-color="#E31587"/>
</radialGradient>
<radialGradient id="paint10_radial_720_1914" cx="0" cy="0" r="1" gradientUnits="userSpaceOnUse" gradientTransform="translate(16.3384 6.00843) scale(23.97 24.2197)">
<stop offset="0.094" stop-color="#FFF44F"/>
<stop offset="0.231" stop-color="#FFE141"/>
<stop offset="0.509" stop-color="#FFAF1E"/>
<stop offset="0.626" stop-color="#FF980E"/>
</radialGradient>
<linearGradient id="paint11_linear_720_1914" x1="20.4094" y1="3.6242" x2="3.97965" y2="19.8876" gradientUnits="userSpaceOnUse">
<stop offset="0.167" stop-color="#FFF44F" stop-opacity="0.8"/>
<stop offset="0.266" stop-color="#FFF44F" stop-opacity="0.634"/>
<stop offset="0.489" stop-color="#FFF44F" stop-opacity="0.217"/>
<stop offset="0.6" stop-color="#FFF44F" stop-opacity="0"/>
</linearGradient>
</defs>
</svg>
