<svg width="84" height="84" viewBox="0 0 84 84" fill="none" xmlns="http://www.w3.org/2000/svg">
<path d="M65.2768 25.5696C71.0199 27.2841 75.5599 30.6967 78.8806 35.7579C82.1051 40.6872 83.5489 46.1605 82.811 52.0789C81.6078 61.7562 76.4743 68.4824 67.7794 72.3401C65.1004 73.5271 62.2769 74.236 59.3252 74.1536C58.7797 74.1371 58.8118 74.4503 58.8118 74.813C58.8118 76.8408 58.7958 78.8685 58.8279 80.8963C58.8439 82.0668 58.6514 83.0889 57.5605 83.6989C56.4376 84.3254 55.475 83.8802 54.5125 83.2208C50.3094 80.3193 46.0903 77.4507 41.8712 74.5492C41.4541 74.2525 41.037 74.1371 40.5397 74.1371C36.3206 74.0876 32.1015 74.3679 27.8985 74.0052C21.0164 73.3952 15.3695 70.2464 11.0541 64.7071C7.01151 59.5141 5.31103 53.5297 5.9848 46.9023C6.57837 40.9839 9.01678 35.9227 13.1557 31.7848C17.2785 27.6303 22.2516 25.2728 28.0268 24.7453C28.1551 24.7288 28.2835 24.6793 28.4118 24.6299C39.0799 24.6299 49.764 24.6299 60.4321 24.6299C62.0363 24.9266 63.6726 25.0915 65.2768 25.5696Z" fill="url(#paint0_linear_720_1885)"/>
<g filter="url(#filter0_bi_720_1885)">
<path d="M23.5841 0C34.2522 0 44.9363 0 55.6044 0C55.7327 0.0329718 55.8611 0.0989155 55.9894 0.115401C61.7646 0.64295 66.7216 3.00044 70.8605 7.15488C74.9994 11.3093 77.4378 16.354 78.0314 22.2725C78.6891 28.8998 77.0047 34.8842 72.946 40.0937C68.6307 45.6165 62.9998 48.7818 56.1017 49.3918C51.8986 49.771 47.6795 49.4907 43.4604 49.5237C42.9631 49.5237 42.546 49.6391 42.1289 49.9358C37.9259 52.8373 33.6907 55.7059 29.4877 58.6074C28.5251 59.2668 27.5626 59.7284 26.4396 59.0855C25.3488 58.4755 25.1563 57.4369 25.1723 56.2829C25.2044 54.2551 25.1723 52.2274 25.1883 50.1996C25.1883 49.8204 25.2204 49.5237 24.675 49.5402C21.7232 49.6061 18.8837 48.9137 16.2207 47.7267C7.52586 43.8525 2.37631 37.1263 1.18919 27.4326C0.451243 21.5306 1.89504 16.0408 5.11953 11.1115C8.44027 6.05033 12.9963 2.63775 18.7233 0.923211C20.3115 0.461605 21.9639 0.296746 23.5841 0Z" fill="#BCE4F1" fill-opacity="0.5"/>
</g>
<ellipse cx="21.0018" cy="24.5889" rx="6.00057" ry="6.14723" fill="white"/>
<ellipse cx="39.0035" cy="24.5889" rx="6.00057" ry="6.14723" fill="white"/>
<ellipse cx="57.0052" cy="24.5889" rx="6.00057" ry="6.14723" fill="white"/>
<defs>
<filter id="filter0_bi_720_1885" x="-3" y="-4" width="85.1699" height="67.3939" filterUnits="userSpaceOnUse" color-interpolation-filters="sRGB">
<feFlood flood-opacity="0" result="BackgroundImageFix"/>
<feGaussianBlur in="BackgroundImageFix" stdDeviation="2"/>
<feComposite in2="SourceAlpha" operator="in" result="effect1_backgroundBlur_720_1885"/>
<feBlend mode="normal" in="SourceGraphic" in2="effect1_backgroundBlur_720_1885" result="shape"/>
<feColorMatrix in="SourceAlpha" type="matrix" values="0 0 0 0 0 0 0 0 0 0 0 0 0 0 0 0 0 0 127 0" result="hardAlpha"/>
<feOffset dx="0.2" dy="0.1"/>
<feGaussianBlur stdDeviation="0.5"/>
<feComposite in2="hardAlpha" operator="arithmetic" k2="-1" k3="1"/>
<feColorMatrix type="matrix" values="0 0 0 0 1 0 0 0 0 1 0 0 0 0 1 0 0 0 0.6 0"/>
<feBlend mode="normal" in2="shape" result="effect2_innerShadow_720_1885"/>
</filter>
<linearGradient id="paint0_linear_720_1885" x1="6" y1="25" x2="85.7526" y2="80.0093" gradientUnits="userSpaceOnUse">
<stop stop-color="#9FDCFF"/>
<stop offset="1" stop-color="#907CFF"/>
</linearGradient>
</defs>
</svg>
