<svg width="22" height="16" viewBox="0 0 22 16" fill="none" xmlns="http://www.w3.org/2000/svg">
<path d="M20.7242 0H1.2758C0.571195 0 0 0.571193 0 1.27579C0 1.9804 0.571195 2.55159 1.2758 2.55159H20.7242C21.4288 2.55159 22 1.9804 22 1.27579C22 0.571193 21.4288 0 20.7242 0Z" fill="#7D6EFF"/>
<path d="M20.7242 6.72461H1.2758C0.571195 6.72461 0 7.2958 0 8.0004C0 8.70501 0.571195 9.2762 1.2758 9.2762H20.7242C21.4288 9.2762 22 8.70501 22 8.0004C22 7.2958 21.4288 6.72461 20.7242 6.72461Z" fill="#7D6EFF"/>
<path d="M20.7242 13.4473H1.2758C0.571195 13.4473 0 14.0185 0 14.7231C0 15.4277 0.571195 15.9989 1.2758 15.9989H20.7242C21.4288 15.9989 22 15.4277 22 14.7231C22 14.0185 21.4288 13.4473 20.7242 13.4473Z" fill="#7D6EFF"/>
</svg>
