<svg width="32" height="32" viewBox="0 0 32 32" fill="none" xmlns="http://www.w3.org/2000/svg">
<path d="M1 20.2281V11.7719C1 8.89819 2.54858 6.26198 5.01995 4.92857L12.5199 0.881985C14.6995 -0.293996 17.3005 -0.293994 19.4801 0.881986L26.9801 4.92857C29.4514 6.26198 31 8.89819 31 11.7719V20.2281C31 23.1018 29.4514 25.738 26.98 27.0714L19.4801 31.118C17.3005 32.294 14.6995 32.294 12.5199 31.118L5.01995 27.0714C2.54858 25.738 1 23.1018 1 20.2281Z" fill="#AB8FE2"/>
<path d="M24.24 13H22.9982V19H24.24V13ZM26.9905 13H25.7487V19H26.9905V13Z" fill="white"/>
<path d="M28 14.0094H22V15.2512H28V14.0094ZM28 16.7483H22V17.9901H28V16.7483Z" fill="white"/>
<path d="M22 20.68C20.3384 23.3543 17.358 25 14.1698 25C10.9817 25 7.84545 23.272 6.21503 20.4846C5.42578 19.1269 5 17.5737 5 16C5 11.0423 9.1124 7 14.1594 7C17.3268 7 20.2969 8.63543 21.9585 11.2789L18.3134 13.3463C17.3995 11.968 15.8418 11.1349 14.1698 11.1349C11.4386 11.1349 9.21625 13.3154 9.21625 16C9.21625 16.8537 9.43433 17.6663 9.87049 18.4069C10.7532 19.9291 12.394 20.8651 14.1698 20.8651C15.9456 20.8651 17.441 20.0114 18.3445 18.6023L22 20.68Z" fill="white"/>
</svg>
