<svg width="42" height="42" viewBox="0 0 42 42" fill="none" xmlns="http://www.w3.org/2000/svg">
<path d="M1 26.5494V15.4506C1 11.6789 3.06478 8.21885 6.35994 6.46874L16.3599 1.1576C19.266 -0.38587 22.734 -0.385867 25.6401 1.15761L35.6401 6.46875C38.9352 8.21885 41 11.6789 41 15.4506V26.5494C41 30.3211 38.9352 33.7811 35.6401 35.5313L25.6401 40.8424C22.734 42.3859 19.266 42.3859 16.3599 40.8424L6.35993 35.5312C3.06477 33.7811 1 30.3211 1 26.5494Z" fill="#5582FA"/>
<path d="M25.5796 23.9277C24.5342 25.7422 22.5456 26.9778 20.2614 26.9778C17.9887 26.9778 16.0115 25.7644 14.966 23.9611C14.4546 23.0817 14.1591 22.0798 14.1591 21C14.1591 17.6938 16.8864 15.0223 20.2614 15.0223C22.5113 15.0223 24.4773 16.2245 25.5341 18.0056L30.8636 15C28.7387 11.4156 24.7841 9 20.25 9C13.4772 9 8 14.3766 8 21C8 23.1707 8.59091 25.219 9.62496 26.9777C11.7386 30.5732 15.7159 33 20.2614 33C24.8182 33 28.7955 30.5622 30.9091 26.9443L25.5796 23.9277ZM32.3183 18.1614H31.1023V23.9165H32.3183V18.1614ZM35.0115 18.1614H33.7955V23.9165H35.0115V18.1614Z" fill="white"/>
<path d="M36 19.1294H30.125V20.3205H36V19.1294ZM36 21.7565H30.125V22.9476H36V21.7565Z" fill="white"/>
</svg>
