<svg xmlns="http://www.w3.org/2000/svg" fill="none" viewBox="0 0 20 20"><path fill="url(#a)" d="M10 0a10 10 0 1 0 10 10A10.011 10.011 0 0 0 10 0Zm7.206 5.833h-2.684a16.396 16.396 0 0 0-2.351-3.87 8.36 8.36 0 0 1 5.035 3.87ZM13.75 10a8.506 8.506 0 0 1-.397 2.5H6.647A8.51 8.51 0 0 1 6.25 10c.007-.848.14-1.691.397-2.5h6.706c.257.809.39 1.652.397 2.5Zm-6.435 4.167h5.37A16.344 16.344 0 0 1 10 17.99a16.309 16.309 0 0 1-2.685-3.823Zm0-8.334A16.345 16.345 0 0 1 10 2.01a16.308 16.308 0 0 1 2.685 3.823h-5.37Zm.518-3.87a16.396 16.396 0 0 0-2.355 3.87H2.794a8.36 8.36 0 0 1 5.04-3.87ZM2.051 7.5h2.866a10.013 10.013 0 0 0-.334 2.5c.006.844.118 1.684.334 2.5H2.05a8.327 8.327 0 0 1 0-5Zm.743 6.667h2.684a16.399 16.399 0 0 0 2.355 3.87 8.36 8.36 0 0 1-5.039-3.87Zm9.377 3.87a16.396 16.396 0 0 0 2.35-3.87h2.685a8.36 8.36 0 0 1-5.035 3.87Zm5.778-5.537h-2.866c.216-.816.328-1.656.334-2.5a10.01 10.01 0 0 0-.334-2.5h2.865a8.327 8.327 0 0 1 0 5h.001Z"/><defs><linearGradient id="a" x1="3.5" x2="17.5" y1="1.5" y2="16.5" gradientUnits="userSpaceOnUse"><stop stop-color="#6355FF"/><stop offset="1" stop-color="#9F97F9"/></linearGradient></defs></svg>