<svg width="700" height="160" viewBox="0 0 700 160" fill="none" xmlns="http://www.w3.org/2000/svg">
<g clip-path="url(#clip0_2279_222)">
<rect width="700" height="160" fill="url(#paint0_linear_2279_222)"/>
<g opacity="0.7">
<path d="M169 100C169 93.3726 174.373 88 181 88H387C393.627 88 399 93.3726 399 100V232C399 240.837 391.837 248 383 248H185C176.163 248 169 240.837 169 232V100Z" fill="white"/>
<g filter="url(#filter0_d_2279_222)">
<path d="M169 100C169 93.3726 174.373 88 181 88H387C393.627 88 399 93.3726 399 100V112H169V100Z" fill="url(#paint1_linear_2279_222)"/>
</g>
<circle cx="382" cy="100" r="3" fill="white"/>
<circle cx="368" cy="100" r="3" fill="white"/>
<circle cx="354" cy="100" r="3" fill="white"/>
<path d="M181 128C181 125.791 182.791 124 185 124H383C385.209 124 387 125.791 387 128V168C387 170.209 385.209 172 383 172H185C182.791 172 181 170.209 181 168V128Z" fill="#EBE9FF"/>
</g>
<path opacity="0.05" d="M242.532 53.5C278.208 33.9497 264.351 -7 264.351 -7H-10.0005V169H106.481C-10.2205 101.308 211.282 70.6251 242.532 53.5Z" fill="url(#paint2_linear_2279_222)"/>
<path opacity="0.04" d="M160.843 41.5C195.834 12.2577 169.936 -7 169.936 -7H-9.99983V169H68.5788C-14.021 102.662 141.622 57.5636 160.843 41.5Z" fill="white"/>
<path d="M446.375 95.441C388.413 124.683 415.163 169 415.163 169H709.581V-7H578.293C675.331 50.9227 478.215 79.3774 446.375 95.441Z" fill="url(#paint3_linear_2279_222)" fill-opacity="0.2"/>
<path d="M516.416 108.43C464.931 137.672 500.678 169 500.678 169H710V-7H618.317C683 56.5 544.699 92.3661 516.416 108.43Z" fill="white" fill-opacity="0.05"/>
<path d="M301 40C301 33.3726 306.373 28 313 28H519C525.627 28 531 33.3726 531 40V172C531 180.837 523.837 188 515 188H317C308.163 188 301 180.837 301 172V40Z" fill="white"/>
<g filter="url(#filter1_d_2279_222)">
<path d="M301 40C301 33.3726 306.373 28 313 28H519C525.627 28 531 33.3726 531 40V52H301V40Z" fill="url(#paint4_linear_2279_222)"/>
</g>
<circle cx="514" cy="40" r="3" fill="white"/>
<circle cx="500" cy="40" r="3" fill="white"/>
<circle cx="486" cy="40" r="3" fill="white"/>
<path d="M313 68C313 65.7909 314.791 64 317 64H515C517.209 64 519 65.7909 519 68V106C519 108.209 517.209 110 515 110H317C314.791 110 313 108.209 313 106V68Z" fill="#EBE9FF"/>
<path d="M503.713 86.1097C505.403 85.5362 507.19 85.2137 509 85.1551V72C507.851 72.0284 506.712 72.1889 505.611 72.4773V81.6053C503.814 78.9802 501.984 76.6237 500.188 74.4162C498.818 74.9972 497.59 75.6404 496.35 76.2896C495.872 76.5404 495.391 76.792 494.9 77.0413V89.1429L498.289 87.353V79.1593C500.086 81.3666 501.882 83.6337 503.713 86.1097Z" fill="#998EFF" fill-opacity="0.6"/>
<path fill-rule="evenodd" clip-rule="evenodd" d="M494.888 82.7792C495.019 85.1967 494.088 87.5887 492.202 89.6794C490.165 91.7566 487.076 93.315 483.461 94.0904C482.482 94.3083 481.465 94.4459 480.433 94.5V91.5383C481.294 91.5341 482.15 91.4492 482.973 91.2862C484.873 90.9224 486.569 90.211 487.856 89.2382C488.969 88.3386 489.618 87.237 489.712 86.0875C489.402 86.5503 489.026 86.9933 488.588 87.4108C488.196 87.743 487.736 88.0398 487.221 88.293C486.593 88.5866 485.902 88.8201 485.17 88.9862C484.478 89.2292 483.683 89.3236 482.901 89.2556C482.12 89.1876 481.392 88.9608 480.824 88.6081C480.248 88.1778 479.813 87.677 479.545 87.1355C479.276 86.5942 479.18 86.0233 479.262 85.4573C479.103 84.0806 479.728 82.7139 481.019 81.6134C482.547 80.4916 484.474 79.6265 486.635 79.0927C487.534 78.7204 488.561 78.4968 489.626 78.4419C490.691 78.387 491.76 78.5023 492.739 78.7776C494.204 79.3763 494.888 80.6996 494.888 82.7792ZM486.635 82.0545C485.981 82.217 485.431 82.5165 485.073 82.9052C484.652 83.3843 484.449 83.9304 484.487 84.4806C484.43 84.8893 484.622 85.2963 485.024 85.6148C485.366 85.8355 485.854 85.8355 486.586 85.6148C487.26 85.4001 487.832 85.0739 488.247 84.6696C488.68 84.2964 488.92 83.8442 488.93 83.3778C488.961 83.151 488.92 82.9226 488.811 82.7062C488.702 82.4896 488.527 82.2895 488.296 82.1175C488.061 81.9997 487.777 81.9305 487.481 81.9192C487.184 81.908 486.889 81.9552 486.635 82.0545Z" fill="#998EFF" fill-opacity="0.6"/>
<path fill-rule="evenodd" clip-rule="evenodd" d="M479.185 86.0098V87.8972L476.953 88.7581C477.293 89.1579 477.458 89.6183 477.428 90.0826C477.479 90.6269 477.337 91.1717 477.014 91.6685C476.691 92.1653 476.197 92.5987 475.575 92.9304C474.746 93.2678 473.804 93.4457 472.844 93.4457C471.884 93.4457 470.941 93.2678 470.113 92.9304C469.593 92.7683 469.099 92.5686 468.64 92.3343C468.599 92.4652 468.599 92.6008 468.64 92.7316C468.64 92.9304 468.877 93.1622 469.305 93.4601C469.838 93.7514 470.431 93.9856 471.063 94.1555C471.931 94.4081 472.84 94.5859 473.77 94.6853C477.428 95.1158 479.233 95.7781 479.233 97.9965C479.245 98.6514 479.021 99.2978 478.581 99.8764C478.141 100.455 477.499 100.947 476.715 101.308C475.64 101.761 474.409 102 473.153 102C471.897 102 470.665 101.761 469.59 101.308C467.315 100.463 465.41 99.2046 464.08 97.6655C463.002 96.5531 462.363 95.2626 462.227 93.9237C462.227 92.5661 463.415 92.831 465.837 93.9237C465.318 93.4685 464.887 92.9674 464.555 92.4337C464.239 92.0115 464.046 91.5502 463.985 91.0761C463.985 90.7118 463.985 90.5131 464.412 90.4137C464.978 90.3417 465.557 90.3417 466.122 90.4137C465.822 90.1425 465.41 89.934 464.965 89.7089C464.191 89.3172 463.317 88.8751 462.76 87.9637C462.273 87.1675 462.015 86.3126 462 85.4471C462 84.222 462.618 83.7253 463.805 83.7915L464.327 83.8693C466.166 84.1421 468.909 84.5491 470.398 85.0826L471.728 85.4469L473.343 85.8773C475.266 86.151 477.241 86.1958 479.185 86.0098ZM466.977 96.6389C467.031 97.0683 467.281 97.4744 467.69 97.7979C468.25 98.238 468.928 98.5978 469.685 98.8575C470.682 99.245 471.828 99.407 472.963 99.321C473.77 99.321 474.198 98.9237 474.198 98.5595C474.175 98.402 474.092 98.2516 473.959 98.1237C473.935 98.101 473.91 98.0793 473.884 98.0584C473.761 97.9611 473.609 97.8834 473.438 97.831L471.3 97.2349C470.547 97.0564 469.816 96.8349 469.115 96.5728C468.653 96.3805 468.132 96.2671 467.595 96.2416C466.977 96.2416 466.977 96.3741 466.977 96.6389ZM468.735 88.427C468.647 88.8889 468.764 89.3583 469.069 89.7726C469.375 90.187 469.855 90.5261 470.445 90.7449C470.617 90.8474 470.836 90.9039 471.063 90.9039C471.204 90.9039 471.342 90.882 471.468 90.8405C471.544 90.8155 471.615 90.7835 471.68 90.7449C472.013 90.3929 472.164 89.9725 472.108 89.5529C472.108 88.3607 471.585 87.6985 470.445 87.3674C469.305 87.0362 468.735 87.2681 468.735 88.427Z" fill="#998EFF" fill-opacity="0.6"/>
<path d="M313 120C313 117.791 314.791 116 317 116H447C449.209 116 451 117.791 451 120V165C451 167.209 449.209 169 447 169H317C314.791 169 313 167.209 313 165V120Z" fill="#EBE9FF"/>
<path d="M457 120C457 117.791 458.791 116 461 116H515C517.209 116 519 117.791 519 120V140C519 142.209 517.209 144 515 144H461C458.791 144 457 142.209 457 140V120Z" fill="#EBE9FF"/>
<path d="M457 154C457 151.791 458.791 150 461 150H515C517.209 150 519 151.791 519 154V168C519 170.209 517.209 172 515 172H461C458.791 172 457 170.209 457 168V154Z" fill="#EBE9FF"/>
<path d="M323 77C323 75.8954 323.895 75 325 75H411C412.105 75 413 75.8954 413 77C413 78.1046 412.105 79 411 79H325C323.895 79 323 78.1046 323 77Z" fill="#B2A9FF" fill-opacity="0.6"/>
<path d="M323 87C323 85.8954 323.895 85 325 85H369C370.105 85 371 85.8954 371 87C371 88.1046 370.105 89 369 89H325C323.895 89 323 88.1046 323 87Z" fill="#B2A9FF" fill-opacity="0.6"/>
<path d="M323 97C323 95.8954 323.895 95 325 95H386C387.105 95 388 95.8954 388 97C388 98.1046 387.105 99 386 99H325C323.895 99 323 98.1046 323 97Z" fill="#B2A9FF" fill-opacity="0.6"/>
<path d="M123 118C123 116.895 123.895 116 125 116C126.105 116 127 116.895 127 118V124C127 125.105 126.105 126 125 126C123.895 126 123 125.105 123 124V118Z" fill="white" fill-opacity="0.08"/>
<path d="M135 126C136.105 126 137 126.895 137 128C137 129.105 136.105 130 135 130L129 130C127.895 130 127 129.105 127 128C127 126.895 127.895 126 129 126L135 126Z" fill="white" fill-opacity="0.08"/>
<path d="M121 126C122.105 126 123 126.895 123 128C123 129.105 122.105 130 121 130L115 130C113.895 130 113 129.105 113 128C113 126.895 113.895 126 115 126L121 126Z" fill="white" fill-opacity="0.08"/>
<path d="M123 132C123 130.895 123.895 130 125 130C126.105 130 127 130.895 127 132V138C127 139.105 126.105 140 125 140C123.895 140 123 139.105 123 138V132Z" fill="white" fill-opacity="0.08"/>
<path d="M558 19C558 17.8954 558.895 17 560 17C561.105 17 562 17.8954 562 19V23C562 24.1046 561.105 25 560 25C558.895 25 558 24.1046 558 23V19Z" fill="white" fill-opacity="0.08"/>
<path d="M568 25C569.105 25 570 25.8954 570 27C570 28.1046 569.105 29 568 29L564 29C562.895 29 562 28.1046 562 27C562 25.8954 562.895 25 564 25L568 25Z" fill="white" fill-opacity="0.08"/>
<path d="M556 25C557.105 25 558 25.8954 558 27C558 28.1046 557.105 29 556 29L552 29C550.895 29 550 28.1046 550 27C550 25.8954 550.895 25 552 25L556 25Z" fill="white" fill-opacity="0.08"/>
<path d="M558 31C558 29.8954 558.895 29 560 29C561.105 29 562 29.8954 562 31V35C562 36.1046 561.105 37 560 37C558.895 37 558 36.1046 558 35V31Z" fill="white" fill-opacity="0.08"/>
</g>
<defs>
<filter id="filter0_d_2279_222" x="159" y="78" width="250" height="44" filterUnits="userSpaceOnUse" color-interpolation-filters="sRGB">
<feFlood flood-opacity="0" result="BackgroundImageFix"/>
<feColorMatrix in="SourceAlpha" type="matrix" values="0 0 0 0 0 0 0 0 0 0 0 0 0 0 0 0 0 0 127 0" result="hardAlpha"/>
<feOffset/>
<feGaussianBlur stdDeviation="5"/>
<feComposite in2="hardAlpha" operator="out"/>
<feColorMatrix type="matrix" values="0 0 0 0 0 0 0 0 0 0 0 0 0 0 0 0 0 0 0.1 0"/>
<feBlend mode="normal" in2="BackgroundImageFix" result="effect1_dropShadow_2279_222"/>
<feBlend mode="normal" in="SourceGraphic" in2="effect1_dropShadow_2279_222" result="shape"/>
</filter>
<filter id="filter1_d_2279_222" x="291" y="18" width="250" height="44" filterUnits="userSpaceOnUse" color-interpolation-filters="sRGB">
<feFlood flood-opacity="0" result="BackgroundImageFix"/>
<feColorMatrix in="SourceAlpha" type="matrix" values="0 0 0 0 0 0 0 0 0 0 0 0 0 0 0 0 0 0 127 0" result="hardAlpha"/>
<feOffset/>
<feGaussianBlur stdDeviation="5"/>
<feComposite in2="hardAlpha" operator="out"/>
<feColorMatrix type="matrix" values="0 0 0 0 0 0 0 0 0 0 0 0 0 0 0 0 0 0 0.1 0"/>
<feBlend mode="normal" in2="BackgroundImageFix" result="effect1_dropShadow_2279_222"/>
<feBlend mode="normal" in="SourceGraphic" in2="effect1_dropShadow_2279_222" result="shape"/>
</filter>
<linearGradient id="paint0_linear_2279_222" x1="0" y1="0" x2="566.338" y2="366.528" gradientUnits="userSpaceOnUse">
<stop stop-color="#7D55FF"/>
<stop offset="1" stop-color="#6932FF"/>
</linearGradient>
<linearGradient id="paint1_linear_2279_222" x1="203.887" y1="89.625" x2="353.224" y2="120.124" gradientUnits="userSpaceOnUse">
<stop stop-color="#CEC8FF"/>
<stop offset="1" stop-color="#8071FF"/>
</linearGradient>
<linearGradient id="paint2_linear_2279_222" x1="225.154" y1="0.560833" x2="25.5374" y2="155.126" gradientUnits="userSpaceOnUse">
<stop stop-color="white" stop-opacity="0.5"/>
<stop offset="1" stop-color="white"/>
</linearGradient>
<linearGradient id="paint3_linear_2279_222" x1="689.116" y1="-6.99991" x2="434.143" y2="112.668" gradientUnits="userSpaceOnUse">
<stop stop-color="#C8E0FF" stop-opacity="0.4"/>
<stop offset="0.547569" stop-color="#AED0FF" stop-opacity="0.3"/>
<stop offset="1" stop-color="#C6E9FF" stop-opacity="0.2"/>
</linearGradient>
<linearGradient id="paint4_linear_2279_222" x1="335.887" y1="29.625" x2="485.224" y2="60.124" gradientUnits="userSpaceOnUse">
<stop stop-color="#CEC8FF"/>
<stop offset="1" stop-color="#8071FF"/>
</linearGradient>
<clipPath id="clip0_2279_222">
<rect width="700" height="160" fill="white"/>
</clipPath>
</defs>
</svg>
