<svg width="24" height="24" viewBox="0 0 24 24" fill="none" xmlns="http://www.w3.org/2000/svg">
<path fill-rule="evenodd" clip-rule="evenodd" d="M21.9771 18.6676C23.296 16.6941 24 14.3737 24 12C23.9971 8.81961 22.7329 5.77001 20.4847 3.52045C18.2365 1.27089 15.1877 0.00484317 12.0073 2.23053e-06C9.63363 -0.00144471 7.31284 0.701113 5.33848 2.01881C3.36413 3.33651 1.82492 5.21014 0.915552 7.40273C0.00617856 9.59531 -0.232505 12.0083 0.229691 14.3366C0.691887 16.6649 1.8342 18.8037 3.51214 20.4827C5.19008 22.1617 7.32826 23.3053 9.65623 23.7689C11.9842 24.2325 14.3974 23.9953 16.5905 23.0873C18.7837 22.1792 20.6582 20.6411 21.9771 18.6676ZM16.9706 14.7982V14.781L16.9726 14.7772L16.976 14.7703C17.4247 13.9626 17.6713 13.0583 17.6946 12.1346C17.718 11.2077 17.516 10.289 17.1058 9.45742L17.1047 9.45525C16.8912 9.03436 16.6273 8.64182 16.3192 8.2861H21.3113C21.8892 9.7378 22.1202 11.3051 21.9849 12.8631C21.8454 14.47 21.3203 16.0194 20.4543 17.3801C19.5884 18.7408 18.407 19.8725 17.0104 20.6794C15.7315 21.4182 14.3066 21.8646 12.8381 21.9887L16.9706 14.7982ZM15.133 14.088C15.5098 13.5216 15.7238 12.8639 15.7535 12.1865L15.7354 12.1835V11.9964C15.7354 11.0076 15.3426 10.0593 14.6435 9.36013C13.9443 8.66095 12.9957 8.26815 12.0069 8.26815C11.2691 8.26724 10.5475 8.48528 9.93368 8.89467C9.31982 9.30406 8.84124 9.88639 8.55854 10.5679C8.27583 11.2495 8.20171 11.9996 8.34556 12.7233C8.48941 13.447 8.84476 14.1117 9.36662 14.6333L9.36811 14.6348C9.88801 15.1645 10.5542 15.5269 11.2813 15.6757C12.0084 15.8245 12.7634 15.7529 13.4496 15.4701C14.1358 15.1872 14.7219 14.706 15.133 14.088ZM8.47031 7.52712C7.61935 8.20463 6.98282 9.10891 6.63075 10.1305L4.12351 5.80383C5.04983 4.63461 6.22421 3.68473 7.56257 3.02322C8.94495 2.33994 10.4655 1.98249 12.0075 1.97829H12.0284C13.7156 1.98364 15.3745 2.41185 16.8535 3.22378C18.2129 3.97003 19.3804 5.01854 20.2672 6.28628L11.9462 6.28626L11.9431 6.2863C10.68 6.30389 9.45854 6.74032 8.47031 7.52712ZM2.93166 7.24716L7.23952 14.7393L7.27542 14.7895C7.27658 14.7954 7.27658 14.8015 7.27542 14.8075C7.7671 15.6182 8.45474 16.2923 9.27511 16.7677C9.91385 17.1285 10.6182 17.3583 11.3469 17.4433C11.973 17.5164 12.6063 17.4815 13.2192 17.3408C13.2255 17.3393 13.2317 17.3379 13.238 17.3364C13.296 17.3229 13.3539 17.3084 13.4115 17.2929C13.4473 17.2834 13.483 17.2734 13.5186 17.2631L10.7005 22.1634C9.06299 21.951 7.501 21.3463 6.14737 20.4006C4.79361 19.4549 3.68831 18.1961 2.9255 16.7315C2.16268 15.2668 1.76492 13.6396 1.76605 11.9882C1.76718 10.3371 2.16705 8.71061 2.93166 7.24716Z" fill="#7D6EFF"/>
</svg>
