<svg width="34" height="34" viewBox="0 0 34 34" fill="none" xmlns="http://www.w3.org/2000/svg">
<path fill-rule="evenodd" clip-rule="evenodd" d="M0 24.7293V11.905C0 10.356 0.811139 8.91998 2.13787 8.12032L14.4189 0.718185C16.0066 -0.238744 17.9934 -0.238744 19.5811 0.718185L31.8621 8.12032C33.1889 8.91998 34 10.356 34 11.905V24.7293V28.8278V30.5001C34 32.4331 32.433 34.0001 30.5 34.0001C28.567 34.0001 27 32.4331 27 30.5001V28.8278L18.5712 23.6459C17.6075 23.0535 16.3925 23.0535 15.4288 23.6459L7 28.8278V30.5001C7 32.4331 5.433 34.0001 3.5 34.0001C1.567 34.0001 0 32.4331 0 30.5001V28.8278V24.7293ZM7 20.5102L14.4189 16.0386C16.0066 15.0817 17.9934 15.0817 19.5811 16.0386L27 20.5102V13.5074L19.6186 8.96948C18.0125 7.98206 15.9875 7.98206 14.3814 8.96948L7 13.5074V20.5102Z" fill="url(#paint0_linear_712_800)"/>
<defs>
<linearGradient id="paint0_linear_712_800" x1="17" y1="0.000488281" x2="17" y2="34.0001" gradientUnits="userSpaceOnUse">
<stop stop-color="#10BC26"/>
<stop offset="1" stop-color="#84D2C4"/>
</linearGradient>
</defs>
</svg>
