<svg width="42" height="42" viewBox="0 0 42 42" fill="none" xmlns="http://www.w3.org/2000/svg">
<rect width="42" height="42" rx="10" fill="#5582FA"/>
<path d="M25.2203 17.9109C24.093 18.2028 23.3236 18.4218 22.2142 18.7137C21.9458 18.7867 21.9279 18.8049 21.6953 18.5312C21.4269 18.2211 21.2301 18.0204 20.8544 17.8379C19.7271 17.2723 18.6356 17.4365 17.6157 18.1116C16.399 18.9144 15.7728 20.1004 15.7906 21.5783C15.8085 23.038 16.7927 24.2422 18.2062 24.4429C19.4229 24.6071 20.4428 24.1692 21.248 23.2387C21.409 23.038 21.5522 22.819 21.7311 22.5636C21.087 22.5636 20.2818 22.5636 18.2778 22.5636C17.902 22.5636 17.8126 22.3264 17.9378 22.0162C18.1704 21.4506 18.5998 20.5018 18.8503 20.0274C18.904 19.9179 19.0293 19.7355 19.2977 19.7355C20.2102 19.7355 23.5741 19.7355 25.8107 19.7355C25.7749 20.2281 25.7749 20.7208 25.7034 21.2134C25.5065 22.5271 25.0234 23.7313 24.2361 24.7896C22.9478 26.5229 21.2659 27.5995 19.1366 27.8914C17.3831 28.1286 15.7549 27.7819 14.3234 26.6872C12.9993 25.6654 12.2478 24.3152 12.051 22.6366C11.8184 20.6478 12.391 18.8597 13.5719 17.2905C14.8423 15.5937 16.5243 14.5171 18.582 14.134C20.2639 13.8238 21.8743 14.0245 23.3236 15.028C24.2719 15.6666 24.9519 16.5424 25.3992 17.6007C25.5065 17.7649 25.435 17.8561 25.2203 17.9109Z" fill="white"/>
<path d="M31.1463 27.9999C29.518 27.9634 28.0329 27.489 26.7804 26.3942C25.7247 25.4637 25.0626 24.2777 24.8479 22.8728C24.5259 20.811 25.0805 18.9864 26.2973 17.3625C27.6034 15.6109 29.178 14.6986 31.3073 14.3155C33.1324 13.987 34.8501 14.1695 36.4068 15.246C37.8203 16.2313 38.6971 17.5632 38.9297 19.3148C39.2339 21.778 38.5361 23.7851 36.872 25.5002C35.6911 26.7227 34.2417 27.489 32.5777 27.8357C32.0946 27.9269 31.6115 27.9451 31.1463 27.9999ZM35.4048 20.6285C35.3869 20.3913 35.3869 20.2089 35.3511 20.0264C35.029 18.2201 33.4008 17.1983 31.7009 17.5997C30.0369 17.9829 28.9633 19.0594 28.5697 20.7745C28.2476 22.1977 28.9275 23.6391 30.2158 24.223C31.1999 24.6609 32.1841 24.6061 33.1324 24.1135C34.5459 23.3654 35.3153 22.1977 35.4048 20.6285Z" fill="white"/>
<rect x="7" y="17" width="5" height="1" fill="white"/>
<rect x="8" y="23" width="3" height="1" fill="white"/>
<rect x="3" y="20" width="8" height="1" fill="white"/>
</svg>
