<svg width="56" height="20" viewBox="0 0 56 20" fill="none" xmlns="http://www.w3.org/2000/svg">
<rect width="56" height="20" rx="10" fill="url(#paint0_linear_712_805)"/>
<path d="M12.2578 7.13184V14H11.0771V7.13184H12.2578ZM10.9883 5.31006C10.9883 5.11963 11.0454 4.95882 11.1597 4.82764C11.2782 4.69645 11.4517 4.63086 11.6802 4.63086C11.9045 4.63086 12.0758 4.69645 12.1943 4.82764C12.3171 4.95882 12.3784 5.11963 12.3784 5.31006C12.3784 5.49202 12.3171 5.6486 12.1943 5.77979C12.0758 5.90674 11.9045 5.97021 11.6802 5.97021C11.4517 5.97021 11.2782 5.90674 11.1597 5.77979C11.0454 5.6486 10.9883 5.49202 10.9883 5.31006ZM15.311 8.49658V14H14.1304V7.13184H15.2476L15.311 8.49658ZM15.0698 10.3057L14.5239 10.2866C14.5282 9.81689 14.5895 9.38314 14.708 8.98535C14.8265 8.58333 15.0021 8.23421 15.2349 7.93799C15.4676 7.64176 15.7575 7.41325 16.1045 7.25244C16.4515 7.0874 16.8535 7.00488 17.3105 7.00488C17.6322 7.00488 17.9284 7.05143 18.1992 7.14453C18.4701 7.2334 18.7049 7.37516 18.9038 7.56982C19.1027 7.76449 19.2572 8.01416 19.3672 8.31885C19.4772 8.62354 19.5322 8.9917 19.5322 9.42334V14H18.3579V9.48047C18.3579 9.12077 18.2965 8.83301 18.1738 8.61719C18.0553 8.40137 17.8861 8.24479 17.666 8.14746C17.446 8.0459 17.1878 7.99512 16.8916 7.99512C16.5446 7.99512 16.2547 8.05648 16.022 8.1792C15.7892 8.30192 15.603 8.47119 15.4634 8.68701C15.3237 8.90283 15.2222 9.15039 15.1587 9.42969C15.0994 9.70475 15.0698 9.99674 15.0698 10.3057ZM19.5195 9.6582L18.7324 9.89941C18.7367 9.52279 18.798 9.16097 18.9165 8.81396C19.0392 8.46696 19.2148 8.15804 19.4434 7.88721C19.6761 7.61637 19.9618 7.40267 20.3003 7.24609C20.6388 7.08529 21.026 7.00488 21.4619 7.00488C21.8301 7.00488 22.1559 7.05355 22.4395 7.15088C22.7272 7.24821 22.9684 7.39844 23.1631 7.60156C23.362 7.80046 23.5122 8.05648 23.6138 8.36963C23.7153 8.68278 23.7661 9.05518 23.7661 9.48682V14H22.5854V9.47412C22.5854 9.08903 22.5241 8.79069 22.4014 8.5791C22.2829 8.36328 22.1136 8.21305 21.8936 8.12842C21.6777 8.03955 21.4196 7.99512 21.1191 7.99512C20.861 7.99512 20.6325 8.03955 20.4336 8.12842C20.2347 8.21729 20.0675 8.34001 19.9321 8.49658C19.7967 8.64893 19.693 8.82454 19.6211 9.02344C19.5534 9.22233 19.5195 9.43392 19.5195 9.6582ZM29.5933 12.8257V9.29004C29.5933 9.01921 29.5382 8.78434 29.4282 8.58545C29.3224 8.38232 29.1616 8.22575 28.9458 8.11572C28.73 8.0057 28.4634 7.95068 28.146 7.95068C27.8498 7.95068 27.5895 8.00146 27.3652 8.10303C27.1452 8.20459 26.9717 8.33789 26.8447 8.50293C26.722 8.66797 26.6606 8.8457 26.6606 9.03613H25.4863C25.4863 8.79069 25.5498 8.54736 25.6768 8.30615C25.8037 8.06494 25.9857 7.84701 26.2227 7.65234C26.4639 7.45345 26.7516 7.29688 27.0859 7.18262C27.4245 7.06413 27.8011 7.00488 28.2158 7.00488C28.7152 7.00488 29.1553 7.08952 29.5361 7.25879C29.9212 7.42806 30.2217 7.68408 30.4375 8.02686C30.6576 8.3654 30.7676 8.79069 30.7676 9.30273V12.502C30.7676 12.7305 30.7866 12.9738 30.8247 13.2319C30.867 13.4901 30.9284 13.7122 31.0088 13.8984V14H29.7837C29.7244 13.8646 29.6779 13.6847 29.644 13.4604C29.6102 13.2319 29.5933 13.0203 29.5933 12.8257ZM29.7964 9.83594L29.8091 10.6611H28.6221C28.2878 10.6611 27.9894 10.6886 27.7271 10.7437C27.4647 10.7944 27.2446 10.8727 27.0669 10.9785C26.8892 11.0843 26.7537 11.2176 26.6606 11.3784C26.5675 11.535 26.521 11.7191 26.521 11.9307C26.521 12.1465 26.5697 12.3433 26.667 12.521C26.7643 12.6987 26.9103 12.8405 27.105 12.9463C27.3039 13.0479 27.5472 13.0986 27.835 13.0986C28.1947 13.0986 28.512 13.0225 28.7871 12.8701C29.0622 12.7178 29.2801 12.5316 29.4409 12.3115C29.606 12.0915 29.6948 11.8778 29.7075 11.6704L30.209 12.2354C30.1794 12.4131 30.099 12.6099 29.9678 12.8257C29.8366 13.0415 29.661 13.2489 29.4409 13.4478C29.2251 13.6424 28.967 13.8053 28.6665 13.9365C28.3703 14.0635 28.036 14.127 27.6636 14.127C27.1981 14.127 26.7897 14.036 26.4385 13.854C26.0915 13.672 25.8206 13.4287 25.626 13.124C25.4355 12.8151 25.3403 12.4702 25.3403 12.0894C25.3403 11.7212 25.4123 11.3975 25.5562 11.1182C25.7 10.8346 25.9074 10.5998 26.1782 10.4136C26.4491 10.2231 26.7749 10.0793 27.1558 9.98193C27.5366 9.8846 27.9619 9.83594 28.4316 9.83594H29.7964ZM37.0645 7.13184H38.1309V13.854C38.1309 14.4591 38.0081 14.9754 37.7627 15.4028C37.5173 15.8302 37.1745 16.154 36.7344 16.374C36.2985 16.5983 35.7949 16.7104 35.2236 16.7104C34.9867 16.7104 34.7074 16.6724 34.3857 16.5962C34.0684 16.5243 33.7552 16.3994 33.4463 16.2217C33.1416 16.0482 32.8856 15.8133 32.6782 15.5171L33.2939 14.8188C33.5817 15.1659 33.8822 15.4071 34.1953 15.5425C34.5127 15.6779 34.8258 15.7456 35.1348 15.7456C35.5072 15.7456 35.8288 15.6758 36.0996 15.5361C36.3704 15.3965 36.5799 15.1891 36.728 14.9141C36.8804 14.6432 36.9565 14.3089 36.9565 13.9111V8.64258L37.0645 7.13184ZM32.3354 10.6421V10.5088C32.3354 9.98405 32.3968 9.50798 32.5195 9.08057C32.6465 8.64893 32.8263 8.27865 33.0591 7.96973C33.2961 7.66081 33.5817 7.42383 33.916 7.25879C34.2503 7.08952 34.627 7.00488 35.0459 7.00488C35.4775 7.00488 35.8542 7.08105 36.1758 7.2334C36.5016 7.38151 36.7767 7.59945 37.001 7.88721C37.2295 8.17074 37.4093 8.51351 37.5405 8.91553C37.6717 9.31755 37.7627 9.77246 37.8135 10.2803V10.8643C37.7669 11.3678 37.6759 11.8206 37.5405 12.2227C37.4093 12.6247 37.2295 12.9674 37.001 13.251C36.7767 13.5345 36.5016 13.7524 36.1758 13.9048C35.8499 14.0529 35.4691 14.127 35.0332 14.127C34.6227 14.127 34.2503 14.0402 33.916 13.8667C33.5859 13.6932 33.3024 13.4499 33.0654 13.1367C32.8285 12.8236 32.6465 12.4554 32.5195 12.0322C32.3968 11.6048 32.3354 11.1414 32.3354 10.6421ZM33.5098 10.5088V10.6421C33.5098 10.9849 33.5436 11.3065 33.6113 11.6069C33.6833 11.9074 33.7912 12.1719 33.9351 12.4004C34.0832 12.6289 34.2715 12.8088 34.5 12.9399C34.7285 13.0669 35.0015 13.1304 35.3188 13.1304C35.7082 13.1304 36.0298 13.0479 36.2837 12.8828C36.5376 12.7178 36.7386 12.4998 36.8867 12.229C37.0391 11.9582 37.1576 11.6641 37.2422 11.3467V9.81689C37.1956 9.58415 37.1237 9.35986 37.0264 9.14404C36.9333 8.92399 36.8105 8.72933 36.6582 8.56006C36.5101 8.38656 36.326 8.24902 36.106 8.14746C35.8859 8.0459 35.6278 7.99512 35.3315 7.99512C35.0099 7.99512 34.7327 8.06283 34.5 8.19824C34.2715 8.32943 34.0832 8.51139 33.9351 8.74414C33.7912 8.97266 33.6833 9.23926 33.6113 9.54395C33.5436 9.8444 33.5098 10.166 33.5098 10.5088ZM42.7646 14.127C42.2865 14.127 41.8527 14.0465 41.4634 13.8857C41.0783 13.7207 40.7461 13.4901 40.4668 13.1938C40.1917 12.8976 39.9801 12.5464 39.832 12.1401C39.6839 11.7339 39.6099 11.2896 39.6099 10.8071V10.5405C39.6099 9.98193 39.6924 9.4847 39.8574 9.04883C40.0225 8.60872 40.2467 8.23633 40.5303 7.93164C40.8138 7.62695 41.1354 7.39632 41.4951 7.23975C41.8548 7.08317 42.2272 7.00488 42.6123 7.00488C43.1032 7.00488 43.5264 7.08952 43.8818 7.25879C44.2415 7.42806 44.5356 7.66504 44.7642 7.96973C44.9927 8.27018 45.1619 8.62565 45.272 9.03613C45.382 9.44238 45.437 9.88672 45.437 10.3691V10.896H40.3081V9.9375H44.2627V9.84863C44.2458 9.54395 44.1823 9.24772 44.0723 8.95996C43.9665 8.6722 43.7972 8.43522 43.5645 8.24902C43.3317 8.06283 43.0143 7.96973 42.6123 7.96973C42.3457 7.96973 42.1003 8.02686 41.876 8.14111C41.6517 8.25114 41.4591 8.41618 41.2983 8.63623C41.1375 8.85628 41.0127 9.125 40.9238 9.44238C40.835 9.75977 40.7905 10.1258 40.7905 10.5405V10.8071C40.7905 11.133 40.835 11.4398 40.9238 11.7275C41.0169 12.0111 41.1502 12.2607 41.3237 12.4766C41.5015 12.6924 41.7152 12.8617 41.9648 12.9844C42.2188 13.1071 42.5065 13.1685 42.8281 13.1685C43.2428 13.1685 43.5941 13.0838 43.8818 12.9146C44.1696 12.7453 44.4214 12.5189 44.6372 12.2354L45.3481 12.8003C45.2 13.0246 45.0117 13.2383 44.7832 13.4414C44.5547 13.6445 44.2733 13.8096 43.939 13.9365C43.6089 14.0635 43.2174 14.127 42.7646 14.127Z" fill="#3F81A2"/>
<defs>
<linearGradient id="paint0_linear_712_805" x1="2.08616e-07" y1="10" x2="56" y2="10" gradientUnits="userSpaceOnUse">
<stop stop-color="#D9FAFF"/>
<stop offset="1" stop-color="#E3E0FF"/>
</linearGradient>
</defs>
</svg>
