<svg width="32" height="32" viewBox="0 0 32 32" fill="none" xmlns="http://www.w3.org/2000/svg">
<path d="M24 0H8C3.58172 0 0 3.58172 0 8V24C0 28.4183 3.58172 32 8 32H24C28.4183 32 32 28.4183 32 24V8C32 3.58172 28.4183 0 24 0Z" fill="#AB8FE2"/>
<path d="M20.1859 23.3118C20.7681 24.2758 21.5255 24.9843 22.8651 24.9843C23.9905 24.9843 24.7094 24.4139 24.7094 23.6258C24.7094 22.6814 23.9707 22.347 22.7321 21.7975L22.0531 21.5021C20.0932 20.6554 18.7912 19.5947 18.7912 17.3523C18.7912 15.2867 20.3433 13.7143 22.7688 13.7143C24.4956 13.7143 25.737 14.3237 26.6316 15.9194L24.5167 17.2965C24.051 16.4498 23.5487 16.1162 22.7688 16.1162C21.9733 16.1162 21.4691 16.628 21.4691 17.2965C21.4691 18.1227 21.9737 18.4572 23.139 18.969L23.818 19.2639C26.1256 20.2674 27.4285 21.2904 27.4285 23.5905C27.4285 26.0701 25.5076 27.4286 22.928 27.4286C20.4056 27.4286 18.7761 26.2097 17.9788 24.6121L20.1859 23.3118ZM10.5917 23.5505C11.0183 24.3181 11.4064 24.9671 12.3396 24.9671C13.2319 24.9671 13.7948 24.613 13.7948 23.2365V13.8715H16.5107V23.2737C16.5107 26.1255 14.8619 27.4235 12.4552 27.4235C10.2806 27.4235 9.0213 26.2823 8.38086 24.9078L10.5917 23.5505Z" fill="white"/>
</svg>
