<svg width="42" height="42" viewBox="0 0 42 42" fill="none" xmlns="http://www.w3.org/2000/svg">
<path d="M32 0H10C4.47715 0 0 4.47715 0 10V32C0 37.5229 4.47715 42 10 42H32C37.5229 42 42 37.5229 42 32V10C42 4.47715 37.5229 0 32 0Z" fill="#5582FA"/>
<path d="M26.4941 30.5968C27.2582 31.8619 28.2523 32.7919 30.0106 32.7919C31.4876 32.7919 32.4312 32.0433 32.4312 31.0089C32.4312 29.7694 31.4617 29.3304 29.836 28.6092L28.9448 28.2215C26.3725 27.1102 24.6636 25.718 24.6636 22.7749C24.6636 20.0638 26.7006 18 29.8841 18C32.1506 18 33.7799 18.7999 34.9541 20.8943L32.1783 22.7017C31.5671 21.5904 30.9078 21.1525 29.8841 21.1525C28.84 21.1525 28.1783 21.8242 28.1783 22.7017C28.1783 23.7861 28.8406 24.2251 30.37 24.8968L31.2612 25.2839C34.2899 26.601 36 27.9437 36 30.9625C36 34.217 33.4789 36 30.0931 36C26.7825 36 24.6438 34.4002 23.5972 32.3034L26.4941 30.5968ZM13.9017 30.91C14.4617 31.9175 14.9711 32.7693 16.1958 32.7693C17.367 32.7693 18.1058 32.3046 18.1058 30.4978V18.2064H21.6704V30.5467C21.6704 34.2897 19.5063 35.9933 16.3476 35.9933C13.4934 35.9933 11.8406 34.4955 11 32.6914L13.9017 30.91Z" fill="white"/>
</svg>
