<svg width="286" height="38" viewBox="0 0 286 38" fill="none" xmlns="http://www.w3.org/2000/svg">
<path d="M2.32612 25.1962C2.51236 24.5575 2.77083 23.9417 3.09771 23.3638L2.16648 22.1891C1.86241 21.8052 1.89662 21.2577 2.2387 20.9118L3.84268 19.3075C4.18857 18.9616 4.7359 18.9312 5.11979 19.2353L6.28667 20.1591C6.88721 19.8131 7.52577 19.5433 8.19093 19.3532L8.36577 17.8516C8.42278 17.365 8.83328 17 9.3198 17H11.5889C12.0755 17 12.486 17.365 12.543 17.8516L12.7102 19.3C13.4248 19.4862 14.1089 19.7638 14.7513 20.1249L15.8802 19.2315C16.2641 18.9274 16.8114 18.9616 17.1573 19.3038L18.7613 20.908C19.1071 21.254 19.1376 21.8014 18.8335 22.1854L17.9555 23.2992C18.3204 23.9303 18.6054 24.6032 18.7955 25.3065L20.1486 25.4623C20.6352 25.5194 21 25.9299 21 26.4165V28.6861C21 29.1727 20.6351 29.5833 20.1486 29.6403L18.8145 29.7962C18.632 30.4919 18.3584 31.1571 18.0087 31.7806L18.8297 32.8184C19.1338 33.2024 19.0996 33.7498 18.7575 34.0958L17.1573 35.6962C16.8114 36.0422 16.2641 36.0726 15.8802 35.7685L14.873 34.9701C14.2192 35.3541 13.5198 35.6468 12.7863 35.8445L12.6342 37.1484C12.5772 37.635 12.1667 38 11.6802 38H9.41106C8.92454 38 8.51404 37.635 8.45703 37.1484L8.30499 35.8445C7.55241 35.643 6.83404 35.3389 6.16508 34.9397L5.11983 35.7685C4.73594 36.0726 4.1886 36.0384 3.84272 35.6962L2.23874 34.092C1.89285 33.746 1.86245 33.1986 2.16652 32.8146L3.04073 31.7084C2.69105 31.0773 2.42498 30.4044 2.25014 29.7049L0.851404 29.5453C0.364888 29.4882 0 29.0777 0 28.5911V26.3215C0 25.8349 0.364888 25.4243 0.851404 25.3673L2.32612 25.1962ZM10.5475 31.3358C12.6152 31.3358 14.299 29.6517 14.299 27.5836C14.299 25.5155 12.6152 23.8314 10.5475 23.8314C8.47983 23.8314 6.79599 25.5155 6.79599 27.5836C6.79599 29.6517 8.4798 31.3358 10.5475 31.3358Z" fill="#7D6EFF"/>
<path d="M22.883 14.635C23.0338 14.118 23.2431 13.6194 23.5077 13.1517L22.7538 12.2007C22.5077 11.8899 22.5354 11.4467 22.8123 11.1667L24.1107 9.868C24.3907 9.58795 24.8338 9.56336 25.1446 9.80956L26.0892 10.5574C26.5754 10.2773 27.0923 10.0588 27.6307 9.90496L27.7723 8.68936C27.8184 8.29544 28.1508 8 28.5446 8H30.3815C30.7754 8 31.1077 8.29547 31.1538 8.68936L31.2892 9.86188C31.8677 10.0127 32.4215 10.2373 32.9415 10.5297L33.8554 9.80648C34.1661 9.56028 34.6092 9.58798 34.8892 9.86495L36.1877 11.1636C36.4677 11.4437 36.4923 11.8869 36.2462 12.1977L35.5354 13.0994C35.8308 13.6103 36.0615 14.155 36.2154 14.7243L37.3108 14.8505C37.7046 14.8966 38 15.229 38 15.6229V17.4602C38 17.8541 37.7046 18.1865 37.3108 18.2326L36.2308 18.3588C36.083 18.922 35.8615 19.4605 35.5785 19.9652L36.2431 20.8054C36.4893 21.1162 36.4616 21.5594 36.1846 21.8394L34.8893 23.135C34.6093 23.4151 34.1662 23.4397 33.8554 23.1935L33.04 22.5472C32.5108 22.8581 31.9446 23.095 31.3508 23.2551L31.2277 24.3106C31.1816 24.7046 30.8492 25 30.4554 25H28.6185C28.2246 25 27.8923 24.7046 27.8462 24.3106L27.7231 23.2551C27.1139 23.092 26.5323 22.8458 25.9908 22.5226L25.1446 23.1935C24.8339 23.4397 24.3908 23.412 24.1108 23.135L22.8123 21.8364C22.5323 21.5563 22.5077 21.1131 22.7538 20.8023L23.4615 19.9068C23.1785 19.3959 22.9631 18.8512 22.8215 18.2849L21.6892 18.1557C21.2954 18.1095 21 17.7772 21 17.3832V15.546C21 15.1521 21.2954 14.8197 21.6892 14.7735L22.883 14.635ZM29.5384 19.6051C31.2123 19.6051 32.5754 18.2418 32.5754 16.5677C32.5754 14.8935 31.2123 13.5302 29.5384 13.5302C27.8646 13.5302 26.5015 14.8935 26.5015 16.5677C26.5015 18.2418 27.8646 19.6051 29.5384 19.6051Z" fill="#7D6EFF"/>
<path d="M8.55075 5.46413C8.67491 5.03835 8.84722 4.62778 9.06514 4.24255L8.44432 3.45942C8.24161 3.20345 8.26441 2.8385 8.49247 2.60787L9.56179 1.53835C9.79238 1.30772 10.1573 1.28747 10.4132 1.49022L11.1911 2.10608C11.5915 1.87543 12.0172 1.69551 12.4606 1.56879L12.5772 0.567705C12.6152 0.243302 12.8889 0 13.2132 0H14.726C15.0503 0 15.324 0.243328 15.362 0.567705L15.4735 1.53331C15.9499 1.6575 16.406 1.84251 16.8342 2.08327L17.5868 1.48769C17.8427 1.28494 18.2076 1.30775 18.4382 1.53584L19.5075 2.60536C19.7381 2.83599 19.7584 3.20094 19.5557 3.45692L18.9703 4.19949C19.2136 4.62023 19.4036 5.06879 19.5303 5.53765L20.4324 5.64156C20.7568 5.67958 21 5.95329 21 6.2777V7.79073C21 8.11513 20.7567 8.38885 20.4324 8.42687L19.543 8.53078C19.4213 8.99457 19.2389 9.43809 19.0058 9.85373L19.5531 10.5456C19.7559 10.8016 19.7331 11.1665 19.505 11.3972L18.4382 12.4642C18.2076 12.6948 17.8427 12.7151 17.5868 12.5123L16.9153 11.9801C16.4795 12.2361 16.0132 12.4312 15.5242 12.563L15.4228 13.4323C15.3848 13.7567 15.1111 14 14.7868 14H13.274C12.9497 14 12.676 13.7567 12.638 13.4323L12.5367 12.563C12.0349 12.4287 11.556 12.2259 11.1101 11.9598L10.4132 12.5123C10.1573 12.7151 9.7924 12.6923 9.56181 12.4642L8.49249 11.3946C8.2619 11.164 8.24163 10.7991 8.44435 10.5431L9.02715 9.80558C8.79403 9.38487 8.61665 8.93628 8.50009 8.46995L7.5676 8.3635C7.24326 8.32549 7 8.05177 7 7.72737V6.21434C7 5.88993 7.24326 5.61622 7.5676 5.57821L8.55075 5.46413ZM14.0317 9.55718C15.4101 9.55718 16.5327 8.43444 16.5327 7.05573C16.5327 5.67702 15.4101 4.55428 14.0317 4.55428C12.6532 4.55428 11.5307 5.67702 11.5307 7.05573C11.5307 8.43444 12.6532 9.55718 14.0317 9.55718Z" fill="#7D6EFF"/>
<path d="M211.032 23.6919C207.689 23.6919 206.289 22.1919 206.289 18.6728C206.289 15.9228 207.915 13.9229 211.235 13.9229C211.777 13.9229 213.222 13.9805 213.222 13.9805V9.17293C213.697 9.13446 214.171 9.11523 214.577 9.11523C215.39 9.11523 216 9.17293 216 9.17293V23.615C216 23.615 213.313 23.6919 211.032 23.6919ZM211.258 21.6727H213.222V16.0382H211.461C209.857 16.0382 209.135 17.2113 209.135 18.6728C209.135 20.6535 209.677 21.6727 211.258 21.6727Z" fill="#7D6EFF"/>
<path d="M204.506 13.9815V23.6059C204.506 23.6059 202.947 23.7314 200.057 23.7314C197.166 23.7314 195.608 23.3083 195.608 20.866V13.9815C196.082 13.9431 196.556 13.9238 196.963 13.9238C197.776 13.9238 198.386 13.9815 198.386 13.9815V20.5006C198.386 21.366 198.995 21.6545 200.057 21.6545C201.118 21.6545 201.728 21.6545 201.728 21.6545V13.9815C202.202 13.9431 202.654 13.9238 203.06 13.9238C203.873 13.9238 204.506 13.9815 204.506 13.9815Z" fill="#7D6EFF"/>
<path d="M183.814 18.5965C183.814 15.635 184.831 13.9043 188.67 13.9043C192.509 13.9043 193.548 15.635 193.548 18.5965C193.548 21.9234 192.058 23.7311 188.67 23.7311C185.282 23.7311 183.814 21.9234 183.814 18.5965ZM186.547 18.6542C186.547 20.4619 187.089 21.6734 188.67 21.6734C190.251 21.6734 190.816 20.558 190.816 18.7311C190.816 16.9427 190.251 15.9812 188.67 15.9812C187.089 15.9812 186.547 16.8466 186.547 18.6542Z" fill="#7D6EFF"/>
<path d="M179 23.6159V9.67382L181.778 9.17383V23.6159C181.326 23.6544 180.829 23.6736 180.423 23.6736C179.61 23.6736 179 23.6159 179 23.6159Z" fill="#7D6EFF"/>
<path d="M156.29 13.9238C157.916 13.9238 159.203 13.9815 159.203 13.9815C159.203 13.9815 159.271 14.4431 159.271 15.0584C159.271 15.3661 159.249 15.7123 159.203 16.0584H156.177V23.616C156.177 23.616 155.545 23.6737 154.732 23.6737C154.325 23.6737 153.851 23.6544 153.399 23.616V14.0584C153.399 14.0584 154.528 13.9238 156.29 13.9238Z" fill="#7D6EFF"/>
<path d="M151.251 19.6734H144.34C144.34 21.135 145.424 21.6926 146.983 21.6926C148.88 21.6926 150.145 21.1734 150.145 21.1734C150.709 22.1542 150.845 23.1734 150.845 23.1734C150.845 23.1734 149.444 23.7503 146.983 23.7503C143.121 23.7503 141.563 22.0965 141.563 18.7696C141.563 15.5197 143.369 13.9043 146.576 13.9043C149.58 13.9043 151.342 15.712 151.342 18.5388C151.342 19.2311 151.251 19.6734 151.251 19.6734ZM146.576 15.9427C145.041 15.9427 144.408 16.7312 144.386 17.8465H148.428V17.5581C148.428 16.8081 147.931 15.9427 146.576 15.9427Z" fill="#7D6EFF"/>
<path d="M135.448 23.615V11.9228L138.203 11.4229V13.9805H141.094C141.139 14.3074 141.162 14.6536 141.162 14.9613C141.162 15.5766 141.094 16.0574 141.094 16.0574H138.203V23.615C138.203 23.615 137.593 23.6727 136.78 23.6727C136.374 23.6727 135.922 23.6534 135.448 23.615Z" fill="#7D6EFF"/>
<path d="M128.967 13.9043C131.496 13.9043 132.783 14.8274 132.783 14.8274C132.783 14.8274 132.354 15.7697 131.315 16.4043C131.315 16.4043 130.367 15.8658 128.967 15.8658C127.973 15.8658 127.544 16.2504 127.544 16.8273C127.544 17.7696 128.876 17.7504 130.322 17.9235C131.767 18.0965 133.212 18.885 133.212 20.635C133.212 22.7695 131.722 23.7311 128.515 23.7311C125.737 23.7311 124.63 22.7311 124.63 22.7311C124.63 22.7311 125.06 21.808 126.098 21.2119C126.098 21.2119 127.137 21.7696 128.515 21.7696C129.847 21.7696 130.525 21.4042 130.525 20.7119C130.525 19.6542 129.08 19.6927 127.589 19.5581C126.189 19.4234 124.834 18.6542 124.834 16.9042C124.834 14.7889 126.234 13.9043 128.967 13.9043Z" fill="#7D6EFF"/>
<path d="M117.989 16.0584H116.589V23.616C116.589 23.616 115.979 23.6737 115.166 23.6737C114.76 23.6737 114.285 23.6544 113.811 23.616V14.0584C113.811 14.0584 115.731 13.9238 117.989 13.9238C121.58 13.9238 122.709 15.0007 122.709 18.0007V23.616C122.709 23.616 122.099 23.6737 121.286 23.6737C120.88 23.6737 120.406 23.6544 119.931 23.616V17.8276C119.931 16.443 119.457 16.0584 117.989 16.0584Z" fill="#7D6EFF"/>
<path d="M102.019 18.5965C102.019 15.635 103.035 13.9043 106.874 13.9043C110.714 13.9043 111.753 15.635 111.753 18.5965C111.753 21.9234 110.262 23.7311 106.874 23.7311C103.487 23.7311 102.019 21.9234 102.019 18.5965ZM104.752 18.6542C104.752 20.4619 105.294 21.6734 106.874 21.6734C108.455 21.6734 109.02 20.558 109.02 18.7311C109.02 16.9427 108.455 15.9812 106.874 15.9812C105.294 15.9812 104.752 16.8466 104.752 18.6542Z" fill="#7D6EFF"/>
<path d="M91.9787 15.019H92.0691C92.0691 15.019 92.1368 14.6921 94.1242 11.6152L95.7051 9.17293C96.2697 9.13446 97.0827 9.11523 97.6248 9.11523C98.7088 9.11523 99.6347 9.17293 99.6347 9.17293V23.615C99.1379 23.6535 98.6636 23.6727 98.2345 23.6727C97.3763 23.6727 96.7214 23.615 96.7214 23.615L96.7666 12.1536H96.6762C96.6762 12.1536 96.4052 13.019 94.4856 15.8267L92.1594 19.2305H91.8884L89.6074 15.8844C87.7329 13.1344 87.3716 12.1536 87.3716 12.1536H87.2813L87.3264 23.615C87.3264 23.615 86.6715 23.6727 85.8133 23.6727C85.3842 23.6727 84.9099 23.6535 84.4131 23.615V9.17293C85.0003 9.13446 85.723 9.11523 86.265 9.11523C87.349 9.11523 88.3427 9.17293 88.3427 9.17293L90.1269 11.9037C91.8884 14.6151 91.9787 15.019 91.9787 15.019Z" fill="#7D6EFF"/>
<path d="M72.6132 26.9428V14.0584C72.6132 14.0584 74.7586 13.9238 77.3558 13.9238C80.6983 13.9238 82.3469 15.1353 82.3469 18.6738C82.3469 21.616 80.6983 23.6352 76.9267 23.6352C76.4073 23.6352 75.8201 23.616 75.3684 23.5968V26.9428C74.9393 26.9813 74.4876 27.0005 74.0811 27.0005C73.2681 27.0005 72.6132 26.9428 72.6132 26.9428ZM75.3684 16.0584V21.6737H76.9267C78.9593 21.6737 79.5013 20.3083 79.5013 18.6738C79.5013 16.7315 78.9593 16.0584 77.3558 16.0584H75.3684Z" fill="#7D6EFF"/>
<path d="M64.9491 23.6926C62.2391 23.6926 61.2002 22.6542 61.2002 20.7503C61.2002 18.8658 62.2616 17.8081 65.1524 17.8081H67.2301V17.3081C67.2301 16.212 66.3945 15.9812 65.2879 15.9812C63.7974 15.9812 62.3068 16.3658 62.3068 16.3658C62.3068 16.3658 61.9681 15.2889 62.1036 14.2889C62.1036 14.2889 63.2328 13.9043 65.2879 13.9043C68.4271 13.9043 70.008 14.7312 70.008 17.1927V23.6157C70.008 23.6157 67.4334 23.6926 64.9491 23.6926ZM65.175 21.8657C66.0784 21.8657 67.2301 21.808 67.2301 21.808V19.5773L65.3782 19.5581C64.0458 19.5388 63.9103 20.1542 63.9103 20.7503C63.9103 21.3657 64.1135 21.8657 65.175 21.8657Z" fill="#7D6EFF"/>
<path d="M59.7937 22.6049C58.8561 23.3746 57.1941 23.7787 55.4895 23.7787C50.9935 23.7787 48 21.4118 48 16.3509C48 11.2899 50.9935 9 55.4895 9C57.1941 9 58.8561 9.40411 59.7937 10.1738C59.3249 11.2899 58.1743 11.9634 58.1743 11.9634C58.1743 11.9634 57.0876 11.2514 55.4895 11.2514C53.1243 11.2514 50.8552 12.5985 50.8552 16.3509C50.8552 20.1033 53.1243 21.5273 55.4895 21.5273C57.0663 21.5273 58.1743 20.8153 58.1743 20.8153C58.1743 20.8153 59.3249 21.4888 59.7937 22.6049Z" fill="#7D6EFF"/>
<path d="M177.566 22.6049C176.629 23.3746 174.967 23.7787 173.262 23.7787C168.766 23.7787 165.772 21.4118 165.772 16.3509C165.772 11.2899 168.766 9 173.262 9C174.967 9 176.629 9.40411 177.566 10.1738C177.097 11.2899 175.947 11.9634 175.947 11.9634C175.947 11.9634 174.86 11.2514 173.262 11.2514C170.897 11.2514 168.628 12.5985 168.628 16.3509C168.628 20.1033 170.897 21.5273 173.262 21.5273C174.839 21.5273 175.947 20.8153 175.947 20.8153C175.947 20.8153 177.097 21.4888 177.566 22.6049Z" fill="#7D6EFF"/>
<rect x="226" y="5" width="60" height="24" rx="6" fill="#7D6EFF"/>
<path d="M237.8 23H233.675V11.3636H237.835C239.005 11.3636 240.013 11.5966 240.857 12.0625C241.702 12.5246 242.352 13.1894 242.806 14.0568C243.264 14.9242 243.494 15.9621 243.494 17.1705C243.494 18.3826 243.264 19.4242 242.806 20.2955C242.352 21.1667 241.698 21.8352 240.846 22.3011C239.997 22.767 238.982 23 237.8 23ZM236.136 20.892H237.698C238.425 20.892 239.037 20.7633 239.533 20.5057C240.033 20.2443 240.408 19.8409 240.658 19.2955C240.912 18.7462 241.039 18.0379 241.039 17.1705C241.039 16.3106 240.912 15.608 240.658 15.0625C240.408 14.517 240.035 14.1155 239.539 13.858C239.043 13.6004 238.431 13.4716 237.704 13.4716H236.136V20.892ZM256.009 17.1818C256.009 18.4508 255.769 19.5303 255.288 20.4205C254.81 21.3106 254.159 21.9905 253.333 22.4602C252.511 22.9261 251.587 23.1591 250.56 23.1591C249.526 23.1591 248.598 22.9242 247.776 22.4545C246.954 21.9848 246.305 21.3049 245.827 20.4148C245.35 19.5246 245.112 18.447 245.112 17.1818C245.112 15.9129 245.35 14.8333 245.827 13.9432C246.305 13.053 246.954 12.375 247.776 11.9091C248.598 11.4394 249.526 11.2045 250.56 11.2045C251.587 11.2045 252.511 11.4394 253.333 11.9091C254.159 12.375 254.81 13.053 255.288 13.9432C255.769 14.8333 256.009 15.9129 256.009 17.1818ZM253.515 17.1818C253.515 16.3598 253.392 15.6667 253.146 15.1023C252.903 14.5379 252.56 14.1098 252.117 13.8182C251.674 13.5265 251.155 13.3807 250.56 13.3807C249.966 13.3807 249.447 13.5265 249.004 13.8182C248.56 14.1098 248.216 14.5379 247.969 15.1023C247.727 15.6667 247.606 16.3598 247.606 17.1818C247.606 18.0038 247.727 18.697 247.969 19.2614C248.216 19.8258 248.56 20.2538 249.004 20.5455C249.447 20.8371 249.966 20.983 250.56 20.983C251.155 20.983 251.674 20.8371 252.117 20.5455C252.56 20.2538 252.903 19.8258 253.146 19.2614C253.392 18.697 253.515 18.0038 253.515 17.1818ZM268.099 15.4375H265.61C265.565 15.1155 265.472 14.8295 265.332 14.5795C265.192 14.3258 265.012 14.1098 264.792 13.9318C264.572 13.7538 264.318 13.6174 264.031 13.5227C263.746 13.428 263.438 13.3807 263.104 13.3807C262.502 13.3807 261.978 13.5303 261.531 13.8295C261.084 14.125 260.737 14.5568 260.491 15.125C260.245 15.6894 260.121 16.375 260.121 17.1818C260.121 18.0114 260.245 18.7083 260.491 19.2727C260.741 19.8371 261.089 20.2633 261.536 20.5511C261.983 20.839 262.5 20.983 263.087 20.983C263.417 20.983 263.722 20.9394 264.002 20.8523C264.286 20.7652 264.538 20.6383 264.758 20.4716C264.978 20.3011 265.159 20.0947 265.303 19.8523C265.451 19.6098 265.553 19.3333 265.61 19.0227L268.099 19.0341C268.034 19.5682 267.873 20.0833 267.616 20.5795C267.362 21.072 267.019 21.5133 266.587 21.9034C266.159 22.2898 265.648 22.5966 265.053 22.8239C264.462 23.0473 263.794 23.1591 263.048 23.1591C262.01 23.1591 261.082 22.9242 260.263 22.4545C259.449 21.9848 258.805 21.3049 258.332 20.4148C257.862 19.5246 257.627 18.447 257.627 17.1818C257.627 15.9129 257.866 14.8333 258.343 13.9432C258.82 13.053 259.468 12.375 260.286 11.9091C261.104 11.4394 262.025 11.2045 263.048 11.2045C263.722 11.2045 264.347 11.2992 264.923 11.4886C265.502 11.678 266.015 11.9545 266.462 12.3182C266.909 12.678 267.273 13.1193 267.553 13.642C267.837 14.1648 268.019 14.7633 268.099 15.4375ZM276.175 14.7102C276.13 14.2519 275.935 13.8958 275.59 13.642C275.246 13.3883 274.778 13.2614 274.187 13.2614C273.785 13.2614 273.446 13.3182 273.17 13.4318C272.893 13.5417 272.681 13.6951 272.533 13.892C272.389 14.089 272.317 14.3125 272.317 14.5625C272.31 14.7708 272.353 14.9527 272.448 15.108C272.547 15.2633 272.681 15.3977 272.852 15.5114C273.022 15.6212 273.219 15.7178 273.442 15.8011C273.666 15.8807 273.905 15.9489 274.158 16.0057L275.204 16.2557C275.711 16.3693 276.177 16.5208 276.602 16.7102C277.026 16.8996 277.393 17.1326 277.704 17.4091C278.014 17.6856 278.255 18.0114 278.425 18.3864C278.6 18.7614 278.689 19.1913 278.692 19.6761C278.689 20.3883 278.507 21.0057 278.147 21.5284C277.791 22.0473 277.276 22.4508 276.602 22.7386C275.931 23.0227 275.122 23.1648 274.175 23.1648C273.236 23.1648 272.418 23.0208 271.721 22.733C271.028 22.4451 270.486 22.0189 270.096 21.4545C269.71 20.8864 269.507 20.1837 269.488 19.3466H271.869C271.895 19.7367 272.007 20.0625 272.204 20.3239C272.405 20.5814 272.672 20.7765 273.005 20.9091C273.342 21.0379 273.723 21.1023 274.147 21.1023C274.564 21.1023 274.925 21.0417 275.232 20.9205C275.543 20.7992 275.783 20.6307 275.954 20.4148C276.124 20.1989 276.21 19.9508 276.21 19.6705C276.21 19.4091 276.132 19.1894 275.977 19.0114C275.825 18.8333 275.602 18.6818 275.306 18.5568C275.014 18.4318 274.656 18.3182 274.232 18.2159L272.965 17.8977C271.984 17.6591 271.21 17.286 270.641 16.7784C270.073 16.2708 269.791 15.5871 269.795 14.7273C269.791 14.0227 269.978 13.4072 270.357 12.8807C270.74 12.3542 271.264 11.9432 271.931 11.6477C272.598 11.3523 273.355 11.2045 274.204 11.2045C275.067 11.2045 275.821 11.3523 276.465 11.6477C277.113 11.9432 277.617 12.3542 277.977 12.8807C278.336 13.4072 278.522 14.017 278.533 14.7102H276.175Z" fill="white"/>
</svg>
