<svg width="308" height="41" viewBox="0 0 308 41" fill="none" xmlns="http://www.w3.org/2000/svg">
<path d="M2.48226 26.1998C2.681 25.5114 2.95682 24.8476 3.30564 24.2247L2.3119 22.9585C1.98742 22.5447 2.02393 21.9546 2.38897 21.5817L4.10062 19.8525C4.46972 19.4796 5.05379 19.4468 5.46345 19.7746L6.70866 20.7704C7.34951 20.3975 8.03093 20.1066 8.74074 19.9017L8.92731 18.2831C8.98815 17.7586 9.42621 17.3652 9.94538 17.3652H12.3668C12.886 17.3652 13.3241 17.7586 13.3849 18.2831L13.5634 19.8443C14.3259 20.0451 15.056 20.3442 15.7415 20.7335L16.9461 19.7705C17.3558 19.4427 17.9398 19.4796 18.3089 19.8484L20.0206 21.5776C20.3897 21.9505 20.4221 22.5406 20.0977 22.9545L19.1607 24.1551C19.5501 24.8354 19.8543 25.5606 20.0571 26.3187L21.5011 26.4867C22.0203 26.5482 22.4096 26.9907 22.4096 27.5152V29.9616C22.4096 30.4861 22.0202 30.9286 21.5011 30.9901L20.0774 31.1581C19.8826 31.908 19.5907 32.6251 19.2175 33.2971L20.0936 34.4158C20.4181 34.8297 20.3816 35.4197 20.0166 35.7926L18.309 37.5178C17.9399 37.8907 17.3558 37.9234 16.9462 37.5956L15.8713 36.7351C15.1737 37.149 14.4273 37.4645 13.6445 37.6776L13.4823 39.0831C13.4215 39.6076 12.9834 40.001 12.4642 40.001H10.0428C9.52359 40.001 9.08554 39.6076 9.0247 39.0831L8.86246 37.6776C8.05936 37.4604 7.29277 37.1326 6.5789 36.7023L5.46349 37.5956C5.05383 37.9234 4.46976 37.8866 4.10066 37.5178L2.38901 35.7885C2.01991 35.4156 1.98746 34.8256 2.31195 34.4117L3.24484 33.2193C2.87168 32.539 2.58776 31.8137 2.40118 31.0598L0.908554 30.8877C0.38938 30.8262 0 30.3836 0 29.8591V27.4128C0 26.8883 0.38938 26.4457 0.908554 26.3843L2.48226 26.1998ZM11.2555 32.8176C13.462 32.8176 15.2588 31.0023 15.2588 28.7732C15.2588 26.544 13.462 24.7287 11.2555 24.7287C9.04904 24.7287 7.25217 26.544 7.25217 28.7732C7.25217 31.0023 9.04899 32.8176 11.2555 32.8176Z" fill="white"/>
<path d="M37.3843 24.4864L36.1066 25.5764C35.7132 25.9124 35.1332 25.896 34.76 25.5395L34.0543 24.8716C33.4581 25.1625 32.8254 25.3674 32.1723 25.4862L31.9736 26.4697C31.8722 26.9778 31.4058 27.3302 30.8946 27.2892L29.2276 27.1458C28.7165 27.1007 28.315 26.6787 28.2988 26.1583L28.2664 25.1584C27.6255 24.9249 27.0211 24.6052 26.4695 24.2037L25.6259 24.7691C25.1959 25.056 24.624 24.974 24.2914 24.5766L23.2125 23.2776C22.8799 22.8801 22.8961 22.2941 23.249 21.9171L23.9872 21.1222C23.7316 20.5403 23.5491 19.9297 23.4437 19.3028L22.3891 19.0857C21.8862 18.9832 21.5373 18.512 21.5779 17.9956L21.7199 16.3115C21.7645 15.7952 22.1823 15.3895 22.6974 15.3731L23.8371 15.3362C24.0441 14.7872 24.3158 14.2667 24.6443 13.7791L24.0075 12.808C23.7236 12.3736 23.8047 11.7958 24.1981 11.4598L25.4758 10.3698C25.8692 10.0338 26.4492 10.0502 26.8224 10.4067L27.658 11.1976C28.2055 10.9394 28.7814 10.7468 29.3736 10.6321L29.6049 9.47652C29.7063 8.96841 30.1727 8.616 30.6838 8.65698L32.3508 8.8004C32.8619 8.84548 33.2634 9.2675 33.2796 9.78795L33.3161 10.919C33.9245 11.1361 34.5005 11.4312 35.0318 11.7958L35.9526 11.1812C36.3825 10.8943 36.9544 10.9763 37.287 11.3738L38.3659 12.6645C38.6985 13.062 38.6822 13.648 38.3294 14.025L37.5871 14.8199C37.8589 15.4018 38.0577 16.0164 38.1712 16.6475L39.1852 16.8565C39.6881 16.9589 40.037 17.4302 39.9964 17.9465L39.8544 19.6307C39.8098 20.147 39.392 20.5527 38.8769 20.5691L37.8589 20.6019C37.6479 21.2001 37.364 21.7656 37.0112 22.2901L37.5668 23.1342C37.8589 23.5685 37.7777 24.1504 37.3843 24.4864ZM31.1015 14.7503C29.3007 14.5945 27.7106 15.9509 27.5606 17.7703C27.4064 19.5896 28.749 21.196 30.5498 21.3476C32.3507 21.5033 33.9408 20.1469 34.0908 18.3276C34.245 16.5082 32.9023 14.9018 31.1015 14.7503Z" fill="white"/>
<path d="M8.31123 9.13835C7.80017 9.08508 7.40673 8.65077 7.40268 8.13031L7.39051 7.09359C7.3824 6.57318 7.76366 6.13063 8.27473 6.06502L9.02915 5.96672C9.15489 5.50364 9.33335 5.06109 9.56455 4.64312L9.07782 4.03665C8.75334 3.63102 8.77767 3.04911 9.13866 2.67621L9.85658 1.93453C10.2176 1.56163 10.7935 1.52066 11.2032 1.84028L11.8075 2.31152C12.2334 2.05746 12.6836 1.85663 13.1541 1.71735L13.2352 0.930585C13.288 0.414273 13.7179 0.0167957 14.233 0.0126978L15.2592 0.000403023C15.7743 -0.00779285 16.2124 0.377395 16.2773 0.893707L16.3706 1.63949C16.8817 1.76656 17.3684 1.95911 17.8308 2.21317L18.3986 1.75013C18.8002 1.42231 19.3762 1.4469 19.7453 1.81159L20.4794 2.53689C20.8485 2.90155 20.8891 3.48346 20.5727 3.89733L20.1386 4.46696C20.4063 4.91771 20.6132 5.39714 20.7552 5.90116L21.4285 5.97082C21.9396 6.02409 22.333 6.45845 22.3371 6.97886L22.3492 8.01562C22.3573 8.53599 21.9761 8.97858 21.465 9.04415L20.8079 9.1302C20.6822 9.63012 20.4956 10.1136 20.2523 10.5644L20.6619 11.0725C20.9864 11.4782 20.9621 12.0601 20.6011 12.4329L19.8832 13.1746C19.5222 13.5476 18.9462 13.5885 18.5366 13.2689L18.0457 12.8878C17.5834 13.1705 17.0885 13.3877 16.5694 13.5352L16.5044 14.1786C16.4517 14.6949 16.0218 15.0924 15.5066 15.0965L14.4805 15.1088C13.9654 15.117 13.5273 14.7318 13.4624 14.2155L13.3812 13.5762C12.8459 13.4369 12.3308 13.2238 11.8522 12.9452L11.3451 13.3631C10.9436 13.6909 10.3676 13.6663 9.9985 13.3017L9.2603 12.5722C8.8912 12.2076 8.85064 11.6257 9.16701 11.2118L9.60101 10.6463C9.34954 10.1956 9.15079 9.71617 9.021 9.21211L8.31123 9.13835ZM14.9347 10.3103C16.4071 10.2939 17.5874 9.06869 17.5712 7.58122C17.5549 6.09375 16.3422 4.90136 14.8698 4.91771C13.3975 4.9341 12.2172 6.15931 12.2334 7.64683C12.2496 9.13426 13.4624 10.3267 14.9347 10.3103Z" fill="white"/>
<path d="M57.92 27.281C55.6667 27.281 53.9467 26.6543 52.76 25.401C51.5867 24.1476 51 22.3676 51 20.061C51 18.9143 51.18 17.8943 51.54 17.001C51.9 16.0943 52.3933 15.3343 53.02 14.721C53.6467 14.0943 54.3933 13.621 55.26 13.301C56.1267 12.981 57.0667 12.821 58.08 12.821C58.6667 12.821 59.2 12.8676 59.68 12.961C60.16 13.041 60.58 13.141 60.94 13.261C61.3 13.3676 61.6 13.481 61.84 13.601C62.08 13.721 62.2533 13.8143 62.36 13.881L61.46 16.401C61.0333 16.1743 60.5333 15.981 59.96 15.821C59.4 15.661 58.76 15.581 58.04 15.581C57.56 15.581 57.0867 15.661 56.62 15.821C56.1667 15.981 55.76 16.241 55.4 16.601C55.0533 16.9476 54.7733 17.401 54.56 17.961C54.3467 18.521 54.24 19.201 54.24 20.001C54.24 20.641 54.3067 21.241 54.44 21.801C54.5867 22.3476 54.8133 22.821 55.12 23.221C55.44 23.621 55.8533 23.941 56.36 24.181C56.8667 24.4076 57.48 24.521 58.2 24.521C58.6533 24.521 59.06 24.4943 59.42 24.441C59.78 24.3876 60.1 24.3276 60.38 24.261C60.66 24.181 60.9067 24.0943 61.12 24.001C61.3333 23.9076 61.5267 23.821 61.7 23.741L62.56 26.241C62.12 26.5076 61.5 26.7476 60.7 26.961C59.9 27.1743 58.9733 27.281 57.92 27.281ZM68.5841 24.921C68.8774 24.921 69.1574 24.9143 69.4241 24.901C69.6907 24.8876 69.9041 24.8676 70.0641 24.841V22.581C69.9441 22.5543 69.7641 22.5276 69.5241 22.501C69.2841 22.4743 69.0641 22.461 68.8641 22.461C68.5841 22.461 68.3174 22.481 68.0641 22.521C67.8241 22.5476 67.6107 22.6076 67.4241 22.701C67.2374 22.7943 67.0907 22.921 66.9841 23.081C66.8774 23.241 66.8241 23.441 66.8241 23.681C66.8241 24.1476 66.9774 24.4743 67.2841 24.661C67.6041 24.8343 68.0374 24.921 68.5841 24.921ZM68.3441 16.201C69.2241 16.201 69.9574 16.301 70.5441 16.501C71.1307 16.701 71.5974 16.9876 71.9441 17.361C72.3041 17.7343 72.5574 18.1876 72.7041 18.721C72.8507 19.2543 72.9241 19.8476 72.9241 20.501V26.701C72.4974 26.7943 71.9041 26.901 71.1441 27.021C70.3841 27.1543 69.4641 27.221 68.3841 27.221C67.7041 27.221 67.0841 27.161 66.5241 27.041C65.9774 26.921 65.5041 26.7276 65.1041 26.461C64.7041 26.181 64.3974 25.821 64.1841 25.381C63.9707 24.941 63.8641 24.401 63.8641 23.761C63.8641 23.1476 63.9841 22.6276 64.2241 22.201C64.4774 21.7743 64.8107 21.4343 65.2241 21.181C65.6374 20.9276 66.1107 20.7476 66.6441 20.641C67.1774 20.521 67.7307 20.461 68.3041 20.461C68.6907 20.461 69.0307 20.481 69.3241 20.521C69.6307 20.5476 69.8774 20.5876 70.0641 20.641V20.361C70.0641 19.8543 69.9107 19.4476 69.6041 19.141C69.2974 18.8343 68.7641 18.681 68.0041 18.681C67.4974 18.681 66.9974 18.721 66.5041 18.801C66.0107 18.8676 65.5841 18.9676 65.2241 19.101L64.8441 16.701C65.0174 16.6476 65.2307 16.5943 65.4841 16.541C65.7507 16.4743 66.0374 16.421 66.3441 16.381C66.6507 16.3276 66.9707 16.2876 67.3041 16.261C67.6507 16.221 67.9974 16.201 68.3441 16.201ZM82.3588 21.821C82.3588 20.901 82.1521 20.1676 81.7388 19.621C81.3254 19.061 80.7121 18.781 79.8988 18.781C79.6321 18.781 79.3854 18.7943 79.1588 18.821C78.9321 18.8343 78.7454 18.8543 78.5988 18.881V24.261C78.7854 24.381 79.0254 24.481 79.3188 24.561C79.6254 24.641 79.9321 24.681 80.2388 24.681C81.6521 24.681 82.3588 23.7276 82.3588 21.821ZM85.3988 21.741C85.3988 22.5543 85.2988 23.2943 85.0988 23.961C84.8988 24.6276 84.6054 25.201 84.2188 25.681C83.8321 26.161 83.3521 26.5343 82.7788 26.801C82.2054 27.0676 81.5454 27.201 80.7988 27.201C80.3854 27.201 79.9988 27.161 79.6388 27.081C79.2788 27.001 78.9321 26.8876 78.5988 26.741V30.701H75.6188V16.841C75.8854 16.761 76.1921 16.6876 76.5388 16.621C76.8854 16.541 77.2454 16.4743 77.6188 16.421C78.0054 16.3676 78.3921 16.3276 78.7788 16.301C79.1788 16.261 79.5588 16.241 79.9188 16.241C80.7854 16.241 81.5588 16.3743 82.2388 16.641C82.9188 16.8943 83.4921 17.261 83.9588 17.741C84.4254 18.2076 84.7788 18.781 85.0188 19.461C85.2721 20.141 85.3988 20.901 85.3988 21.741ZM91.5691 13.141C91.8091 13.581 92.0824 14.1276 92.3891 14.781C92.7091 15.421 93.0357 16.121 93.3691 16.881C93.7157 17.6276 94.0557 18.3943 94.3891 19.181C94.7224 19.9676 95.0357 20.7076 95.3291 21.401C95.6224 20.7076 95.9357 19.9676 96.2691 19.181C96.6024 18.3943 96.9357 17.6276 97.2691 16.881C97.6157 16.121 97.9424 15.421 98.2491 14.781C98.5691 14.1276 98.8491 13.581 99.0891 13.141H101.929C102.062 14.061 102.182 15.0943 102.289 16.241C102.409 17.3743 102.509 18.561 102.589 19.801C102.682 21.0276 102.762 22.261 102.829 23.501C102.909 24.741 102.976 25.9076 103.029 27.001H99.9891C99.9491 25.6543 99.8957 24.1876 99.8291 22.601C99.7624 21.0143 99.6624 19.4143 99.5291 17.801C99.2891 18.361 99.0224 18.981 98.7291 19.661C98.4357 20.341 98.1424 21.021 97.8491 21.701C97.5691 22.381 97.2957 23.0343 97.0291 23.661C96.7624 24.2743 96.5357 24.801 96.3491 25.241H94.1691C93.9824 24.801 93.7557 24.2743 93.4891 23.661C93.2224 23.0343 92.9424 22.381 92.6491 21.701C92.3691 21.021 92.0824 20.341 91.7891 19.661C91.4957 18.981 91.2291 18.361 90.9891 17.801C90.8557 19.4143 90.7557 21.0143 90.6891 22.601C90.6224 24.1876 90.5691 25.6543 90.5291 27.001H87.4891C87.5424 25.9076 87.6024 24.741 87.6691 23.501C87.7491 22.261 87.8291 21.0276 87.9091 19.801C88.0024 18.561 88.1024 17.3743 88.2091 16.241C88.3291 15.0943 88.4557 14.061 88.5891 13.141H91.5691ZM115.478 21.721C115.478 22.5476 115.358 23.3076 115.118 24.001C114.878 24.681 114.532 25.2676 114.078 25.761C113.625 26.241 113.078 26.6143 112.438 26.881C111.812 27.1476 111.105 27.281 110.318 27.281C109.545 27.281 108.838 27.1476 108.198 26.881C107.572 26.6143 107.032 26.241 106.578 25.761C106.125 25.2676 105.772 24.681 105.518 24.001C105.265 23.3076 105.138 22.5476 105.138 21.721C105.138 20.8943 105.265 20.141 105.518 19.461C105.785 18.781 106.145 18.201 106.598 17.721C107.065 17.241 107.612 16.8676 108.238 16.601C108.878 16.3343 109.572 16.201 110.318 16.201C111.078 16.201 111.772 16.3343 112.398 16.601C113.038 16.8676 113.585 17.241 114.038 17.721C114.492 18.201 114.845 18.781 115.098 19.461C115.352 20.141 115.478 20.8943 115.478 21.721ZM112.438 21.721C112.438 20.801 112.252 20.081 111.878 19.561C111.518 19.0276 110.998 18.761 110.318 18.761C109.638 18.761 109.112 19.0276 108.738 19.561C108.365 20.081 108.178 20.801 108.178 21.721C108.178 22.641 108.365 23.3743 108.738 23.921C109.112 24.4543 109.638 24.721 110.318 24.721C110.998 24.721 111.518 24.4543 111.878 23.921C112.252 23.3743 112.438 22.641 112.438 21.721ZM117.787 16.841C118.293 16.6943 118.947 16.561 119.747 16.441C120.547 16.3076 121.387 16.241 122.267 16.241C123.16 16.241 123.9 16.361 124.487 16.601C125.087 16.8276 125.56 17.1543 125.907 17.581C126.253 18.0076 126.5 18.5143 126.647 19.101C126.793 19.6876 126.867 20.341 126.867 21.061V27.001H123.887V21.421C123.887 20.461 123.76 19.781 123.507 19.381C123.253 18.981 122.78 18.781 122.087 18.781C121.873 18.781 121.647 18.7943 121.407 18.821C121.167 18.8343 120.953 18.8543 120.767 18.881V27.001H117.787V16.841ZM132.584 24.861C133.131 24.861 133.517 24.8076 133.744 24.701C133.971 24.5943 134.084 24.3876 134.084 24.081C134.084 23.841 133.937 23.6343 133.644 23.461C133.351 23.2743 132.904 23.0676 132.304 22.841C131.837 22.6676 131.411 22.4876 131.024 22.301C130.651 22.1143 130.331 21.8943 130.064 21.641C129.797 21.3743 129.591 21.061 129.444 20.701C129.297 20.341 129.224 19.9076 129.224 19.401C129.224 18.4143 129.591 17.6343 130.324 17.061C131.057 16.4876 132.064 16.201 133.344 16.201C133.984 16.201 134.597 16.261 135.184 16.381C135.771 16.4876 136.237 16.6076 136.584 16.741L136.064 19.061C135.717 18.941 135.337 18.8343 134.924 18.741C134.524 18.6476 134.071 18.601 133.564 18.601C132.631 18.601 132.164 18.861 132.164 19.381C132.164 19.501 132.184 19.6076 132.224 19.701C132.264 19.7943 132.344 19.8876 132.464 19.981C132.584 20.061 132.744 20.1543 132.944 20.261C133.157 20.3543 133.424 20.461 133.744 20.581C134.397 20.821 134.937 21.061 135.364 21.301C135.791 21.5276 136.124 21.781 136.364 22.061C136.617 22.3276 136.791 22.6276 136.884 22.961C136.991 23.2943 137.044 23.681 137.044 24.121C137.044 25.161 136.651 25.9476 135.864 26.481C135.091 27.0143 133.991 27.281 132.564 27.281C131.631 27.281 130.851 27.201 130.224 27.041C129.611 26.881 129.184 26.7476 128.944 26.641L129.444 24.221C129.951 24.421 130.471 24.581 131.004 24.701C131.537 24.8076 132.064 24.861 132.584 24.861ZM139.171 13.861L142.151 13.381V16.481H145.731V18.961H142.151V22.661C142.151 23.2876 142.258 23.7876 142.471 24.161C142.698 24.5343 143.144 24.721 143.811 24.721C144.131 24.721 144.458 24.6943 144.791 24.641C145.138 24.5743 145.451 24.4876 145.731 24.381L146.151 26.701C145.791 26.8476 145.391 26.9743 144.951 27.081C144.511 27.1876 143.971 27.241 143.331 27.241C142.518 27.241 141.844 27.1343 141.311 26.921C140.778 26.6943 140.351 26.3876 140.031 26.001C139.711 25.601 139.484 25.121 139.351 24.561C139.231 24.001 139.171 23.381 139.171 22.701V13.861ZM147.267 21.821C147.267 20.8876 147.407 20.0743 147.687 19.381C147.981 18.6743 148.361 18.0876 148.827 17.621C149.294 17.1543 149.827 16.801 150.427 16.561C151.041 16.321 151.667 16.201 152.307 16.201C153.801 16.201 154.981 16.661 155.847 17.581C156.714 18.4876 157.147 19.8276 157.147 21.601C157.147 21.7743 157.141 21.9676 157.127 22.181C157.114 22.381 157.101 22.561 157.087 22.721H150.327C150.394 23.3343 150.681 23.821 151.187 24.181C151.694 24.541 152.374 24.721 153.227 24.721C153.774 24.721 154.307 24.6743 154.827 24.581C155.361 24.4743 155.794 24.3476 156.127 24.201L156.527 26.621C156.367 26.701 156.154 26.781 155.887 26.861C155.621 26.941 155.321 27.0076 154.987 27.061C154.667 27.1276 154.321 27.181 153.947 27.221C153.574 27.261 153.201 27.281 152.827 27.281C151.881 27.281 151.054 27.141 150.347 26.861C149.654 26.581 149.074 26.201 148.607 25.721C148.154 25.2276 147.814 24.6476 147.587 23.981C147.374 23.3143 147.267 22.5943 147.267 21.821ZM154.267 20.681C154.254 20.4276 154.207 20.181 154.127 19.941C154.061 19.701 153.947 19.4876 153.787 19.301C153.641 19.1143 153.447 18.961 153.207 18.841C152.981 18.721 152.694 18.661 152.347 18.661C152.014 18.661 151.727 18.721 151.487 18.841C151.247 18.9476 151.047 19.0943 150.887 19.281C150.727 19.4676 150.601 19.6876 150.507 19.941C150.427 20.181 150.367 20.4276 150.327 20.681H154.267ZM165.787 19.121C165.52 19.0543 165.207 18.9876 164.847 18.921C164.487 18.841 164.1 18.801 163.687 18.801C163.5 18.801 163.274 18.821 163.007 18.861C162.754 18.8876 162.56 18.921 162.427 18.961V27.001H159.447V17.041C159.98 16.8543 160.607 16.681 161.327 16.521C162.06 16.3476 162.874 16.261 163.767 16.261C163.927 16.261 164.12 16.2743 164.347 16.301C164.574 16.3143 164.8 16.341 165.027 16.381C165.254 16.4076 165.48 16.4476 165.707 16.501C165.934 16.541 166.127 16.5943 166.287 16.661L165.787 19.121ZM179.209 27.281C176.956 27.281 175.236 26.6543 174.049 25.401C172.876 24.1476 172.289 22.3676 172.289 20.061C172.289 18.9143 172.469 17.8943 172.829 17.001C173.189 16.0943 173.682 15.3343 174.309 14.721C174.936 14.0943 175.682 13.621 176.549 13.301C177.416 12.981 178.356 12.821 179.369 12.821C179.956 12.821 180.489 12.8676 180.969 12.961C181.449 13.041 181.869 13.141 182.229 13.261C182.589 13.3676 182.889 13.481 183.129 13.601C183.369 13.721 183.542 13.8143 183.649 13.881L182.749 16.401C182.322 16.1743 181.822 15.981 181.249 15.821C180.689 15.661 180.049 15.581 179.329 15.581C178.849 15.581 178.376 15.661 177.909 15.821C177.456 15.981 177.049 16.241 176.689 16.601C176.342 16.9476 176.062 17.401 175.849 17.961C175.636 18.521 175.529 19.201 175.529 20.001C175.529 20.641 175.596 21.241 175.729 21.801C175.876 22.3476 176.102 22.821 176.409 23.221C176.729 23.621 177.142 23.941 177.649 24.181C178.156 24.4076 178.769 24.521 179.489 24.521C179.942 24.521 180.349 24.4943 180.709 24.441C181.069 24.3876 181.389 24.3276 181.669 24.261C181.949 24.181 182.196 24.0943 182.409 24.001C182.622 23.9076 182.816 23.821 182.989 23.741L183.849 26.241C183.409 26.5076 182.789 26.7476 181.989 26.961C181.189 27.1743 180.262 27.281 179.209 27.281ZM189.858 27.201C188.991 27.1876 188.284 27.0943 187.738 26.921C187.204 26.7476 186.778 26.5076 186.458 26.201C186.151 25.881 185.938 25.501 185.818 25.061C185.711 24.6076 185.658 24.101 185.658 23.541V11.961L188.638 11.481V22.941C188.638 23.2076 188.658 23.4476 188.698 23.661C188.738 23.8743 188.811 24.0543 188.918 24.201C189.038 24.3476 189.204 24.4676 189.418 24.561C189.631 24.6543 189.918 24.7143 190.278 24.741L189.858 27.201ZM201.826 21.721C201.826 22.5476 201.706 23.3076 201.466 24.001C201.226 24.681 200.879 25.2676 200.426 25.761C199.973 26.241 199.426 26.6143 198.786 26.881C198.159 27.1476 197.453 27.281 196.666 27.281C195.893 27.281 195.186 27.1476 194.546 26.881C193.919 26.6143 193.379 26.241 192.926 25.761C192.473 25.2676 192.119 24.681 191.866 24.001C191.613 23.3076 191.486 22.5476 191.486 21.721C191.486 20.8943 191.613 20.141 191.866 19.461C192.133 18.781 192.493 18.201 192.946 17.721C193.413 17.241 193.959 16.8676 194.586 16.601C195.226 16.3343 195.919 16.201 196.666 16.201C197.426 16.201 198.119 16.3343 198.746 16.601C199.386 16.8676 199.933 17.241 200.386 17.721C200.839 18.201 201.193 18.781 201.446 19.461C201.699 20.141 201.826 20.8943 201.826 21.721ZM198.786 21.721C198.786 20.801 198.599 20.081 198.226 19.561C197.866 19.0276 197.346 18.761 196.666 18.761C195.986 18.761 195.459 19.0276 195.086 19.561C194.713 20.081 194.526 20.801 194.526 21.721C194.526 22.641 194.713 23.3743 195.086 23.921C195.459 24.4543 195.986 24.721 196.666 24.721C197.346 24.721 197.866 24.4543 198.226 23.921C198.599 23.3743 198.786 22.641 198.786 21.721ZM213.114 26.641C212.608 26.7876 211.954 26.921 211.154 27.041C210.354 27.1743 209.514 27.241 208.634 27.241C207.741 27.241 206.994 27.121 206.394 26.881C205.808 26.641 205.341 26.3076 204.994 25.881C204.648 25.441 204.401 24.921 204.254 24.321C204.108 23.721 204.034 23.061 204.034 22.341V16.481H207.014V21.981C207.014 22.941 207.141 23.6343 207.394 24.061C207.648 24.4876 208.121 24.701 208.814 24.701C209.028 24.701 209.254 24.6943 209.494 24.681C209.734 24.6543 209.948 24.6276 210.134 24.601V16.481H213.114V26.641ZM218.452 21.661C218.452 22.581 218.658 23.321 219.072 23.881C219.485 24.441 220.098 24.721 220.912 24.721C221.178 24.721 221.425 24.7143 221.652 24.701C221.878 24.6743 222.065 24.6476 222.212 24.621V19.201C222.025 19.081 221.778 18.981 221.472 18.901C221.178 18.821 220.878 18.781 220.572 18.781C219.158 18.781 218.452 19.741 218.452 21.661ZM225.192 26.661C224.925 26.741 224.618 26.821 224.272 26.901C223.925 26.9676 223.558 27.0276 223.172 27.081C222.798 27.1343 222.412 27.1743 222.012 27.201C221.625 27.241 221.252 27.261 220.892 27.261C220.025 27.261 219.252 27.1343 218.572 26.881C217.892 26.6276 217.318 26.2676 216.852 25.801C216.385 25.321 216.025 24.7476 215.772 24.081C215.532 23.401 215.412 22.641 215.412 21.801C215.412 20.9476 215.518 20.181 215.732 19.501C215.945 18.8076 216.252 18.221 216.652 17.741C217.052 17.261 217.538 16.8943 218.112 16.641C218.698 16.3876 219.365 16.261 220.112 16.261C220.525 16.261 220.892 16.301 221.212 16.381C221.545 16.461 221.878 16.5743 222.212 16.721V11.961L225.192 11.481V26.661Z" fill="white"/>
<rect x="239" y="7" width="69" height="27" rx="5" fill="#4682E6"/>
<path d="M257.508 26H255.031L255.047 24.1719H257.508C258.122 24.1719 258.641 24.0339 259.062 23.7578C259.484 23.4766 259.802 23.0677 260.016 22.5312C260.234 21.9948 260.344 21.3464 260.344 20.5859V20.0312C260.344 19.4479 260.281 18.9349 260.156 18.4922C260.036 18.0495 259.857 17.6771 259.617 17.375C259.378 17.0729 259.083 16.8464 258.734 16.6953C258.385 16.5391 257.984 16.4609 257.531 16.4609H254.984V14.625H257.531C258.292 14.625 258.987 14.7552 259.617 15.0156C260.253 15.2708 260.802 15.638 261.266 16.1172C261.729 16.5964 262.086 17.1693 262.336 17.8359C262.591 18.4974 262.719 19.2344 262.719 20.0469V20.5859C262.719 21.3932 262.591 22.1302 262.336 22.7969C262.086 23.4635 261.729 24.0365 261.266 24.5156C260.807 24.9896 260.258 25.3568 259.617 25.6172C258.982 25.8724 258.279 26 257.508 26ZM256.359 14.625V26H254.016V14.625H256.359ZM273.766 20.0469V20.5859C273.766 21.4505 273.648 22.2266 273.414 22.9141C273.18 23.6016 272.849 24.1875 272.422 24.6719C271.995 25.151 271.484 25.5182 270.891 25.7734C270.302 26.0286 269.648 26.1562 268.93 26.1562C268.216 26.1562 267.562 26.0286 266.969 25.7734C266.38 25.5182 265.87 25.151 265.438 24.6719C265.005 24.1875 264.669 23.6016 264.43 22.9141C264.195 22.2266 264.078 21.4505 264.078 20.5859V20.0469C264.078 19.1771 264.195 18.401 264.43 17.7188C264.664 17.0312 264.995 16.4453 265.422 15.9609C265.854 15.4766 266.365 15.1068 266.953 14.8516C267.547 14.5964 268.201 14.4688 268.914 14.4688C269.633 14.4688 270.286 14.5964 270.875 14.8516C271.469 15.1068 271.979 15.4766 272.406 15.9609C272.839 16.4453 273.172 17.0312 273.406 17.7188C273.646 18.401 273.766 19.1771 273.766 20.0469ZM271.398 20.5859V20.0312C271.398 19.4271 271.344 18.8958 271.234 18.4375C271.125 17.9792 270.964 17.5938 270.75 17.2812C270.536 16.9688 270.276 16.7344 269.969 16.5781C269.661 16.4167 269.31 16.3359 268.914 16.3359C268.518 16.3359 268.167 16.4167 267.859 16.5781C267.557 16.7344 267.299 16.9688 267.086 17.2812C266.878 17.5938 266.719 17.9792 266.609 18.4375C266.5 18.8958 266.445 19.4271 266.445 20.0312V20.5859C266.445 21.1849 266.5 21.7161 266.609 22.1797C266.719 22.638 266.88 23.026 267.094 23.3438C267.307 23.6562 267.568 23.8932 267.875 24.0547C268.182 24.2161 268.534 24.2969 268.93 24.2969C269.326 24.2969 269.677 24.2161 269.984 24.0547C270.292 23.8932 270.549 23.6562 270.758 23.3438C270.966 23.026 271.125 22.638 271.234 22.1797C271.344 21.7161 271.398 21.1849 271.398 20.5859ZM282.047 22.2266H284.383C284.336 22.9922 284.125 23.6719 283.75 24.2656C283.38 24.8594 282.862 25.3229 282.195 25.6562C281.534 25.9896 280.737 26.1562 279.805 26.1562C279.076 26.1562 278.422 26.0312 277.844 25.7812C277.266 25.526 276.771 25.1615 276.359 24.6875C275.953 24.2135 275.643 23.6406 275.43 22.9688C275.216 22.2969 275.109 21.5443 275.109 20.7109V19.9219C275.109 19.0885 275.219 18.3359 275.438 17.6641C275.661 16.987 275.979 16.4115 276.391 15.9375C276.807 15.4635 277.305 15.099 277.883 14.8438C278.461 14.5885 279.107 14.4609 279.82 14.4609C280.768 14.4609 281.568 14.6328 282.219 14.9766C282.875 15.3203 283.383 15.7943 283.742 16.3984C284.107 17.0026 284.326 17.6901 284.398 18.4609H282.055C282.029 18.0026 281.938 17.6146 281.781 17.2969C281.625 16.974 281.388 16.7318 281.07 16.5703C280.758 16.4036 280.341 16.3203 279.82 16.3203C279.43 16.3203 279.089 16.3932 278.797 16.5391C278.505 16.6849 278.26 16.9062 278.062 17.2031C277.865 17.5 277.716 17.875 277.617 18.3281C277.523 18.776 277.477 19.3021 277.477 19.9062V20.7109C277.477 21.2995 277.521 21.8177 277.609 22.2656C277.698 22.7083 277.833 23.0833 278.016 23.3906C278.203 23.6927 278.443 23.9219 278.734 24.0781C279.031 24.2292 279.388 24.3047 279.805 24.3047C280.294 24.3047 280.698 24.2266 281.016 24.0703C281.333 23.9141 281.576 23.6823 281.742 23.375C281.914 23.0677 282.016 22.6849 282.047 22.2266ZM291.844 23.0234C291.844 22.8203 291.812 22.638 291.75 22.4766C291.693 22.3099 291.583 22.1589 291.422 22.0234C291.26 21.8828 291.034 21.7448 290.742 21.6094C290.451 21.474 290.073 21.3333 289.609 21.1875C289.094 21.0208 288.604 20.8333 288.141 20.625C287.682 20.4167 287.276 20.1745 286.922 19.8984C286.573 19.6172 286.297 19.2917 286.094 18.9219C285.896 18.5521 285.797 18.1224 285.797 17.6328C285.797 17.1589 285.901 16.7292 286.109 16.3438C286.318 15.9531 286.609 15.6198 286.984 15.3438C287.359 15.0625 287.802 14.8464 288.312 14.6953C288.828 14.5443 289.393 14.4688 290.008 14.4688C290.846 14.4688 291.578 14.6198 292.203 14.9219C292.828 15.224 293.312 15.638 293.656 16.1641C294.005 16.6901 294.18 17.2917 294.18 17.9688H291.852C291.852 17.6354 291.781 17.3438 291.641 17.0938C291.505 16.8385 291.297 16.638 291.016 16.4922C290.74 16.3464 290.391 16.2734 289.969 16.2734C289.562 16.2734 289.224 16.3359 288.953 16.4609C288.682 16.5807 288.479 16.7448 288.344 16.9531C288.208 17.1562 288.141 17.3854 288.141 17.6406C288.141 17.8333 288.188 18.0078 288.281 18.1641C288.38 18.3203 288.526 18.4661 288.719 18.6016C288.911 18.737 289.148 18.8646 289.43 18.9844C289.711 19.1042 290.036 19.2214 290.406 19.3359C291.026 19.5234 291.57 19.7344 292.039 19.9688C292.513 20.2031 292.909 20.4661 293.227 20.7578C293.544 21.0495 293.784 21.3802 293.945 21.75C294.107 22.1198 294.188 22.5391 294.188 23.0078C294.188 23.5026 294.091 23.9453 293.898 24.3359C293.706 24.7266 293.427 25.0573 293.062 25.3281C292.698 25.599 292.263 25.8047 291.758 25.9453C291.253 26.0859 290.688 26.1562 290.062 26.1562C289.5 26.1562 288.945 26.0833 288.398 25.9375C287.852 25.7865 287.354 25.5599 286.906 25.2578C286.464 24.9557 286.109 24.5703 285.844 24.1016C285.578 23.6328 285.445 23.0781 285.445 22.4375H287.797C287.797 22.7917 287.852 23.0911 287.961 23.3359C288.07 23.5807 288.224 23.7786 288.422 23.9297C288.625 24.0807 288.865 24.1901 289.141 24.2578C289.422 24.3255 289.729 24.3594 290.062 24.3594C290.469 24.3594 290.802 24.3021 291.062 24.1875C291.328 24.0729 291.523 23.9141 291.648 23.7109C291.779 23.5078 291.844 23.2786 291.844 23.0234Z" fill="white"/>
</svg>
