<svg width="38" height="38" viewBox="0 0 38 38" fill="none" xmlns="http://www.w3.org/2000/svg">
    <path
            d="M2.32612 25.1962C2.51236 24.5575 2.77083 23.9417 3.09771 23.3638L2.16648 22.1891C1.86241 21.8052 1.89662 21.2577 2.2387 20.9118L3.84268 19.3075C4.18857 18.9616 4.7359 18.9312 5.11979 19.2353L6.28667 20.1591C6.88721 19.8131 7.52577 19.5433 8.19093 19.3532L8.36577 17.8516C8.42278 17.365 8.83328 17 9.3198 17H11.5889C12.0755 17 12.486 17.365 12.543 17.8516L12.7102 19.3C13.4248 19.4862 14.1089 19.7638 14.7513 20.1249L15.8802 19.2315C16.2641 18.9274 16.8114 18.9616 17.1573 19.3038L18.7613 20.908C19.1071 21.254 19.1376 21.8014 18.8335 22.1854L17.9555 23.2992C18.3204 23.9303 18.6054 24.6032 18.7955 25.3065L20.1486 25.4623C20.6352 25.5194 21 25.9299 21 26.4165V28.6861C21 29.1727 20.6351 29.5833 20.1486 29.6403L18.8145 29.7962C18.632 30.4919 18.3584 31.1571 18.0087 31.7806L18.8297 32.8184C19.1338 33.2024 19.0996 33.7498 18.7575 34.0958L17.1573 35.6962C16.8114 36.0422 16.2641 36.0726 15.8802 35.7685L14.873 34.9701C14.2192 35.3541 13.5198 35.6468 12.7863 35.8445L12.6342 37.1484C12.5772 37.635 12.1667 38 11.6802 38H9.41106C8.92454 38 8.51404 37.635 8.45703 37.1484L8.30499 35.8445C7.55241 35.643 6.83404 35.3389 6.16508 34.9397L5.11983 35.7685C4.73594 36.0726 4.1886 36.0384 3.84272 35.6962L2.23874 34.092C1.89285 33.746 1.86245 33.1986 2.16652 32.8146L3.04073 31.7084C2.69105 31.0773 2.42498 30.4044 2.25014 29.7049L0.851404 29.5453C0.364888 29.4882 0 29.0777 0 28.5911V26.3215C0 25.8349 0.364888 25.4243 0.851404 25.3673L2.32612 25.1962ZM10.5475 31.3358C12.6152 31.3358 14.299 29.6517 14.299 27.5836C14.299 25.5155 12.6152 23.8314 10.5475 23.8314C8.47983 23.8314 6.79599 25.5155 6.79599 27.5836C6.79599 29.6517 8.4798 31.3358 10.5475 31.3358Z"
            fill="#7D6EFF"
    />
    <path
            d="M22.883 14.635C23.0338 14.118 23.2431 13.6194 23.5077 13.1517L22.7538 12.2007C22.5077 11.8899 22.5354 11.4467 22.8123 11.1667L24.1107 9.868C24.3907 9.58795 24.8338 9.56336 25.1446 9.80956L26.0892 10.5574C26.5754 10.2773 27.0923 10.0588 27.6307 9.90496L27.7723 8.68936C27.8184 8.29544 28.1508 8 28.5446 8H30.3815C30.7754 8 31.1077 8.29547 31.1538 8.68936L31.2892 9.86188C31.8677 10.0127 32.4215 10.2373 32.9415 10.5297L33.8554 9.80648C34.1661 9.56028 34.6092 9.58798 34.8892 9.86495L36.1877 11.1636C36.4677 11.4437 36.4923 11.8869 36.2462 12.1977L35.5354 13.0994C35.8308 13.6103 36.0615 14.155 36.2154 14.7243L37.3108 14.8505C37.7046 14.8966 38 15.229 38 15.6229V17.4602C38 17.8541 37.7046 18.1865 37.3108 18.2326L36.2308 18.3588C36.083 18.922 35.8615 19.4605 35.5785 19.9652L36.2431 20.8054C36.4893 21.1162 36.4616 21.5594 36.1846 21.8394L34.8893 23.135C34.6093 23.4151 34.1662 23.4397 33.8554 23.1935L33.04 22.5472C32.5108 22.8581 31.9446 23.095 31.3508 23.2551L31.2277 24.3106C31.1816 24.7046 30.8492 25 30.4554 25H28.6185C28.2246 25 27.8923 24.7046 27.8462 24.3106L27.7231 23.2551C27.1139 23.092 26.5323 22.8458 25.9908 22.5226L25.1446 23.1935C24.8339 23.4397 24.3908 23.412 24.1108 23.135L22.8123 21.8364C22.5323 21.5563 22.5077 21.1131 22.7538 20.8023L23.4615 19.9068C23.1785 19.3959 22.9631 18.8512 22.8215 18.2849L21.6892 18.1557C21.2954 18.1095 21 17.7772 21 17.3832V15.546C21 15.1521 21.2954 14.8197 21.6892 14.7735L22.883 14.635ZM29.5384 19.6051C31.2123 19.6051 32.5754 18.2418 32.5754 16.5677C32.5754 14.8935 31.2123 13.5302 29.5384 13.5302C27.8646 13.5302 26.5015 14.8935 26.5015 16.5677C26.5015 18.2418 27.8646 19.6051 29.5384 19.6051Z"
            fill="#7D6EFF"
    />
    <path
            d="M8.55075 5.46413C8.67491 5.03835 8.84722 4.62778 9.06514 4.24255L8.44432 3.45942C8.24161 3.20345 8.26441 2.8385 8.49247 2.60787L9.56179 1.53835C9.79238 1.30772 10.1573 1.28747 10.4132 1.49022L11.1911 2.10608C11.5915 1.87543 12.0172 1.69551 12.4606 1.56879L12.5772 0.567705C12.6152 0.243302 12.8889 0 13.2132 0H14.726C15.0503 0 15.324 0.243328 15.362 0.567705L15.4735 1.53331C15.9499 1.6575 16.406 1.84251 16.8342 2.08327L17.5868 1.48769C17.8427 1.28494 18.2076 1.30775 18.4382 1.53584L19.5075 2.60536C19.7381 2.83599 19.7584 3.20094 19.5557 3.45692L18.9703 4.19949C19.2136 4.62023 19.4036 5.06879 19.5303 5.53765L20.4324 5.64156C20.7568 5.67958 21 5.95329 21 6.2777V7.79073C21 8.11513 20.7567 8.38885 20.4324 8.42687L19.543 8.53078C19.4213 8.99457 19.2389 9.43809 19.0058 9.85373L19.5531 10.5456C19.7559 10.8016 19.7331 11.1665 19.505 11.3972L18.4382 12.4642C18.2076 12.6948 17.8427 12.7151 17.5868 12.5123L16.9153 11.9801C16.4795 12.2361 16.0132 12.4312 15.5242 12.563L15.4228 13.4323C15.3848 13.7567 15.1111 14 14.7868 14H13.274C12.9497 14 12.676 13.7567 12.638 13.4323L12.5367 12.563C12.0349 12.4287 11.556 12.2259 11.1101 11.9598L10.4132 12.5123C10.1573 12.7151 9.7924 12.6923 9.56181 12.4642L8.49249 11.3946C8.2619 11.164 8.24163 10.7991 8.44435 10.5431L9.02715 9.80558C8.79403 9.38487 8.61665 8.93628 8.50009 8.46995L7.5676 8.3635C7.24326 8.32549 7 8.05177 7 7.72737V6.21434C7 5.88993 7.24326 5.61622 7.5676 5.57821L8.55075 5.46413ZM14.0317 9.55718C15.4101 9.55718 16.5327 8.43444 16.5327 7.05573C16.5327 5.67702 15.4101 4.55428 14.0317 4.55428C12.6532 4.55428 11.5307 5.67702 11.5307 7.05573C11.5307 8.43444 12.6532 9.55718 14.0317 9.55718Z"
            fill="#7D6EFF"
    />
</svg>