<svg width="234" height="40" viewBox="0 0 234 40" fill="none" xmlns="http://www.w3.org/2000/svg">
<g clip-path="url(#clip0_36_9)">
<path d="M160.8 28.0486V16.8851H156.719V14.2178H168.001V16.8851H163.8V28.0486H160.8Z" fill="url(#paint0_linear_36_9)"/>
<path d="M144.609 28.0486V14.2178H150.55C151.377 14.2178 152.123 14.4154 152.79 14.8105C153.47 15.1925 154.004 15.7194 154.39 16.3912C154.79 17.063 154.991 17.8204 154.991 18.6634C154.991 19.5196 154.79 20.2902 154.39 20.9751C154.004 21.6601 153.47 22.2067 152.79 22.615C152.123 23.0102 151.377 23.2078 150.55 23.2078H147.609V28.0486H144.609ZM147.569 20.5404H150.21C150.53 20.5404 150.817 20.4614 151.07 20.3033C151.323 20.1321 151.523 19.9082 151.67 19.6315C151.83 19.3549 151.91 19.0388 151.91 18.6831C151.91 18.3275 151.83 18.0179 151.67 17.7545C151.523 17.4779 151.323 17.2671 151.07 17.1222C150.817 16.9642 150.53 16.8851 150.21 16.8851H147.569V20.5404Z" fill="url(#paint1_linear_36_9)"/>
<path d="M135.302 28.2457C134.222 28.2457 133.228 28.0679 132.322 27.7122C131.428 27.3434 130.655 26.8363 130.001 26.1909C129.348 25.5454 128.841 24.788 128.481 23.9187C128.134 23.0493 127.961 22.1075 127.961 21.0932C127.961 20.079 128.141 19.1437 128.501 18.2875C128.874 17.4182 129.395 16.6674 130.061 16.0351C130.741 15.3897 131.535 14.8891 132.442 14.5335C133.348 14.1778 134.342 14 135.422 14C136.169 14 136.882 14.0988 137.562 14.2964C138.243 14.494 138.863 14.764 139.423 15.1065C139.983 15.4489 140.45 15.8441 140.823 16.292L138.963 18.2283C138.616 17.899 138.249 17.6224 137.863 17.3984C137.489 17.1613 137.096 16.9835 136.682 16.8649C136.269 16.7332 135.842 16.6674 135.402 16.6674C134.775 16.6674 134.195 16.7793 133.662 17.0033C133.142 17.2272 132.682 17.5367 132.282 17.9319C131.882 18.3271 131.568 18.7947 131.341 19.3347C131.128 19.8748 131.021 20.461 131.021 21.0932C131.021 21.7123 131.135 22.2985 131.362 22.8517C131.602 23.3918 131.922 23.866 132.322 24.2743C132.735 24.6695 133.215 24.9856 133.762 25.2227C134.309 25.4466 134.895 25.5586 135.522 25.5586C135.962 25.5586 136.382 25.4927 136.782 25.361C137.182 25.2293 137.529 25.0449 137.823 24.8078C138.129 24.5575 138.363 24.2677 138.523 23.9384C138.696 23.6091 138.783 23.26 138.783 22.8912V22.417L139.183 22.9703H135.182V20.5005H141.663C141.676 20.6454 141.69 20.8232 141.703 21.0339C141.73 21.2447 141.743 21.4555 141.743 21.6662C141.756 21.8638 141.763 22.0219 141.763 22.1404C141.763 23.0361 141.596 23.8594 141.263 24.6102C140.943 25.361 140.49 26.0064 139.903 26.5465C139.329 27.0866 138.649 27.5081 137.863 27.811C137.076 28.1008 136.222 28.2457 135.302 28.2457Z" fill="url(#paint2_linear_36_9)"/>
<path d="M115.27 32.0001V17.5965H118.01L118.09 19.9477L117.57 19.7699C117.664 19.3484 117.89 18.9598 118.25 18.6042C118.624 18.2485 119.084 17.9587 119.631 17.7348C120.177 17.5109 120.751 17.3989 121.351 17.3989C122.271 17.3989 123.085 17.636 123.791 18.1102C124.511 18.5712 125.078 19.2101 125.492 20.0268C125.918 20.8303 126.132 21.7589 126.132 22.8127C126.132 23.8533 125.925 24.7819 125.512 25.5986C125.098 26.4153 124.531 27.0607 123.811 27.5349C123.091 27.9959 122.271 28.2265 121.351 28.2265C120.738 28.2265 120.151 28.1145 119.591 27.8906C119.044 27.6535 118.577 27.3439 118.19 26.9619C117.804 26.5799 117.564 26.1716 117.47 25.7369L118.13 25.4603V32.0001H115.27ZM120.711 25.816C121.231 25.816 121.691 25.6908 122.091 25.4405C122.491 25.1903 122.805 24.8412 123.031 24.3934C123.258 23.9323 123.371 23.4054 123.371 22.8127C123.371 22.2199 123.258 21.6996 123.031 21.2518C122.805 20.8039 122.491 20.4549 122.091 20.2046C121.704 19.9543 121.244 19.8292 120.711 19.8292C120.177 19.8292 119.711 19.9543 119.311 20.2046C118.911 20.4417 118.597 20.7908 118.371 21.2518C118.144 21.6996 118.03 22.2199 118.03 22.8127C118.03 23.4054 118.144 23.9323 118.371 24.3934C118.597 24.8412 118.911 25.1903 119.311 25.4405C119.711 25.6908 120.177 25.816 120.711 25.816Z" fill="white"/>
<path d="M106.001 28.246C105.121 28.246 104.328 28.0089 103.621 27.5347C102.914 27.0605 102.354 26.415 101.941 25.5983C101.527 24.7817 101.32 23.8464 101.32 22.7927C101.32 21.7389 101.527 20.8103 101.941 20.0068C102.367 19.1901 102.941 18.5512 103.661 18.0902C104.381 17.616 105.201 17.3789 106.121 17.3789C106.641 17.3789 107.115 17.4579 107.541 17.616C107.981 17.7609 108.362 17.9651 108.682 18.2285C109.015 18.492 109.295 18.7949 109.522 19.1374C109.748 19.4799 109.908 19.8487 110.002 20.2439L109.402 20.1451V17.5962H112.222V28.0484H109.362V25.5391L110.002 25.4798C109.895 25.8486 109.722 26.1977 109.482 26.527C109.242 26.8563 108.942 27.1527 108.582 27.4161C108.235 27.6664 107.841 27.8706 107.401 28.0286C106.961 28.1735 106.495 28.246 106.001 28.246ZM106.781 25.8157C107.315 25.8157 107.781 25.6906 108.182 25.4403C108.582 25.19 108.888 24.8409 109.102 24.3931C109.328 23.9321 109.442 23.3986 109.442 22.7927C109.442 22.1999 109.328 21.6796 109.102 21.2318C108.888 20.7839 108.582 20.4349 108.182 20.1846C107.781 19.9211 107.315 19.7894 106.781 19.7894C106.261 19.7894 105.801 19.9211 105.401 20.1846C105.014 20.4349 104.708 20.7839 104.481 21.2318C104.254 21.6796 104.141 22.1999 104.141 22.7927C104.141 23.3986 104.254 23.9321 104.481 24.3931C104.708 24.8409 105.014 25.19 105.401 25.4403C105.801 25.6906 106.261 25.8157 106.781 25.8157Z" fill="white"/>
<path d="M94.5924 28.2457C93.5656 28.2457 92.6188 28.0745 91.752 27.732C90.8985 27.3764 90.1517 26.8824 89.5116 26.2501C88.8848 25.6047 88.3981 24.8473 88.0514 23.9779C87.7047 23.0954 87.5312 22.1338 87.5312 21.0932C87.5312 20.079 87.7113 19.1437 88.0714 18.2875C88.4314 17.4182 88.9382 16.6674 89.5916 16.0351C90.2451 15.3897 91.0118 14.8891 91.892 14.5335C92.7721 14.1778 93.7255 14 94.7523 14C95.4191 14 96.0727 14.0922 96.7128 14.2766C97.3662 14.4479 97.9596 14.7047 98.493 15.0472C99.0398 15.3897 99.5064 15.798 99.8932 16.2722L98.013 18.3271C97.6929 18.0109 97.3595 17.7409 97.0128 17.517C96.6794 17.2799 96.3194 17.102 95.9326 16.9835C95.5592 16.8518 95.1592 16.7859 94.7324 16.7859C94.159 16.7859 93.6189 16.8913 93.1122 17.102C92.6188 17.3128 92.1854 17.6092 91.812 17.9912C91.4386 18.36 91.1385 18.8144 90.9118 19.3545C90.6985 19.8814 90.5918 20.4675 90.5918 21.113C90.5918 21.7716 90.6985 22.3709 90.9118 22.911C91.1252 23.4379 91.4252 23.8923 91.812 24.2743C92.1987 24.6431 92.6588 24.9329 93.1922 25.1437C93.7389 25.3412 94.339 25.44 94.9925 25.44C95.4192 25.44 95.8326 25.3808 96.2327 25.2622C96.6327 25.1437 96.9995 24.979 97.3328 24.7683C97.6796 24.5575 97.9863 24.3138 98.253 24.0372L99.7132 26.3489C99.3932 26.7046 98.9598 27.0273 98.413 27.3171C97.8796 27.6069 97.2795 27.8374 96.6127 28.0086C95.946 28.1667 95.2725 28.2457 94.5924 28.2457Z" fill="white"/>
<path d="M80.1326 28.246C79.0524 28.246 78.0856 28.0154 77.2321 27.5544C76.392 27.0802 75.7252 26.4348 75.2318 25.6181C74.7517 24.8014 74.5117 23.8662 74.5117 22.8124C74.5117 21.7587 74.7517 20.83 75.2318 20.0265C75.7252 19.2098 76.392 18.5644 77.2321 18.0902C78.0856 17.616 79.0524 17.3789 80.1326 17.3789C81.1994 17.3789 82.1529 17.616 82.993 18.0902C83.8465 18.5644 84.5133 19.2098 84.9934 20.0265C85.4734 20.83 85.7135 21.7587 85.7135 22.8124C85.7135 23.8662 85.4734 24.8014 84.9934 25.6181C84.5133 26.4348 83.8465 27.0802 82.993 27.5544C82.1529 28.0154 81.1994 28.246 80.1326 28.246ZM80.1326 25.7959C80.6527 25.7959 81.1194 25.6708 81.5328 25.4205C81.9462 25.1571 82.2663 24.8014 82.493 24.3536C82.733 23.8926 82.853 23.3788 82.853 22.8124C82.853 22.2329 82.733 21.7191 82.493 21.2713C82.2663 20.8103 81.9462 20.4546 81.5328 20.2043C81.1194 19.9409 80.6527 19.8092 80.1326 19.8092C79.5992 19.8092 79.1258 19.9409 78.7124 20.2043C78.299 20.4678 77.9722 20.8234 77.7322 21.2713C77.4922 21.7191 77.3788 22.2329 77.3922 22.8124C77.3788 23.3788 77.4922 23.8926 77.7322 24.3536C77.9722 24.8014 78.299 25.1571 78.7124 25.4205C79.1258 25.6708 79.5992 25.7959 80.1326 25.7959Z" fill="white"/>
<path d="M66.6875 28.0484V17.5962H69.428L69.528 20.9552L69.0479 20.2636C69.2079 19.7236 69.468 19.2362 69.828 18.8015C70.1881 18.3536 70.6082 18.0046 71.0882 17.7543C71.5817 17.504 72.0951 17.3789 72.6285 17.3789C72.8552 17.3789 73.0752 17.3987 73.2886 17.4382C73.502 17.4777 73.682 17.5238 73.8287 17.5765L73.0686 20.6588C72.9085 20.5797 72.7152 20.5139 72.4885 20.4612C72.2618 20.3953 72.0284 20.3624 71.7883 20.3624C71.4683 20.3624 71.1683 20.4217 70.8882 20.5402C70.6215 20.6456 70.3881 20.8037 70.1881 21.0144C69.9881 21.212 69.828 21.4491 69.708 21.7257C69.6013 22.0023 69.548 22.3053 69.548 22.6346V28.0484H66.6875Z" fill="white"/>
<path d="M53 28.0486V14.2178H59.081C60.0144 14.2178 60.8012 14.3561 61.4413 14.6327C62.0948 14.8961 62.5882 15.2847 62.9216 15.7984C63.255 16.3122 63.4217 16.9247 63.4217 17.636C63.4217 18.4263 63.2216 19.0849 62.8216 19.6118C62.4215 20.1387 61.8481 20.5009 61.1013 20.6985L61.0813 20.3033C61.6947 20.4482 62.2348 20.6853 62.7015 21.0146C63.1683 21.3439 63.5283 21.7523 63.7817 22.2396C64.0351 22.727 64.1618 23.2802 64.1618 23.8993C64.1618 24.5843 64.0484 25.1902 63.8217 25.7171C63.595 26.2308 63.2616 26.6589 62.8216 27.0014C62.3815 27.3439 61.8614 27.6073 61.2613 27.7917C60.6745 27.9629 60.0144 28.0486 59.281 28.0486H53ZM55.8805 25.48H59.161C59.5877 25.48 59.9478 25.4207 60.2411 25.3022C60.5479 25.1704 60.7812 24.9729 60.9413 24.7094C61.1013 24.446 61.1813 24.1364 61.1813 23.7808C61.1813 23.4383 61.0946 23.1485 60.9213 22.9114C60.7479 22.6743 60.5012 22.4965 60.1811 22.3779C59.8744 22.2462 59.501 22.1804 59.061 22.1804H55.8805V25.48ZM55.8805 19.8291H58.7209C59.081 19.8291 59.3943 19.7633 59.6611 19.6315C59.9278 19.4998 60.1278 19.322 60.2612 19.0981C60.4078 18.8741 60.4812 18.6107 60.4812 18.3077C60.4812 17.8204 60.3212 17.445 60.0011 17.1815C59.6811 16.9181 59.201 16.7863 58.5609 16.7863H55.8805V19.8291Z" fill="white"/>
<path fill-rule="evenodd" clip-rule="evenodd" d="M21.5 6.66318C22.6825 6.10145 23.5 4.8962 23.5 3.5C23.5 1.567 21.933 0 20 0C18.067 0 16.5 1.567 16.5 3.5C16.5 4.8962 17.3175 6.10145 18.5 6.66318V10H16H12.0103C5.3772 10 0 15.5814 0 22.1502C0 28.719 5.3772 34.044 12.0103 34.044H20V40L34.1765 31.3373C37.7721 29.3487 40 25.5895 40 21.5111C40 15.2953 34.9118 10 28.6351 10H24H21.5V6.66318ZM20 34.044L31.8519 27.2153C33.9392 26.0609 35.2325 23.8786 35.2325 21.5111C35.2325 17.9028 32.2788 14.7212 28.6351 14.7212H12.0103C8.01016 14.7212 4.76743 18.1889 4.76743 22.1502C4.76743 26.1115 8.01016 29.3228 12.0103 29.3228H20V34.044ZM16 22C16 23.6569 14.6569 25 13 25C11.3431 25 10 23.6569 10 22C10 20.3431 11.3431 19 13 19C14.6569 19 16 20.3431 16 22ZM30 22C30 23.6569 28.6569 25 27 25C25.3431 25 24 23.6569 24 22C24 20.3431 25.3431 19 27 19C28.6569 19 30 20.3431 30 22Z" fill="url(#paint3_linear_36_9)"/>
<path d="M221 8H189C181.82 8 176 13.8203 176 21C176 28.1797 181.82 34 189 34H221C228.18 34 234 28.1797 234 21C234 13.8203 228.18 8 221 8Z" fill="#F0E1FF"/>
<path d="M186.074 26V16.2H190.092C190.81 16.2 191.459 16.3213 192.038 16.564C192.626 16.7973 193.13 17.1333 193.55 17.572C193.979 18.0013 194.306 18.5147 194.53 19.112C194.754 19.7093 194.866 20.372 194.866 21.1C194.866 21.8187 194.754 22.4813 194.53 23.088C194.306 23.6853 193.984 24.2033 193.564 24.642C193.144 25.0713 192.64 25.4073 192.052 25.65C191.464 25.8833 190.81 26 190.092 26H186.074ZM188.174 24.474L187.95 24.11H190.022C190.442 24.11 190.82 24.04 191.156 23.9C191.492 23.7507 191.776 23.55 192.01 23.298C192.252 23.0367 192.434 22.7193 192.556 22.346C192.677 21.9727 192.738 21.5573 192.738 21.1C192.738 20.6427 192.677 20.232 192.556 19.868C192.434 19.4947 192.252 19.1773 192.01 18.916C191.776 18.6547 191.492 18.454 191.156 18.314C190.82 18.1647 190.442 18.09 190.022 18.09H187.908L188.174 17.754V24.474ZM201.105 26.14C200.387 26.14 199.724 26.014 199.117 25.762C198.511 25.51 197.979 25.16 197.521 24.712C197.073 24.2547 196.728 23.718 196.485 23.102C196.243 22.4767 196.121 21.8 196.121 21.072C196.121 20.3347 196.243 19.6627 196.485 19.056C196.728 18.44 197.073 17.9033 197.521 17.446C197.979 16.9887 198.511 16.634 199.117 16.382C199.724 16.13 200.387 16.004 201.105 16.004C201.833 16.004 202.496 16.13 203.093 16.382C203.7 16.634 204.227 16.9887 204.675 17.446C205.133 17.9033 205.483 18.44 205.725 19.056C205.968 19.672 206.089 20.344 206.089 21.072C206.089 21.8 205.968 22.472 205.725 23.088C205.483 23.704 205.133 24.2407 204.675 24.698C204.227 25.1553 203.7 25.51 203.093 25.762C202.496 26.014 201.833 26.14 201.105 26.14ZM201.105 24.152C201.516 24.152 201.894 24.0773 202.239 23.928C202.594 23.7787 202.897 23.564 203.149 23.284C203.401 23.004 203.597 22.6773 203.737 22.304C203.887 21.9307 203.961 21.52 203.961 21.072C203.961 20.624 203.887 20.2133 203.737 19.84C203.597 19.4667 203.401 19.1447 203.149 18.874C202.897 18.594 202.594 18.3793 202.239 18.23C201.894 18.0713 201.516 17.992 201.105 17.992C200.695 17.992 200.317 18.0713 199.971 18.23C199.626 18.3793 199.323 18.594 199.061 18.874C198.8 19.1447 198.599 19.4667 198.459 19.84C198.329 20.2133 198.263 20.624 198.263 21.072C198.263 21.52 198.329 21.9307 198.459 22.304C198.599 22.6773 198.8 23.004 199.061 23.284C199.323 23.564 199.626 23.7787 199.971 23.928C200.317 24.0773 200.695 24.152 201.105 24.152ZM212.288 26.14C211.569 26.14 210.906 26.0187 210.3 25.776C209.702 25.524 209.18 25.174 208.732 24.726C208.293 24.2687 207.952 23.732 207.71 23.116C207.467 22.4907 207.346 21.8093 207.346 21.072C207.346 20.3533 207.472 19.6907 207.724 19.084C207.976 18.468 208.33 17.936 208.788 17.488C209.245 17.0307 209.782 16.676 210.398 16.424C211.014 16.172 211.681 16.046 212.4 16.046C212.866 16.046 213.324 16.1113 213.772 16.242C214.229 16.3633 214.644 16.5453 215.018 16.788C215.4 17.0307 215.727 17.32 215.998 17.656L214.682 19.112C214.458 18.888 214.224 18.6967 213.982 18.538C213.748 18.37 213.496 18.244 213.226 18.16C212.964 18.0667 212.684 18.02 212.386 18.02C211.984 18.02 211.606 18.0947 211.252 18.244C210.906 18.3933 210.603 18.6033 210.342 18.874C210.08 19.1353 209.87 19.4573 209.712 19.84C209.562 20.2133 209.488 20.6287 209.488 21.086C209.488 21.5527 209.562 21.9773 209.712 22.36C209.861 22.7333 210.071 23.0553 210.342 23.326C210.612 23.5873 210.934 23.7927 211.308 23.942C211.69 24.082 212.11 24.152 212.568 24.152C212.866 24.152 213.156 24.11 213.436 24.026C213.716 23.942 213.972 23.8253 214.206 23.676C214.448 23.5267 214.663 23.354 214.85 23.158L215.872 24.796C215.648 25.048 215.344 25.2767 214.962 25.482C214.588 25.6873 214.168 25.8507 213.702 25.972C213.235 26.084 212.764 26.14 212.288 26.14ZM220.82 26.14C220.213 26.14 219.658 26.0653 219.154 25.916C218.659 25.7667 218.216 25.5473 217.824 25.258C217.441 24.9687 217.096 24.6187 216.788 24.208L218.104 22.71C218.561 23.3447 219.014 23.7787 219.462 24.012C219.919 24.236 220.414 24.348 220.946 24.348C221.235 24.348 221.492 24.3107 221.716 24.236C221.949 24.152 222.131 24.0353 222.262 23.886C222.393 23.7367 222.458 23.5593 222.458 23.354C222.458 23.2047 222.425 23.0693 222.36 22.948C222.295 22.8173 222.201 22.7053 222.08 22.612C221.959 22.5093 221.814 22.4207 221.646 22.346C221.478 22.262 221.291 22.192 221.086 22.136C220.881 22.0707 220.657 22.0193 220.414 21.982C219.891 21.8607 219.434 21.716 219.042 21.548C218.65 21.3707 218.323 21.156 218.062 20.904C217.801 20.6427 217.605 20.3487 217.474 20.022C217.353 19.6953 217.292 19.3267 217.292 18.916C217.292 18.496 217.385 18.1087 217.572 17.754C217.759 17.39 218.015 17.0773 218.342 16.816C218.678 16.5547 219.061 16.354 219.49 16.214C219.929 16.074 220.391 16.004 220.876 16.004C221.473 16.004 221.996 16.074 222.444 16.214C222.892 16.3447 223.279 16.536 223.606 16.788C223.942 17.04 224.222 17.348 224.446 17.712L223.116 19C222.92 18.7387 222.705 18.5193 222.472 18.342C222.248 18.1647 222.001 18.034 221.73 17.95C221.469 17.8567 221.198 17.81 220.918 17.81C220.61 17.81 220.344 17.852 220.12 17.936C219.896 18.0107 219.719 18.1227 219.588 18.272C219.467 18.4213 219.406 18.6033 219.406 18.818C219.406 18.986 219.448 19.1353 219.532 19.266C219.616 19.3967 219.737 19.5133 219.896 19.616C220.055 19.7093 220.246 19.7933 220.47 19.868C220.694 19.9427 220.941 20.008 221.212 20.064C221.725 20.1667 222.187 20.302 222.598 20.47C223.009 20.638 223.359 20.8433 223.648 21.086C223.947 21.3193 224.175 21.5993 224.334 21.926C224.493 22.2433 224.572 22.6027 224.572 23.004C224.572 23.6667 224.413 24.2313 224.096 24.698C223.779 25.1647 223.34 25.524 222.78 25.776C222.22 26.0187 221.567 26.14 220.82 26.14Z" fill="#8773C3"/>
</g>
<defs>
<linearGradient id="paint0_linear_36_9" x1="128.801" y1="20.1453" x2="169.2" y2="20.1453" gradientUnits="userSpaceOnUse">
<stop stop-color="#CD5AFF"/>
<stop offset="1" stop-color="#825AFF"/>
</linearGradient>
<linearGradient id="paint1_linear_36_9" x1="128.799" y1="20.1453" x2="169.197" y2="20.1453" gradientUnits="userSpaceOnUse">
<stop stop-color="#CD5AFF"/>
<stop offset="1" stop-color="#825AFF"/>
</linearGradient>
<linearGradient id="paint2_linear_36_9" x1="128.801" y1="20.145" x2="169.2" y2="20.145" gradientUnits="userSpaceOnUse">
<stop stop-color="#CD5AFF"/>
<stop offset="1" stop-color="#825AFF"/>
</linearGradient>
<linearGradient id="paint3_linear_36_9" x1="0" y1="0" x2="40" y2="40" gradientUnits="userSpaceOnUse">
<stop stop-color="#F05AFF"/>
<stop offset="0.0001" stop-color="#F069FF"/>
<stop offset="1" stop-color="#555AFF"/>
</linearGradient>
<clipPath id="clip0_36_9">
<rect width="234" height="40" fill="white"/>
</clipPath>
</defs>
</svg>
