<svg width="42" height="42" viewBox="0 0 42 42" fill="none" xmlns="http://www.w3.org/2000/svg">
<path d="M21 36C32.5978 36 42 29.2843 42 21C42 12.7159 32.5978 6 21 6C9.40218 6 0 12.7159 0 21C0 29.2843 9.40218 36 21 36Z" fill="#5582FA"/>
<path d="M11.8816 23.0208C12.7732 23.0208 13.4387 22.8573 13.8598 22.535C14.2765 22.2159 14.5642 21.6632 14.715 20.8922C14.8556 20.1715 14.8021 19.6683 14.5559 19.3967C14.3041 19.1194 13.7598 18.9787 12.9381 18.9787H11.5133L10.7235 23.0208H11.8816ZM7.22162 28C7.15549 28 7.09268 27.9706 7.05063 27.9197C7.00851 27.869 6.99144 27.8021 7.00408 27.7375L9.09735 17.0258C9.1176 16.9222 9.20886 16.8474 9.31497 16.8474H13.8265C15.2444 16.8474 16.2998 17.2303 16.9631 17.9856C17.63 18.7449 17.8359 19.8062 17.5752 21.14C17.4691 21.6834 17.2865 22.1881 17.0327 22.6399C16.7786 23.0923 16.4427 23.5108 16.0343 23.8842C15.5454 24.3392 14.9921 24.6692 14.3912 24.8634C13.7998 25.055 13.0404 25.1521 12.1339 25.1521H10.3071L9.78538 27.8216C9.76514 27.9252 9.67395 28 9.56784 28H7.22162Z" fill="white"/>
<path d="M22.9553 25.1523C22.889 25.1523 22.8263 25.1229 22.7843 25.0721C22.7421 25.0213 22.725 24.9545 22.7376 24.8898L23.6636 20.1503C23.7517 19.6996 23.73 19.3761 23.6025 19.2394C23.5245 19.1558 23.2901 19.0157 22.597 19.0157H20.9195L19.7553 24.9739C19.735 25.0775 19.6438 25.1523 19.5376 25.1523H17.21C17.1438 25.1523 17.081 25.1229 17.0389 25.0721C16.9968 25.0213 16.9797 24.9544 16.9924 24.8898L19.0856 14.1781C19.1059 14.0746 19.1971 13.9998 19.3033 13.9998H21.6309C21.6971 13.9998 21.7599 14.0292 21.802 14.0799C21.8441 14.1308 21.8612 14.1976 21.8485 14.2623L21.3434 16.8476H23.148C24.5229 16.8476 25.4551 17.0887 25.9981 17.5846C26.5515 18.0905 26.7242 18.8995 26.5114 19.9892L25.5375 24.9739C25.5172 25.0775 25.4261 25.1523 25.3199 25.1523H22.9553Z" fill="white"/>
<path d="M30.1961 23.0208C31.0876 23.0208 31.7532 22.8573 32.1743 22.535C32.5909 22.216 32.8786 21.6633 33.0295 20.8922C33.1702 20.1715 33.1166 19.6683 32.8703 19.3967C32.6185 19.1194 32.0742 18.9787 31.2525 18.9787H29.8278L29.0379 23.0208H30.1961ZM25.5361 28C25.47 28 25.4072 27.9706 25.3651 27.9197C25.323 27.869 25.3059 27.8021 25.3185 27.7375L27.4118 17.0258C27.4321 16.9222 27.5233 16.8474 27.6295 16.8474H32.141C33.5589 16.8474 34.6142 17.2303 35.2776 17.9856C35.9445 18.7448 36.1504 19.8061 35.8897 21.14C35.7834 21.6834 35.601 22.1881 35.3472 22.6399C35.093 23.0923 34.7572 23.5108 34.3488 23.8842C33.8599 24.3392 33.3066 24.6692 32.7057 24.8634C32.1143 25.055 31.3548 25.1521 30.4483 25.1521H28.6214L28.1 27.8216C28.0797 27.9252 27.9885 28 27.8823 28H25.5361Z" fill="white"/>
</svg>
