<svg width="48" height="48" viewBox="0 0 48 48" fill="none" xmlns="http://www.w3.org/2000/svg">
<path d="M23.7117 0.0020904C21.7324 0.011188 19.8426 0.178149 18.1807 0.469358C13.2802 1.32573 12.3907 3.11749 12.3907 6.42339V10.7885H23.9664V12.2433H12.3907H8.04712C4.68278 12.2433 1.73467 14.2439 0.815004 18.0478C-0.248009 22.4087 -0.295072 25.1337 0.815004 29.6868C1.63795 33.0773 3.60336 35.4914 6.9677 35.4914H10.9482V30.2592C10.9482 26.4792 14.2542 23.1434 18.1803 23.1434H29.743C32.9619 23.1434 35.5331 20.5217 35.5331 17.326V6.42168C35.5331 3.31824 32.8863 0.988734 29.743 0.46765C27.7543 0.140178 25.6909 -0.00858744 23.7112 0.000382052L23.7117 0.0020904Z" fill="#A59BFF"/>
<path d="M36.9748 12.2401V17.3271C36.9748 21.2698 33.5958 24.5881 29.7427 24.5881H18.1799C15.0125 24.5881 12.3899 27.2696 12.3899 30.4055V41.3098C12.3899 44.4132 15.1182 46.2387 18.1799 47.1271C21.8443 48.1932 25.3602 48.3859 29.7427 47.1271C32.6571 46.2926 35.5327 44.6123 35.5327 41.3098V36.9446H23.9699V35.4899H35.5327H41.3227C44.687 35.4899 45.9426 33.1685 47.1127 29.6853C48.3212 26.098 48.2698 22.6464 47.1127 18.0464C46.2811 14.7332 44.6931 12.2418 41.3227 12.2418H36.9791L36.9748 12.2401Z" fill="#7D6EFF"/>
</svg>
