<svg width="32" height="32" viewBox="0 0 32 32" fill="none" xmlns="http://www.w3.org/2000/svg">
<path d="M15.3288 0.00135137C14.0493 0.00723266 12.8275 0.115167 11.7532 0.303424C8.58515 0.857038 8.01016 2.01535 8.01016 4.1525V6.00471H15.4934V7.91487H8.01016H5.20218C3.02725 7.91487 1.1214 9.2082 0.526871 11.6673C-0.160329 14.4865 -0.190754 16.2481 0.526871 19.1915C1.05888 21.3833 2.32945 22.9439 4.50437 22.9439H7.07761V19.5615C7.07761 17.1178 9.21485 14.9614 11.7529 14.9614H19.2278C21.3087 14.9614 22.9709 13.2666 22.9709 11.2007V4.15139C22.9709 2.14512 21.2598 0.639182 19.2278 0.302319C17.9422 0.09062 16.6083 -0.00555148 15.3285 0.000246984L15.3288 0.00135137Z" fill="#D0B9FF"/>
<path d="M24.8726 8.88248V12.171C24.8726 14.7199 22.6882 16.865 20.1973 16.865H12.7224C10.6748 16.865 8.97937 18.5985 8.97937 20.6257V27.675C8.97937 29.6813 10.7431 30.8614 12.7224 31.4357C15.0913 32.1249 17.3642 32.2494 20.1973 31.4357C22.0814 30.8962 23.9404 29.8099 23.9404 27.675V25.8228H16.4654V23.9126H23.9404H27.6834C29.8583 23.9126 30.67 22.4119 31.4264 20.1602C32.2077 17.8411 32.1745 15.6098 31.4264 12.636C30.8888 10.4942 29.8622 8.88358 27.6834 8.88358H24.8754L24.8726 8.88248Z" fill="#AB8FE2"/>
</svg>
