<svg width="42" height="42" viewBox="0 0 42 42" fill="none" xmlns="http://www.w3.org/2000/svg">
<path d="M20.7475 0.00182908C19.0157 0.0097894 17.3621 0.155878 15.9079 0.410683C11.62 1.16 10.8417 2.72777 10.8417 5.6204V9.43986H20.9704V10.7128H10.8417H7.04114C4.09738 10.7128 1.51782 12.4633 0.71312 15.7917C-0.217005 19.6074 -0.258185 21.9918 0.71312 25.9757C1.43319 28.9423 3.1529 31.0546 6.09666 31.0546H9.57953V26.4764C9.57953 23.169 12.4723 20.2502 15.9076 20.2502H26.0248C28.8413 20.2502 31.091 17.9563 31.091 15.1601V5.6189C31.091 2.90342 28.7752 0.865132 26.0248 0.409188C24.2847 0.122654 22.4793 -0.00751391 20.7471 0.000334292L20.7475 0.00182908Z" fill="#7DA0FF"/>
<path d="M32.3533 10.71V15.161C32.3533 18.6109 29.3967 21.5143 26.0253 21.5143H15.908C13.1365 21.5143 10.8418 23.8606 10.8418 26.6044V36.1456C10.8418 38.8611 13.2291 40.4584 15.908 41.2357C19.1143 42.1686 22.1907 42.3371 26.0253 41.2357C28.5754 40.5055 31.0915 39.0352 31.0915 36.1456V32.3262H20.9742V31.0533H31.0915H36.1577C39.1014 31.0533 40.2001 29.0221 41.2239 25.9743C42.2813 22.8354 42.2364 19.8154 41.2239 15.7904C40.4962 12.8914 39.1067 10.7115 36.1577 10.7115H32.3571L32.3533 10.71Z" fill="#5582FA"/>
</svg>
