<svg width="24" height="24" viewBox="0 0 24 24" fill="none" xmlns="http://www.w3.org/2000/svg">
<path d="M12 16.5833C9.47 16.5833 7.41667 14.53 7.41667 12C7.41667 9.47 9.47 7.41667 12 7.41667C14.53 7.41667 16.5833 9.47 16.5833 12C16.5833 14.53 14.53 16.5833 12 16.5833ZM12 9.25C10.4875 9.25 9.25 10.4875 9.25 12C9.25 13.5125 10.4875 14.75 12 14.75C13.5125 14.75 14.75 13.5125 14.75 12C14.75 10.4875 13.5125 9.25 12 9.25ZM12.9167 4.66667V1.91667C12.9167 1.4125 12.5042 1 12 1C11.4958 1 11.0833 1.4125 11.0833 1.91667V4.66667C11.0833 5.17083 11.4958 5.58333 12 5.58333C12.5042 5.58333 12.9167 5.17083 12.9167 4.66667ZM12.9167 22.0833V19.3333C12.9167 18.8292 12.5042 18.4167 12 18.4167C11.4958 18.4167 11.0833 18.8292 11.0833 19.3333V22.0833C11.0833 22.5875 11.4958 23 12 23C12.5042 23 12.9167 22.5875 12.9167 22.0833ZM5.58333 12C5.58333 11.4958 5.17083 11.0833 4.66667 11.0833H1.91667C1.4125 11.0833 1 11.4958 1 12C1 12.5042 1.4125 12.9167 1.91667 12.9167H4.66667C5.17083 12.9167 5.58333 12.5042 5.58333 12ZM23 12C23 11.4958 22.5875 11.0833 22.0833 11.0833H19.3333C18.8292 11.0833 18.4167 11.4958 18.4167 12C18.4167 12.5042 18.8292 12.9167 19.3333 12.9167H22.0833C22.5875 12.9167 23 12.5042 23 12ZM7.15083 7.15083C7.50833 6.79333 7.50833 6.21583 7.15083 5.85833L5.3175 4.025C4.96 3.6675 4.3825 3.6675 4.025 4.025C3.6675 4.3825 3.6675 4.96 4.025 5.3175L5.85833 7.15083C6.04167 7.33417 6.27083 7.41667 6.50917 7.41667C6.7475 7.41667 6.97667 7.325 7.16 7.15083H7.15083ZM19.9842 19.9842C20.3417 19.6267 20.3417 19.0492 19.9842 18.6917L18.1508 16.8583C17.7933 16.5008 17.2158 16.5008 16.8583 16.8583C16.5008 17.2158 16.5008 17.7933 16.8583 18.1508L18.6917 19.9842C18.875 20.1675 19.1042 20.25 19.3425 20.25C19.5808 20.25 19.81 20.1583 19.9933 19.9842H19.9842ZM5.3175 19.9842L7.15083 18.1508C7.50833 17.7933 7.50833 17.2158 7.15083 16.8583C6.79333 16.5008 6.21583 16.5008 5.85833 16.8583L4.025 18.6917C3.6675 19.0492 3.6675 19.6267 4.025 19.9842C4.20833 20.1675 4.4375 20.25 4.67583 20.25C4.91417 20.25 5.14333 20.1583 5.32667 19.9842H5.3175ZM18.1508 7.15083L19.9842 5.3175C20.3417 4.96 20.3417 4.3825 19.9842 4.025C19.6267 3.6675 19.0492 3.6675 18.6917 4.025L16.8583 5.85833C16.5008 6.21583 16.5008 6.79333 16.8583 7.15083C17.0417 7.33417 17.2708 7.41667 17.5092 7.41667C17.7475 7.41667 17.9767 7.325 18.16 7.15083H18.1508Z" fill="url(#paint0_linear_13184_527)"/>
<defs>
<linearGradient id="paint0_linear_13184_527" x1="4.85" y1="2.65" x2="20.5" y2="20.5" gradientUnits="userSpaceOnUse">
<stop stop-color="#6355FF"/>
<stop offset="1" stop-color="#9F97F9"/>
</linearGradient>
</defs>
</svg>
