<svg width="56" height="20" viewBox="0 0 56 20" fill="none" xmlns="http://www.w3.org/2000/svg">
<rect width="56" height="20" rx="10" fill="url(#paint0_linear_712_810)"/>
<path d="M15.73 7.13184V8.0332H12.0166V7.13184H15.73ZM13.2734 5.4624H14.4478V12.2988C14.4478 12.5316 14.4837 12.7072 14.5557 12.8257C14.6276 12.9442 14.7207 13.0225 14.835 13.0605C14.9492 13.0986 15.0719 13.1177 15.2031 13.1177C15.3005 13.1177 15.402 13.1092 15.5078 13.0923C15.6178 13.0711 15.7004 13.0542 15.7554 13.0415L15.7617 14C15.6686 14.0296 15.5459 14.0571 15.3936 14.0825C15.2454 14.1121 15.0656 14.127 14.854 14.127C14.5662 14.127 14.3018 14.0698 14.0605 13.9556C13.8193 13.8413 13.6268 13.6509 13.4829 13.3843C13.3433 13.1134 13.2734 12.7495 13.2734 12.2925V5.4624ZM16.6694 10.6421V10.4961C16.6694 10.001 16.7414 9.54183 16.8853 9.11865C17.0291 8.69124 17.2365 8.32096 17.5073 8.00781C17.7782 7.69043 18.1061 7.44499 18.4912 7.27148C18.8763 7.09375 19.3079 7.00488 19.7861 7.00488C20.2686 7.00488 20.7023 7.09375 21.0874 7.27148C21.4767 7.44499 21.8068 7.69043 22.0776 8.00781C22.3527 8.32096 22.5622 8.69124 22.7061 9.11865C22.8499 9.54183 22.9219 10.001 22.9219 10.4961V10.6421C22.9219 11.1372 22.8499 11.5964 22.7061 12.0195C22.5622 12.4427 22.3527 12.813 22.0776 13.1304C21.8068 13.4435 21.4788 13.689 21.0938 13.8667C20.7129 14.0402 20.2812 14.127 19.7988 14.127C19.3164 14.127 18.8826 14.0402 18.4976 13.8667C18.1125 13.689 17.7824 13.4435 17.5073 13.1304C17.2365 12.813 17.0291 12.4427 16.8853 12.0195C16.7414 11.5964 16.6694 11.1372 16.6694 10.6421ZM17.8438 10.4961V10.6421C17.8438 10.9849 17.884 11.3086 17.9644 11.6133C18.0448 11.9137 18.1654 12.1803 18.3262 12.4131C18.4912 12.6458 18.6965 12.8299 18.9419 12.9653C19.1873 13.0965 19.473 13.1621 19.7988 13.1621C20.1204 13.1621 20.4019 13.0965 20.6431 12.9653C20.8885 12.8299 21.0916 12.6458 21.2524 12.4131C21.4132 12.1803 21.5339 11.9137 21.6143 11.6133C21.6989 11.3086 21.7412 10.9849 21.7412 10.6421V10.4961C21.7412 10.1576 21.6989 9.83805 21.6143 9.5376C21.5339 9.23291 21.4111 8.96419 21.2461 8.73145C21.0853 8.49447 20.8822 8.30827 20.6367 8.17285C20.3955 8.03743 20.112 7.96973 19.7861 7.96973C19.4645 7.96973 19.181 8.03743 18.9355 8.17285C18.6943 8.30827 18.4912 8.49447 18.3262 8.73145C18.1654 8.96419 18.0448 9.23291 17.9644 9.5376C17.884 9.83805 17.8438 10.1576 17.8438 10.4961ZM25.5752 4.25V14H24.3945V4.25H25.5752ZM29.771 7.13184L26.7749 10.3374L25.0991 12.0767L25.0039 10.8262L26.2036 9.3916L28.3364 7.13184H29.771ZM28.6982 14L26.248 10.7246L26.8574 9.67725L30.082 14H28.6982ZM33.7065 14.127C33.2284 14.127 32.7946 14.0465 32.4053 13.8857C32.0202 13.7207 31.688 13.4901 31.4087 13.1938C31.1336 12.8976 30.922 12.5464 30.7739 12.1401C30.6258 11.7339 30.5518 11.2896 30.5518 10.8071V10.5405C30.5518 9.98193 30.6343 9.4847 30.7993 9.04883C30.9644 8.60872 31.1886 8.23633 31.4722 7.93164C31.7557 7.62695 32.0773 7.39632 32.437 7.23975C32.7967 7.08317 33.1691 7.00488 33.5542 7.00488C34.0451 7.00488 34.4683 7.08952 34.8237 7.25879C35.1834 7.42806 35.4775 7.66504 35.7061 7.96973C35.9346 8.27018 36.1038 8.62565 36.2139 9.03613C36.3239 9.44238 36.3789 9.88672 36.3789 10.3691V10.896H31.25V9.9375H35.2046V9.84863C35.1877 9.54395 35.1242 9.24772 35.0142 8.95996C34.9084 8.6722 34.7391 8.43522 34.5063 8.24902C34.2736 8.06283 33.9562 7.96973 33.5542 7.96973C33.2876 7.96973 33.0422 8.02686 32.8179 8.14111C32.5936 8.25114 32.401 8.41618 32.2402 8.63623C32.0794 8.85628 31.9546 9.125 31.8657 9.44238C31.7769 9.75977 31.7324 10.1258 31.7324 10.5405V10.8071C31.7324 11.133 31.7769 11.4398 31.8657 11.7275C31.9588 12.0111 32.0921 12.2607 32.2656 12.4766C32.4434 12.6924 32.6571 12.8617 32.9067 12.9844C33.1606 13.1071 33.4484 13.1685 33.77 13.1685C34.1847 13.1685 34.536 13.0838 34.8237 12.9146C35.1115 12.7453 35.3633 12.5189 35.5791 12.2354L36.29 12.8003C36.1419 13.0246 35.9536 13.2383 35.7251 13.4414C35.4966 13.6445 35.2152 13.8096 34.8809 13.9365C34.5508 14.0635 34.1593 14.127 33.7065 14.127ZM38.9243 8.59814V14H37.75V7.13184H38.8608L38.9243 8.59814ZM38.645 10.3057L38.1562 10.2866C38.1605 9.81689 38.2303 9.38314 38.3657 8.98535C38.5011 8.58333 38.6916 8.23421 38.937 7.93799C39.1825 7.64176 39.4744 7.41325 39.813 7.25244C40.1558 7.0874 40.5345 7.00488 40.9492 7.00488C41.2878 7.00488 41.5924 7.05143 41.8633 7.14453C42.1341 7.2334 42.3647 7.37728 42.5552 7.57617C42.7498 7.77507 42.8979 8.0332 42.9995 8.35059C43.1011 8.66374 43.1519 9.04671 43.1519 9.49951V14H41.9712V9.48682C41.9712 9.12712 41.9183 8.83936 41.8125 8.62354C41.7067 8.40348 41.5522 8.24479 41.3491 8.14746C41.146 8.0459 40.8963 7.99512 40.6001 7.99512C40.3081 7.99512 40.0415 8.05648 39.8003 8.1792C39.5633 8.30192 39.3581 8.47119 39.1846 8.68701C39.0153 8.90283 38.882 9.15039 38.7847 9.42969C38.6916 9.70475 38.645 9.99674 38.645 10.3057Z" fill="#8778D2"/>
<defs>
<linearGradient id="paint0_linear_712_810" x1="2.08616e-07" y1="10" x2="56" y2="10" gradientUnits="userSpaceOnUse">
<stop stop-color="#DEDBFF"/>
<stop offset="1" stop-color="#FFE8EA"/>
</linearGradient>
</defs>
</svg>
